<?xml version="1.0" encoding="utf-8"?>
<!-- Generator: Adobe Illustrator 26.0.1, SVG Export Plug-In . SVG Version: 6.00 Build 0)  -->
<svg version="1.1" id="Layer_1" xmlns="http://www.w3.org/2000/svg" xmlns:xlink="http://www.w3.org/1999/xlink" x="0px" y="0px" viewBox="0 0 130.4 240" style="enable-background:new 0 0 130.4 240;" xml:space="preserve">
	<style type="text/css">
	.bear_st0{fill:#564A41;}
	.bear_st1{fill:#736357;}
	.bear_st2{fill:#998675;}
	.bear_st3{fill:#736558;}
	.bear_st4{fill:none;stroke:#564A41;stroke-width:29.43;stroke-linecap:round;stroke-miterlimit:10;}
	.bear_st5{fill:#E30613;}
	.bear_st6{fill:#FFFFFF;}
	.bear_st7{fill:none;stroke:#736357;stroke-width:29.43;stroke-linecap:round;stroke-miterlimit:10;}
	.bear_st8{fill:#F4A7A8;}
	.bear_st9{fill:#B77D7E;}
	.bear_st10{fill:#C7B299;}
	.bear_st11{fill:#958573;}
	.bear_st12{fill:#E6E6E6;}
	.bear_st13{fill:none;stroke:#000000;stroke-width:1.71;stroke-linecap:round;stroke-miterlimit:10;}
	.bear_st14{fill:#00944A;}
	.bear_st15{fill:#006F38;}
	.bear_st16{fill:#004A25;}
	.bear_st17{fill:#AA050E;}
</style>
	<g id="Layer_2_00000101817255582968707290000009183521426056716416_">
		<g id="Layer_1-2">
			<path class="bear_st0" d="M28.7,230.3h30.9v-45.5H28.7V230.3z" />
			<path class="bear_st0" d="M24.8,240c0-10.7,8.7-19.4,19.4-19.4c10.7,0,19.4,8.7,19.4,19.4c0,0,0,0,0,0" />
			<path class="bear_st1" d="M70.9,230.3h30.9v-45.5H70.9V230.3z" />
			<path class="bear_st1" d="M67,240c0.2-10.7,9.1-19.2,19.9-19c10.4,0.2,18.7,8.6,19,19" />
			<path class="bear_st2" d="M115.6,169.9c0,18.5-6.3,30.8-15.7,38.4S77.9,219,65.2,219v-87.8c21.8,0,43.4,4.1,49,26.3
			C115.2,161.6,115.7,165.8,115.6,169.9" />
			<path class="bear_st3" d="M65.2,131.2V219c-25.4,0-50.4-12-50.4-49.1c0-4.2,0.4-8.4,1.4-12.4C21.8,135.3,43.4,131.2,65.2,131.2z" />
			<path class="bear_st3" d="M114.2,157.5c-4.5,5-10.9,8.6-17.9,11c-10,3.4-21.4,4.6-31.1,4.6s-21.1-1.2-31.1-4.6c-7-2.4-13.4-6-17.9-11
			c5.6-22.2,27.2-26.3,49-26.3S108.6,135.3,114.2,157.5z" />
			<path class="bear_st4" d="M25.3,146.2c-8.1,19.8-1.2,34.8,16.2,46.5" />
			<path class="bear_st5" d="M96,218.5c-0.5,0.3-1,0.5-1.6,0.6c-0.6,0.1-1.2,0.1-1.7-0.1c-0.6-0.1-1.1-0.4-1.6-0.7
			c-0.5-0.3-0.9-0.8-1.2-1.3l-21.1-35l-1-1.7c-0.6-1-1.2-2-1.8-3c-0.7-1-1.6-1.9-2.6-2.5c-4-2.4-9.2-1.1-11.5,2.9
			c-1.1,1.8-1.4,3.9-1.1,5.9c0.2,0.9,0.1,1.8-0.3,2.6c-0.4,0.8-1,1.5-1.7,2l0,0c-1.2,0.8-2.8,0.8-4.1,0.2c-0.6-0.3-1.2-0.7-1.7-1.3
			c-0.4-0.6-0.7-1.2-0.9-1.9c-1.8-9.3,4.3-18.3,13.6-20.1c4.2-0.8,8.5,0,12.1,2.1c2.2,1.3,4,3.1,5.4,5.2c0.7,1.1,1.4,2.2,2,3.3
			c0.3,0.6,0.7,1.1,1,1.7l21.2,35.1c0.3,0.5,0.5,1,0.6,1.6c0.2,1.2-0.1,2.3-0.8,3.3C96.9,217.8,96.5,218.2,96,218.5" />
			<path class="bear_st6" d="M51,179.1c-0.5,1.4-0.6,2.9-0.3,4.4c0.5,2.4-1,4.7-3.4,5.2c-0.2,0-0.4,0.1-0.6,0.1c-0.7,0-1.4-0.1-2.1-0.4
			c-1.3-0.6-2.3-1.8-2.5-3.2c-0.6-3-0.3-6.1,0.7-9L51,179.1z" />
			<path class="bear_st6" d="M63.3,174.7c-2.2-1.3-4.8-1.5-7.2-0.7l-3-8.3c4.9-1.7,10.2-1.2,14.7,1.4L63.3,174.7z" />
			<path class="bear_st6" d="M74.6,191.7l-5.8-9.7l7.5-4.5l5.8,9.7L74.6,191.7z" />
			<path class="bear_st6" d="M86.3,211.1l-5.8-9.7l7.5-4.5l5.8,9.7L86.3,211.1z" />
			<path class="bear_st7" d="M104.8,146.2c8.1,19.8,1.2,34.8-16.2,46.5" />
			<path class="bear_st2" d="M88.5,30.7c-8.9,9.2-8.6,23.9,0.6,32.8c9,8.7,23.2,8.7,32.2,0c9-9,12.1-26.8,3-35.8S97.6,21.6,88.5,30.7z" />
			<path class="bear_st8" d="M96.9,38.5c-4.6,4.6-4.6,12,0,16.6s12,4.6,16.6,0c4.6-4.6,6.9-14.4,2.3-19S101.5,33.9,96.9,38.5z" />
			<path class="bear_st3" d="M41.9,30.7c8.9,9.2,8.6,23.9-0.6,32.8c-9,8.7-23.2,8.7-32.2,0C0,54.5-3,36.7,6.1,27.7S32.8,21.6,41.9,30.7z" />
			<path class="bear_st9" d="M33.5,38.5c4.6,4.6,4.6,12,0,16.6s-12,4.6-16.6,0c-4.6-4.6-6.9-14.4-2.4-19S28.9,33.9,33.5,38.5z" />
			<path class="bear_st2" d="M65.2,30.5v132.3c11.3,0,24.5-1.4,36.1-5.4c16.1-5.5,29.1-16.2,29.1-35.1C130.4,58.6,101.2,30.5,65.2,30.5z" />
			<path class="bear_st3" d="M0,122.3c0,19,12.9,29.6,29.1,35.1c11.6,4,24.9,5.4,36.1,5.4V30.5C29.2,30.5,0,58.6,0,122.3z" />
			<path class="bear_st10" d="M65.2,120.5v42.4c11.3,0,24.5-1.4,36.1-5.4c0-0.3,0-0.6,0-0.8C101.3,136.7,85.2,120.5,65.2,120.5" />
			<path class="bear_st11" d="M29,156.6c0,0.3,0,0.6,0,0.8c11.6,4,24.9,5.4,36.1,5.4v-42.4C45.2,120.5,29,136.7,29,156.6" />
			<path d="M74.8,138c0,2.8-4.3,6.4-9.6,6.4s-9.6-3.6-9.6-6.4s4.3-5.1,9.6-5.1S74.8,135.2,74.8,138z" />
			<path class="bear_st12" d="M58.7,95.8c0,6.2-5.1,11.3-11.3,11.3c-5.4,0-10-3.8-11.1-9.1c-0.9-4.5,1-9,4.8-11.6
			c5.2-3.5,12.2-2.1,15.6,3.1C58.1,91.4,58.7,93.6,58.7,95.8" />
			<path d="M53.5,95.8c0,3.3-2.6,6-5.9,6.1c-0.4,0-0.9,0-1.3-0.1c-2.4-0.5-4.3-2.3-4.8-4.7c-0.5-2.4,0.5-4.9,2.6-6.2
			c2.8-1.9,6.5-1.1,8.4,1.7C53.1,93.4,53.5,94.6,53.5,95.8" />
			<path class="bear_st6" d="M94.4,95.8c0.1,6.2-4.9,11.3-11.1,11.4C77.8,107.3,73,103.4,72,98c-0.9-4.5,1-9,4.8-11.6
			C82,83,89,84.3,92.4,89.5C93.7,91.4,94.3,93.6,94.4,95.8" />
			<path d="M89.2,95.8c0,2.4-1.5,4.7-3.7,5.6c-1.1,0.5-2.3,0.6-3.5,0.3c-2.4-0.5-4.3-2.3-4.8-4.7c-0.5-2.4,0.5-4.9,2.6-6.2
			c1-0.7,2.2-1,3.4-1C86.4,89.8,89.1,92.5,89.2,95.8" />
			<path class="bear_st13" d="M65.2,144.4v8.6" />
			<path class="bear_st14" d="M66.2,7C67.7,4.2,73-0.5,75,0.1c1,0.3,3.4,4.7,3.3,5.8c-0.1,1.5-7.8,3.9-10.9,3.9L66.2,7z" />
			<path class="bear_st15" d="M67.4,9.7c3.4-0.2,8.7-2.7,9.8-4C73.8,5.3,70.6,7.6,67.4,9.7z" />
			<path class="bear_st15" d="M64.2,7c-1.5-2.8-6.8-7.5-8.8-6.9c-1,0.3-3.4,4.7-3.3,5.8c0.1,1.5,7.8,3.9,10.9,3.9L64.2,7z" />
			<path class="bear_st16" d="M63,9.7c-3.4-0.2-8.7-2.7-9.8-4C56.6,5.3,59.9,7.6,63,9.7z" />
			<path class="bear_st5" d="M65.2,16.6h14.4v19.8H65.2" />
			<path class="bear_st17" d="M65.2,36.4H50.8V16.6h14.4" />
			<path class="bear_st5" d="M65.2,9.3h16.2v7.3H65.2" />
			<path class="bear_st17" d="M65.2,16.6H49V9.3h16.2" />
			<path class="bear_st14" d="M65.2,16.6h3V8.5h-3V16.6z" />
			<path class="bear_st15" d="M62.2,16.6h3V8.5h-3L62.2,16.6z" />
			<path class="bear_st14" d="M65.2,36.4h3V16.6h-3V36.4z" />
			<path class="bear_st15" d="M62.2,36.4h3V16.6h-3L62.2,36.4z" />
			<path d="M50.8,20.2h28.8v-3.6H50.8V20.2z" />
			<path class="bear_st15" d="M65.2,8.5h2.1c0-0.9-0.5-1.7-1.3-2c-0.3-0.1-0.5-0.2-0.8-0.2" />
			<path class="bear_st16" d="M65.2,6.4c-0.6,0-1.1,0.2-1.5,0.6c-0.4,0.4-0.6,0.9-0.6,1.5h2.1" />
		</g>
	</g>
</svg>