<svg xmlns="http://www.w3.org/2000/svg" viewBox="0 0 177.76 247.81"><defs><style>.cls-1,.cls-15,.cls-16,.cls-17,.cls-19,.cls-3,.cls-8{fill:none;stroke-linecap:round;}.cls-1,.cls-15{stroke:#876c59;}.cls-1,.cls-3,.cls-8{stroke-miterlimit:10;}.cls-1,.cls-3{stroke-width:14.94px;}.cls-2{fill:#3c3c3b;}.cls-16,.cls-3{stroke:#655143;}.cls-4{fill:#c6ccd6;}.cls-5{fill:#4c3d32;}.cls-6{fill:#655143;}.cls-7{fill:#876c59;}.cls-8{stroke:#00944a;stroke-width:1.49px;}.cls-9{fill:#fe0;}.cls-10{fill:#fff;}.cls-11{fill:#d76c79;}.cls-12{fill:#d5d2b1;}.cls-13{fill:#f6f3cf;}.cls-14{fill:#e30613;}.cls-15,.cls-16,.cls-17,.cls-19{stroke-linejoin:round;}.cls-15,.cls-16{stroke-width:8.96px;}.cls-17{stroke:#ccc;}.cls-17,.cls-19{stroke-width:1.64px;}.cls-18{fill:#aa050e;}.cls-19{stroke:#fff;}</style></defs><g id="Layer_2" data-name="Layer 2"><g id="Layer_1-2" data-name="Layer 1"><path class="cls-1" d="M122.67,182s16.41,22,14,42.67"/><path class="cls-2" d="M144.09,224.7a7.47,7.47,0,0,1-1.26,4.15,7.48,7.48,0,0,1-7.66,3.18,7.47,7.47,0,1,1,8.92-7.33Z"/><path class="cls-3" d="M55.21,182s-16.41,22-14,42.67"/><path class="cls-2" d="M33.79,224.7a7.47,7.47,0,0,0,1.26,4.15A7.48,7.48,0,0,0,42.71,232,7.49,7.49,0,0,0,46.54,230a7.4,7.4,0,0,0,2-3.82A7.46,7.46,0,0,0,36,219.42a7.43,7.43,0,0,0-2.19,5.28"/><path class="cls-4" d="M88.93,204.05c19.66,0,36.23-10,41.52-23.61-5.29-18.25-21.86-28.22-41.52-28.22s-36.22,10-41.51,28.22C52.71,194.08,69.28,204.05,88.93,204.05Z"/><path class="cls-5" d="M88.93,204.05c19.66,0,36.23-10,41.52-23.61-5.29-18.25-21.86-28.22-41.52-28.22s-36.22,10-41.51,28.22C52.71,194.08,69.28,204.05,88.93,204.05Z"/><path class="cls-6" d="M47.42,180.44a46.54,46.54,0,0,0-1.8,13c0,18.2,11.25,32.94,43.31,32.94V204.05C69.28,204.05,52.71,194.08,47.42,180.44Z"/><path class="cls-7" d="M130.35,180.44a46.53,46.53,0,0,1,1.79,13c0,18.2-11,33.87-43.31,32.94V204.05C108.49,204.05,125.06,194.08,130.35,180.44Z"/><path class="cls-6" d="M62.67,239.76h18V214.88h-18Z"/><path class="cls-7" d="M97.16,239.76h18V214.88h-18Z"/><path class="cls-2" d="M71.5,243a1.35,1.35,0,0,1,1,.4,1.4,1.4,0,0,1,.41,1v3.45H87.39a15.71,15.71,0,0,0-31.41,0H70.11v-3.45a1.4,1.4,0,0,1,.11-.53,1.38,1.38,0,0,1,.75-.75A1.39,1.39,0,0,1,71.5,243Z"/><path class="cls-2" d="M106,243a1.39,1.39,0,0,1,.53.1,1.38,1.38,0,0,1,.75.75,1.4,1.4,0,0,1,.11.53v3.45h14.51a15.71,15.71,0,0,0-31.41,0h14.13v-3.45a1.39,1.39,0,0,1,.1-.53,1.48,1.48,0,0,1,.3-.45,1.54,1.54,0,0,1,.45-.3A1.39,1.39,0,0,1,106,243Z"/><path class="cls-8" d="M131,177.86C126.71,214,69.88,224.7,51.1,212"/><path class="cls-9" d="M127.88,180.78a2.59,2.59,0,0,0,.3,1.47,2.52,2.52,0,0,0,1.07,1.05,2.58,2.58,0,0,0,3.68-1.54,2.56,2.56,0,0,0,0-1.5,2.61,2.61,0,0,0-.83-1.25,2.64,2.64,0,0,0-1.39-.57,2.64,2.64,0,0,0-1.9.59,2.61,2.61,0,0,0-.92,1.75Z"/><path class="cls-10" d="M121.09,194.08a2.59,2.59,0,0,0,1.37,2.53,2.6,2.6,0,0,0,1.47.29,2.73,2.73,0,0,0,1.39-.58,2.59,2.59,0,0,0,.82-1.26,2.56,2.56,0,0,0,0-1.5,2.6,2.6,0,0,0-2.23-1.81,2.59,2.59,0,0,0-1,.1,2.65,2.65,0,0,0-.89.48,2.62,2.62,0,0,0-.93,1.75Z"/><path class="cls-9" d="M112.13,203.81a2.51,2.51,0,0,0,.3,1.47,2.55,2.55,0,0,0,1.06,1.05,2.58,2.58,0,0,0,2.86-.29,2.57,2.57,0,0,0,.82-2.75,2.6,2.6,0,0,0-.84-1.25,2.54,2.54,0,0,0-2.39-.46,2.48,2.48,0,0,0-.89.48,2.38,2.38,0,0,0-.63.78A2.54,2.54,0,0,0,112.13,203.81Z"/><path class="cls-10" d="M99,211a2.59,2.59,0,0,0,.3,1.47,2.66,2.66,0,0,0,1.07,1.06A2.59,2.59,0,0,0,104,212a2.56,2.56,0,0,0,0-1.5,2.6,2.6,0,0,0-.84-1.24,2.56,2.56,0,0,0-1.39-.57,2.66,2.66,0,0,0-1,.1,2.52,2.52,0,0,0-.88.48,2.67,2.67,0,0,0-.64.78A2.54,2.54,0,0,0,99,211Z"/><path class="cls-9" d="M85.17,215.66a2.58,2.58,0,0,0,1.36,2.52,2.63,2.63,0,0,0,1.48.29,2.51,2.51,0,0,0,1.38-.58,2.57,2.57,0,0,0,.82-2.75,2.6,2.6,0,0,0-.84-1.25,2.51,2.51,0,0,0-1.38-.56,2.47,2.47,0,0,0-1,.1,2.57,2.57,0,0,0-.89.48,2.61,2.61,0,0,0-.92,1.75Z"/><path class="cls-10" d="M69.11,216.88a2.59,2.59,0,0,0,.3,1.47,2.66,2.66,0,0,0,1.07,1.06,2.58,2.58,0,0,0,1.47.28,2.51,2.51,0,0,0,1.38-.58,2.47,2.47,0,0,0,.83-1.25,2.56,2.56,0,0,0,0-1.5,2.6,2.6,0,0,0-.84-1.24,2.56,2.56,0,0,0-1.39-.57,2.59,2.59,0,0,0-1,.1,2.48,2.48,0,0,0-.89.48,2.67,2.67,0,0,0-.64.78A2.54,2.54,0,0,0,69.11,216.88Z"/><path class="cls-9" d="M54.3,214.3a2.53,2.53,0,0,0,.3,1.47,2.55,2.55,0,0,0,1.06,1,2.59,2.59,0,0,0,3.69-1.54,2.68,2.68,0,0,0,0-1.51,2.58,2.58,0,0,0-.84-1.24,2.54,2.54,0,0,0-2.39-.46,2.48,2.48,0,0,0-.89.48,2.38,2.38,0,0,0-.63.78A2.54,2.54,0,0,0,54.3,214.3Z"/><path class="cls-6" d="M47.31,95S25,106.23,0,77.59C2.5,75,25.28,54.5,59.28,70.87Z"/><path class="cls-11" d="M45.69,88.66S28,92.56,14.4,78.93c0,0,12.94-12.21,38.43-2.1Z"/><path class="cls-7" d="M130.45,95s22.35,11.24,47.31-17.4c-2.5-2.6-25.28-23.09-59.28-6.72Z"/><path class="cls-11" d="M132.07,88.66s17.69,3.9,31.29-9.73c0,0-13-12.21-38.43-2.1Z"/><path class="cls-6" d="M41.51,141.53c.8,4.29,2.75,12.8,2.75,12.8C47.94,174.6,65.79,190.27,89,190.27V61.92c-30.58,0-52.6,21.24-52.6,47.45C36.35,121.8,39.33,129.76,41.51,141.53Z"/><path class="cls-7" d="M136.35,141.53c-.79,4.29-2.74,12.8-2.74,12.8-3.69,20.27-21.53,35.94-44.69,35.94V61.92c30.58,0,52.6,21.24,52.6,47.45,0,12.43-3,20.39-5.17,32.16"/><path class="cls-12" d="M69.24,109.13c0,5.57-3.48,9.94-9.94,9.94a9.94,9.94,0,1,1,9.94-9.94Z"/><path class="cls-13" d="M131.53,109.13a9.93,9.93,0,0,1-17,7,9.94,9.94,0,0,1-2.16-10.83,9.92,9.92,0,0,1,9.18-6.13,9.94,9.94,0,0,1,9.94,9.93Z"/><path class="cls-2" d="M64.87,109.13a5.57,5.57,0,0,1-9.5,3.94,5.67,5.67,0,0,1-1.52-2.85A5.55,5.55,0,0,1,61.43,104a5.47,5.47,0,0,1,3,3A5.5,5.5,0,0,1,64.87,109.13Z"/><path class="cls-2" d="M127.15,109.13a5.54,5.54,0,0,1-3.43,5.14,5.43,5.43,0,0,1-3.21.32,5.56,5.56,0,0,1-2-10.08,5.56,5.56,0,0,1,8.23,2.5A5.49,5.49,0,0,1,127.15,109.13Z"/><path class="cls-14" d="M126,168.83C126,182.17,109.51,193,89.12,193s-36.91-10.82-36.91-24.16,16.53-24.14,36.91-24.14S126,155.49,126,168.83Z"/><path class="cls-2" d="M80.79,167.2c0,4.05-.29,11.81-4.35,11.81s-10.31-7.76-10.31-11.81a7.33,7.33,0,0,1,14.66,0Z"/><path class="cls-2" d="M112.11,167.2c0,4.05-6.26,11.81-10.31,11.81s-4.34-7.76-4.34-11.81a7.33,7.33,0,1,1,14.65,0Z"/><path class="cls-15" d="M117.5,35c2.17,12.62-2.71,22.4-11.26,30.71,0,0,54.94-24,56.64-39.12s-28.32-16.16-28.32-16.16"/><path class="cls-15" d="M145.93,44.46c1.67-1,4.16-16.14-8.47-17.85"/><path class="cls-15" d="M160.61,19.14s11.62-8.69-2.5-14.66"/><path class="cls-16" d="M60.27,35C58.1,47.64,63,57.42,71.53,65.73c0,0-54.94-24-56.64-39.12S43.21,10.45,43.21,10.45"/><path class="cls-16" d="M31.84,44.46c-1.67-1-4.16-16.14,8.47-17.85"/><path class="cls-16" d="M17.16,19.14S5.54,10.45,19.66,4.48"/><path class="cls-8" d="M38.78,43.2c-1.67,3.72,6.32,17.32,13.77,18.72"/><path class="cls-8" d="M64.86,46q-6.09,7.56-4,19.71"/><path class="cls-8" d="M22.8,30.63Q16.33,24.84,9.88,26.1"/><path class="cls-8" d="M93.6,61.92c10.92,0,20.76-5.23,29.14-17.46"/><path class="cls-8" d="M130.45,59c5-5.18,8-10.45,9-15.82"/><path class="cls-9" d="M63.54,65.73a2.64,2.64,0,0,1-.43,1.44,2.69,2.69,0,0,1-1.16,1,2.64,2.64,0,0,1-1.5.15,2.6,2.6,0,0,1-2-2,2.59,2.59,0,0,1,1.1-2.65A2.64,2.64,0,0,1,62,63.34a2.57,2.57,0,0,1,1.4,1.4A2.57,2.57,0,0,1,63.54,65.73Z"/><path class="cls-10" d="M63.54,55.14A2.56,2.56,0,0,1,62,57.53a2.56,2.56,0,0,1-1.5.15,2.6,2.6,0,0,1-2-2,2.66,2.66,0,0,1,.15-1.5,2.69,2.69,0,0,1,1-1.16A2.64,2.64,0,0,1,61,52.56a2.57,2.57,0,0,1,1,.19,2.66,2.66,0,0,1,.84.57,2.5,2.5,0,0,1,.75,1.82Z"/><path class="cls-10" d="M96.18,61.92a2.51,2.51,0,0,1-.44,1.43,2.46,2.46,0,0,1-1.16.95,2.56,2.56,0,0,1-2.81-.56,2.59,2.59,0,0,1-.71-1.32,2.54,2.54,0,0,1,.15-1.49,2.46,2.46,0,0,1,1-1.16,2.52,2.52,0,0,1,1.44-.44,2.57,2.57,0,0,1,1.82.76,2.53,2.53,0,0,1,.56.84A2.57,2.57,0,0,1,96.18,61.92Z"/><path class="cls-10" d="M117.15,53.7a2.51,2.51,0,0,1-.44,1.43,2.56,2.56,0,0,1-1.15,1,2.66,2.66,0,0,1-1.5.14,2.58,2.58,0,0,1-1.32-.7A2.66,2.66,0,0,1,112,54.2a2.54,2.54,0,0,1,.15-1.49,2.59,2.59,0,0,1,2.39-1.6,2.57,2.57,0,0,1,1.82.76,2.84,2.84,0,0,1,.57.84A2.77,2.77,0,0,1,117.15,53.7Z"/><path class="cls-10" d="M134.12,58.44a2.59,2.59,0,0,1-1.6,2.39A2.62,2.62,0,0,1,131,61a2.57,2.57,0,0,1-1.33-.7,2.65,2.65,0,0,1-.7-1.33,2.62,2.62,0,0,1,.14-1.49,2.58,2.58,0,0,1,3.38-1.4,2.53,2.53,0,0,1,.84.56,2.63,2.63,0,0,1,.56.84A2.57,2.57,0,0,1,134.12,58.44Z"/><path class="cls-10" d="M41.14,44.46a2.58,2.58,0,0,1-.43,1.43A2.57,2.57,0,0,1,38.05,47a2.52,2.52,0,0,1-1.32-.71A2.59,2.59,0,0,1,36,45a2.59,2.59,0,0,1,1.1-2.65,2.57,2.57,0,0,1,1.44-.44,2.57,2.57,0,0,1,1.82.76,2.53,2.53,0,0,1,.56.84A2.57,2.57,0,0,1,41.14,44.46Z"/><path class="cls-9" d="M46.31,55.14a2.57,2.57,0,0,1-.44,1.44,2.59,2.59,0,0,1-2.65,1.1,2.58,2.58,0,0,1-1.88-3.53A2.56,2.56,0,0,1,42.29,53a2.64,2.64,0,0,1,2.43-.24,2.62,2.62,0,0,1,.83.57,2.57,2.57,0,0,1,.76,1.82Z"/><path class="cls-10" d="M55.13,61.92a2.58,2.58,0,0,1-.43,1.43,2.58,2.58,0,0,1-4,.39A2.59,2.59,0,0,1,50,62.42a2.59,2.59,0,0,1,1.1-2.65,2.57,2.57,0,0,1,1.44-.44,2.57,2.57,0,0,1,1.82.76,2.53,2.53,0,0,1,.56.84A2.57,2.57,0,0,1,55.13,61.92Z"/><path class="cls-9" d="M67.45,46a2.59,2.59,0,0,1-1.6,2.39,2.54,2.54,0,0,1-1.49.15,2.6,2.6,0,0,1-2-2,2.6,2.6,0,0,1,1.1-2.66,2.57,2.57,0,0,1,3.26.32A2.61,2.61,0,0,1,67.45,46Z"/><path class="cls-9" d="M107,60.09a2.59,2.59,0,0,1-1.6,2.39,2.58,2.58,0,0,1-2.82-.56,2.57,2.57,0,0,1-.7-1.33A2.62,2.62,0,0,1,102,59.1a2.58,2.58,0,0,1,3.38-1.4,2.53,2.53,0,0,1,.84.56,2.63,2.63,0,0,1,.56.84A2.57,2.57,0,0,1,107,60.09Z"/><path class="cls-9" d="M124.93,44.94a2.51,2.51,0,0,1-.44,1.43,2.59,2.59,0,0,1-1.16,1,2.62,2.62,0,0,1-1.49.14,2.57,2.57,0,0,1-2-2A2.54,2.54,0,0,1,120,44a2.46,2.46,0,0,1,1-1.16,2.51,2.51,0,0,1,1.43-.44,2.57,2.57,0,0,1,1,.2,2.57,2.57,0,0,1,1.4,1.4A2.57,2.57,0,0,1,124.93,44.94Z"/><path class="cls-9" d="M139.77,49.63a2.62,2.62,0,0,1-1.6,2.39,2.62,2.62,0,0,1-1.49.14,2.58,2.58,0,0,1-1.88-3.52,2.46,2.46,0,0,1,.95-1.16,2.51,2.51,0,0,1,1.43-.44,2.57,2.57,0,0,1,1,.2,2.57,2.57,0,0,1,1.4,1.4A2.57,2.57,0,0,1,139.77,49.63Z"/><path class="cls-9" d="M25.39,30.63A2.59,2.59,0,0,1,23.79,33a2.54,2.54,0,0,1-1.49.15,2.6,2.6,0,0,1-2-2,2.64,2.64,0,0,1,.15-1.5,2.69,2.69,0,0,1,.95-1.16,2.64,2.64,0,0,1,1.44-.43,2.57,2.57,0,0,1,1,.19,2.6,2.6,0,0,1,1.6,2.39Z"/><path class="cls-10" d="M17,25.88a2.59,2.59,0,0,1-1.59,2.39,2.62,2.62,0,0,1-1.49.14,2.57,2.57,0,0,1-1.33-.7,2.66,2.66,0,0,1-.71-1.33A2.59,2.59,0,0,1,13,23.73a2.57,2.57,0,0,1,2.43-.24,2.57,2.57,0,0,1,1.4,1.4A2.39,2.39,0,0,1,17,25.88Z"/><path class="cls-17" d="M26.11,33.33V49.19"/><path class="cls-18" d="M26.11,68.86a9.84,9.84,0,0,1,0-19.67"/><path class="cls-14" d="M26.11,68.86a9.84,9.84,0,1,0,0-19.67"/><path class="cls-19" d="M160.25,11.81V36.19"/><path class="cls-18" d="M160.25,55.85a9.83,9.83,0,0,1,0-19.66"/><path class="cls-14" d="M160.25,55.85a9.83,9.83,0,0,0,9.09-13.59A9.81,9.81,0,0,0,164,36.94a9.79,9.79,0,0,0-3.77-.75"/><path class="cls-19" d="M121.81,52.16V68"/><path class="cls-18" d="M121.81,87.68a9.83,9.83,0,0,1,0-19.66"/><path class="cls-14" d="M121.81,87.68a9.85,9.85,0,0,0,9.84-9.83,9.83,9.83,0,0,0-6.07-9.08,9.79,9.79,0,0,0-3.77-.75"/></g></g></svg>