<?xml version="1.0" encoding="utf-8"?>
<!-- Generator: Adobe Illustrator 26.0.1, SVG Export Plug-In . SVG Version: 6.00 Build 0)  -->
<svg version="1.1" id="Layer_1" xmlns="http://www.w3.org/2000/svg" xmlns:xlink="http://www.w3.org/1999/xlink" x="0px" y="0px"
	 viewBox="0 0 375 131" style="enable-background:new 0 0 375 131;" xml:space="preserve">
<style type="text/css">
	.st0{opacity:0.8;}
	.st1{opacity:0.3;fill:#006F38;enable-background:new    ;}
	.st2{fill:#006F38;}
	.st3{fill:#FFFFFF;}
	.st4{fill:#E5E5E3;}
	.st5{fill:#E82129;}
	.st6{fill:#505252;}
	.st7{fill:#80D1F2;}
	.st8{fill:#737677;}
	.st9{fill:#004C73;}
	.st10{fill:#A5C439;}
	.st11{fill:#F6EA39;}
	.st12{fill:#72BE45;}
	.st13{fill:#0BAFE5;}
	.st14{fill:#CFD1D1;}
	.st15{fill:#B9BBBA;}
	.st16{fill:none;stroke:#585856;stroke-width:1.72;stroke-miterlimit:10;}
	.st17{fill:#6AAA44;}
	.st18{fill:#009448;}
	.st19{fill:#76B82D;}
	.st20{fill:#C7C6C5;}
	.st21{fill:#EADABC;}
	.st22{fill:#7D7C7D;}
	.st23{fill:#E8BD95;}
	.st24{fill:#DBDBDB;}
	.st25{fill:#EEEDED;}
	.st26{fill:#0071AA;}
	.st27{fill:#21B0E6;}
	.st28{fill:#00973F;}
	.st29{fill:#FCEB20;}
	.st30{fill:#F39207;}
	.st31{fill:#DE0567;}
	.st32{fill:#93D5F6;}
	.st33{fill:#E40F18;}
	.st34{fill:#585856;}
	.st35{fill:#D76850;}
	.st36{fill:#BBCCD5;}
	.st37{fill:#82949C;}
	.st38{fill:#C9D9E3;}
	.st39{fill:#6A797D;}
	.st40{fill:#05699A;}
	.st41{fill:#B8E3F9;}
	.st42{fill:none;stroke:#505252;stroke-width:1.04;stroke-miterlimit:10;}
	.st43{fill:none;stroke:#505252;stroke-width:1.45;stroke-miterlimit:10;}
	.st44{fill:#089C4B;}
	.st45{fill:none;stroke:#585856;stroke-width:1.4;stroke-miterlimit:10;}
	.st46{fill:none;stroke:#585856;stroke-width:1.06;stroke-miterlimit:10;}
	.st47{fill:none;stroke:#585856;stroke-width:1.26;stroke-miterlimit:10;}
	.st48{fill:#ACC237;}
	.st49{fill:#75B543;}
</style>
<g id="Layer_2_00000112616175544131214110000015870577178335359127_" class="st0">
	<g id="Layer_1-2">
		<path class="st1" d="M0,127.7V1l58.9,39L87,14.5l96.3,75.3v38.6L0,127.7z"/>
		<path class="st2" d="M0,128.4V52.1L57.7,89l56.1-26.6v-1.7h-4.4l3.1-3.1h-1.9l2.8-2.8h-1.8l2.7-2.7l2.7,2.7h-1.8l2.8,2.8h-1.9
			l3.1,3.1h-2.1l7.6,2.8v-1.3H122l1.9-1.9h-1.2l1.7-1.7h-1.1l1.6-1.6l1.7,1.6h-1.1l1.7,1.7H126l1.9,1.9h-2.8v1.4l6,2.2V64h-4.4
			l3.1-3.1h-1.9l2.8-2.8h-1.8l2.7-2.7l2.7,2.7h-1.8l2.8,2.8h-1.9l3.1,3.1h-4.4v2l65.3,23.9l17-5.2l85,31.5v12.2H0z"/>
		<path class="st3" d="M375,110.1v20.4H0V91.8h96.8V92h27.7l20,17.4l191.1,0.7H375z"/>
		<path class="st4" d="M245.2,95.4h3.1l-0.1-2h-3V95.4z"/>
		<path class="st4" d="M245,103.1h3.5l-0.2-6.6h-3.2L245,103.1z"/>
		<path class="st4" d="M247.5,64.1H246l-0.1,1.7h1.6V64.1z"/>
		<path class="st4" d="M245.9,67l-0.7,25.2h3L247.6,67H245.9z"/>
		<path class="st5" d="M245.2,93.4h3v-1.2h-3V93.4z"/>
		<path class="st5" d="M247.5,65.8h-1.6V67h1.7L247.5,65.8z"/>
		<path class="st5" d="M245.1,96.5h3.2v-1.1h-3.1L245.1,96.5z"/>
		<path class="st4" d="M248.2,64.6h-3c-0.5,0-0.9-0.2-1.3-0.5c-0.2-0.2-0.3-0.4-0.4-0.6c-0.1-0.2-0.1-0.5-0.1-0.7l0,0
			c0-0.2,0-0.5,0.1-0.7c0.1-0.2,0.2-0.4,0.4-0.6c0.2-0.2,0.4-0.3,0.6-0.4c0.2-0.1,0.5-0.1,0.7-0.1h3c0.2,0,0.5,0,0.7,0.1
			c0.2,0.1,0.4,0.2,0.6,0.4c0.2,0.2,0.3,0.4,0.4,0.6c0.2,0.4,0.2,0.9,0,1.4c-0.1,0.2-0.2,0.4-0.4,0.6c-0.2,0.2-0.4,0.3-0.6,0.4
			C248.7,64.6,248.4,64.6,248.2,64.6z"/>
		<path class="st6" d="M245.3,64.4c0.9,0,1.6-0.7,1.6-1.6s-0.7-1.6-1.6-1.6s-1.6,0.7-1.6,1.6S244.4,64.4,245.3,64.4L245.3,64.4z"/>
		<path class="st7" d="M245.2,62.9c0.4,0,0.8-2.5,0.8-5.6s-0.4-5.6-0.8-5.6s-0.8,2.5-0.8,5.6S244.8,62.9,245.2,62.9z"/>
		<path class="st5" d="M246,55c-0.1-1.9-0.4-3.3-0.7-3.3s-0.6,1.4-0.7,3.3H246z"/>
		<path class="st7" d="M241,66.3c2.6-1.6,4.6-3.3,4.3-3.7s-2.6,0.7-5.2,2.3s-4.6,3.3-4.3,3.7S238.4,68,241,66.3z"/>
		<path class="st5" d="M238.3,66.3c-1.6,1.1-2.6,2.1-2.4,2.4s1.5-0.2,3.2-1.1L238.3,66.3z"/>
		<path class="st7" d="M254.5,68.5c0.2-0.4-1.7-2-4.3-3.7s-4.9-2.7-5.2-2.3s1.7,2,4.3,3.7S254.3,68.9,254.5,68.5z"/>
		<path class="st5" d="M252.1,66.3c1.6,1.1,2.6,2.1,2.4,2.4s-1.5-0.2-3.2-1.1L252.1,66.3z"/>
		<path class="st4" d="M287.4,95.4h3.1l-0.1-2h-3V95.4z"/>
		<path class="st4" d="M287.2,103.1h3.5l-0.2-6.6h-3.1L287.2,103.1z"/>
		<path class="st4" d="M289.7,64.1h-1.5l-0.1,1.7h1.6V64.1z"/>
		<path class="st4" d="M288.1,67l-0.6,25.2h2.9L289.8,67H288.1z"/>
		<path class="st5" d="M287.4,93.4h3v-1.2h-2.9L287.4,93.4z"/>
		<path class="st5" d="M289.7,65.8h-1.6V67h1.7L289.7,65.8z"/>
		<path class="st5" d="M287.4,96.5h3.1v-1.1h-3.1V96.5z"/>
		<path class="st4" d="M290.4,64.6h-3c-0.2,0-0.5,0-0.7-0.1c-0.2-0.1-0.4-0.2-0.6-0.4c-0.2-0.2-0.3-0.4-0.4-0.6
			c-0.1-0.2-0.1-0.5-0.1-0.7l0,0c0-0.2,0-0.5,0.1-0.7c0.1-0.2,0.2-0.4,0.4-0.6c0.2-0.2,0.4-0.3,0.6-0.4c0.2-0.1,0.5-0.1,0.7-0.1h3
			c0.2,0,0.5,0,0.7,0.1c0.2,0.1,0.4,0.2,0.6,0.4c0.2,0.2,0.3,0.4,0.4,0.6c0.2,0.4,0.2,0.9,0,1.4c-0.1,0.2-0.2,0.4-0.4,0.6
			C291.3,64.4,290.9,64.6,290.4,64.6z"/>
		<path class="st6" d="M287.5,64.4c0.9,0,1.6-0.7,1.6-1.6c0-0.9-0.7-1.6-1.6-1.6c-0.9,0-1.6,0.7-1.6,1.6S286.6,64.4,287.5,64.4
			L287.5,64.4z"/>
		<path class="st7" d="M291.9,59.5c2.2-2.2,3.7-4.2,3.4-4.5s-2.3,1.2-4.5,3.4s-3.7,4.2-3.4,4.5S289.7,61.7,291.9,59.5z"/>
		<path class="st5" d="M293.5,57.8c1.3-1.5,2-2.6,1.8-2.8s-1.4,0.5-2.8,1.8L293.5,57.8z"/>
		<path class="st7" d="M287.6,62.8c0.1-0.4-2.3-1.3-5.3-2s-5.5-0.9-5.6-0.5s2.3,1.3,5.3,2S287.5,63.2,287.6,62.8z"/>
		<path class="st5" d="M280.1,60.3c-1.9-0.3-3.3-0.4-3.4,0s1.2,0.9,3.1,1.4L280.1,60.3z"/>
		<path class="st7" d="M289.9,73.5c0.4-0.1,0.2-2.6-0.5-5.6s-1.6-5.4-2-5.3s-0.2,2.6,0.5,5.6S289.5,73.6,289.9,73.5z"/>
		<path class="st5" d="M289.9,70.1c0.3,1.9,0.4,3.3,0,3.4s-0.9-1.2-1.4-3.1L289.9,70.1z"/>
		<path class="st4" d="M309.6,100.8h3.1l-0.1-1.9h-3V100.8z"/>
		<path class="st4" d="M309.4,108.5h3.5l-0.2-6.5h-3.2L309.4,108.5z"/>
		<path class="st4" d="M311.9,69.6h-1.5l-0.1,1.7h1.6V69.6z"/>
		<path class="st4" d="M310.3,72.4l-0.7,25.3h3l-0.7-25.3L310.3,72.4z"/>
		<path class="st5" d="M309.6,98.9h3v-1.2h-3V98.9z"/>
		<path class="st5" d="M311.9,71.3h-1.6v1.1h1.6V71.3z"/>
		<path class="st5" d="M309.5,102h3.2v-1.2h-3.1L309.5,102z"/>
		<path class="st4" d="M312.6,70.1h-3c-0.7,0-1.4-0.4-1.7-1.1c-0.1-0.2-0.1-0.5-0.1-0.7l0,0c0-0.2,0-0.5,0.1-0.7
			c0.1-0.2,0.2-0.4,0.4-0.6c0.2-0.2,0.4-0.3,0.6-0.4c0.2-0.1,0.5-0.1,0.7-0.1h3c0.2,0,0.5,0,0.7,0.1c0.2,0.1,0.4,0.2,0.6,0.4
			c0.2,0.2,0.3,0.4,0.4,0.6c0.2,0.4,0.2,0.9,0,1.4c-0.1,0.2-0.2,0.4-0.4,0.6c-0.2,0.2-0.4,0.3-0.6,0.4
			C313.1,70.1,312.8,70.1,312.6,70.1L312.6,70.1z"/>
		<path class="st6" d="M309.7,69.9c0.9,0,1.6-0.7,1.6-1.6c0-0.9-0.7-1.6-1.6-1.6c-0.9,0-1.6,0.7-1.6,1.6
			C308.1,69.2,308.8,69.9,309.7,69.9L309.7,69.9z"/>
		<path class="st7" d="M309.6,68.4c0.4,0,0.8-2.5,0.8-5.6s-0.4-5.6-0.8-5.6s-0.8,2.5-0.8,5.6C308.8,65.9,309.2,68.4,309.6,68.4z"/>
		<path class="st5" d="M310.3,60.4c-0.1-1.9-0.4-3.3-0.7-3.3s-0.6,1.4-0.7,3.3H310.3z"/>
		<path class="st7" d="M305.4,71.8c2.6-1.6,4.6-3.3,4.3-3.7s-2.5,0.7-5.2,2.3s-4.6,3.3-4.3,3.7S302.8,73.4,305.4,71.8z"/>
		<path class="st5" d="M302.7,71.7c-1.6,1.1-2.6,2.1-2.4,2.4s1.5-0.2,3.2-1.1L302.7,71.7z"/>
		<path class="st7" d="M318.9,74.1c0.2-0.4-1.7-2-4.3-3.7s-4.9-2.7-5.2-2.3s1.7,2,4.3,3.7S318.6,74.5,318.9,74.1z"/>
		<path class="st5" d="M316.5,71.7c1.6,1.1,2.6,2.1,2.4,2.4s-1.5-0.2-3.2-1.1L316.5,71.7z"/>
		<path class="st4" d="M273.7,106.8h3.1v-1.9h-3L273.7,106.8z"/>
		<path class="st4" d="M273.5,114.5h3.5l-0.1-6.5h-3.2L273.5,114.5z"/>
		<path class="st4" d="M276,75.6h-1.5v1.7h1.6L276,75.6z"/>
		<path class="st4" d="M274.5,78.4l-0.7,25.3h3l-0.7-25.3L274.5,78.4z"/>
		<path class="st5" d="M273.8,104.9h3v-1.2h-3V104.9z"/>
		<path class="st5" d="M276.1,77.3h-1.6v1.1h1.6V77.3z"/>
		<path class="st5" d="M273.7,108h3.2l-0.1-1.2h-3.1V108z"/>
		<path class="st4" d="M276.8,76.1h-3c-0.2,0-0.5,0-0.7-0.1c-0.2-0.1-0.4-0.2-0.6-0.4c-0.2-0.2-0.3-0.4-0.4-0.6
			c-0.1-0.2-0.1-0.5-0.1-0.7l0,0c0-0.2,0-0.5,0.1-0.7c0.2-0.5,0.5-0.8,1-1c0.2-0.1,0.5-0.1,0.7-0.1h3c0.2,0,0.5,0,0.7,0.1
			c0.2,0.1,0.4,0.2,0.6,0.4c0.2,0.2,0.3,0.4,0.4,0.6c0.1,0.2,0.1,0.5,0.1,0.7C278.6,75.2,277.8,76,276.8,76.1L276.8,76.1z"/>
		<path class="st6" d="M273.8,75.9c0.9,0,1.6-0.7,1.6-1.6c0-0.9-0.7-1.6-1.6-1.6c-0.9,0-1.6,0.7-1.6,1.6
			C272.2,75.2,272.9,75.9,273.8,75.9L273.8,75.9z"/>
		<path class="st7" d="M273.9,74.4c0.4-0.2-0.5-2.6-1.9-5.3s-2.9-4.8-3.3-4.6s0.5,2.6,1.9,5.3S273.5,74.6,273.9,74.4z"/>
		<path class="st5" d="M270.7,67.1c-1-1.7-1.9-2.7-2.2-2.6c-0.3,0.1,0.1,1.5,0.9,3.2L270.7,67.1z"/>
		<path class="st7" d="M271.8,79.4c1.5-2.7,2.5-5,2.1-5.2s-2,1.8-3.5,4.4s-2.5,5-2.1,5.2S270.2,82.1,271.8,79.4z"/>
		<path class="st5" d="M269.2,80.6c-0.9,1.7-1.3,3.1-1,3.2s1.2-0.9,2.3-2.5L269.2,80.6z"/>
		<path class="st7" d="M284.7,75c0-0.4-2.5-1-5.5-1.2s-5.6,0-5.6,0.4s2.5,1,5.5,1.2S284.6,75.5,284.7,75z"/>
		<path class="st5" d="M281.4,74.1c1.9,0.3,3.3,0.6,3.2,0.9s-1.4,0.5-3.3,0.5L281.4,74.1z"/>
		<path class="st8" d="M36.4,58.4l-9.6,13.4l-4.5,4.5L16.9,77l-6.5,9.9L0.5,85L0,86.1v5.8h46.5l0.3-22.8L36.4,58.4z"/>
		<path class="st6" d="M3.3,79.8l6.6,2.9l7.7-9.1l9.2-1.8l-9.9-0.2L9.7,78l-6-1.7L0,78.7v3.5L3.3,79.8z"/>
		<path class="st6" d="M9.9,82.7l-6.6-2.9L0,82.2v3.9L0.5,85l9.9,1.9l6.5-9.9l5.4-0.7l4.5-4.5l-9.2,1.8L9.9,82.7z"/>
		<path class="st7" d="M110.1,113.5L86.8,90.2H57.5c0.9,0.9,1.8,1.8,2.8,2.7l20.6,20.6L110.1,113.5z"/>
		<path class="st7" d="M124.9,128.4l-17.1-17.3l-18.2,1c0.6,0.6,2,2.6,2.7,3.2c2.5,2.5,10.8,10.6,13.3,13h19.3L124.9,128.4z"/>
		<path class="st9" d="M91.9,68.1H53.7V91h38.2V68.1z"/>
		<path class="st10" d="M51.2,69.9H36.4v21.9h14.8V69.9z"/>
		<path class="st11" d="M41.2,78.5H43v-6.1h-1.8V78.5z"/>
		<path class="st11" d="M37.7,78.5h1.8v-6.1h-1.8V78.5z"/>
		<path class="st12" d="M59.1,69.9H44.3v21.9h14.8V69.9z"/>
		<path class="st3" d="M56.2,78.5H58v-6.1h-1.8L56.2,78.5z"/>
		<path class="st3" d="M52.7,78.5h1.8v-6.1h-1.8V78.5z"/>
		<path class="st3" d="M49,78.5h1.8v-6.1H49V78.5z"/>
		<path class="st3" d="M45.5,78.5h1.8v-6.1h-1.8V78.5z"/>
		<path class="st10" d="M102.2,69.9H87.4v21.9h14.8L102.2,69.9z"/>
		<path class="st11" d="M92.2,78.5H94v-6.1h-1.8L92.2,78.5z"/>
		<path class="st11" d="M88.7,78.5h1.8v-6.1h-1.8V78.5z"/>
		<path class="st12" d="M110.1,69.9H95.3v21.9h14.8L110.1,69.9z"/>
		<path class="st3" d="M107.1,78.5h1.8v-6.1h-1.8V78.5z"/>
		<path class="st3" d="M103.5,78.5h1.8v-6.1h-1.8V78.5z"/>
		<path class="st3" d="M100,78.5h1.8v-6.1H100V78.5z"/>
		<path class="st3" d="M96.5,78.5h1.8v-6.1h-1.8V78.5z"/>
		<path class="st10" d="M112.7,68H34.3v2h78.4V68z"/>
		<path class="st6" d="M65.2,82.1c2,0,3.6-1.6,3.6-3.6s-1.6-3.6-3.6-3.6c-2,0-3.6,1.6-3.6,3.6l0,0C61.6,80.5,63.2,82.1,65.2,82.1z"
			/>
		<path class="st6" d="M73.7,82.1c2,0,3.6-1.6,3.6-3.6s-1.6-3.6-3.6-3.6c-2,0-3.6,1.6-3.6,3.6l0,0C70.1,80.5,71.7,82.1,73.7,82.1z"
			/>
		<path class="st6" d="M82.1,82.1c2,0,3.6-1.6,3.6-3.6s-1.6-3.6-3.6-3.6c-2,0-3.6,1.6-3.6,3.6l0,0C78.5,80.5,80.1,82.1,82.1,82.1z"
			/>
		<path class="st13" d="M67.9,77.8h-5.2V92h5.2V77.8z"/>
		<path class="st13" d="M76.4,77.8h-5.2V92h5.2L76.4,77.8z"/>
		<path class="st13" d="M84.8,77.8h-5.2V92h5.2L84.8,77.8z"/>
		<path class="st3" d="M62.6,93.6c0.8,0,1.5-0.7,1.5-1.5s-0.7-1.5-1.5-1.5s-1.5,0.7-1.5,1.5S61.8,93.6,62.6,93.6z"/>
		<path class="st3" d="M67.8,93.2c0.8,0,1.5-0.7,1.5-1.5s-0.7-1.5-1.5-1.5s-1.5,0.7-1.5,1.5S67,93.2,67.8,93.2z"/>
		<path class="st3" d="M64.5,92c0.7,0,1.2-0.5,1.2-1.2c0-0.7-0.5-1.2-1.2-1.2s-1.2,0.5-1.2,1.2l0,0C63.3,91.5,63.8,92,64.5,92z"/>
		<path class="st3" d="M66,94.8c0.6,0,1.1-0.5,1.1-1.1c0-0.6-0.5-1.1-1.1-1.1c-0.6,0-1.1,0.5-1.1,1.1l0,0
			C64.9,94.3,65.4,94.8,66,94.8z"/>
		<path class="st3" d="M65.3,94c0.8,0,1.4-0.6,1.4-1.4c0-0.8-0.6-1.4-1.4-1.4c-0.8,0-1.4,0.6-1.4,1.4S64.5,94,65.3,94L65.3,94z"/>
		<path class="st3" d="M71.3,93.6c0.8,0,1.5-0.7,1.5-1.5s-0.7-1.5-1.5-1.5s-1.5,0.7-1.5,1.5S70.5,93.6,71.3,93.6z"/>
		<path class="st3" d="M75.7,94.2c0.8,0,1.5-0.7,1.5-1.5s-0.7-1.5-1.5-1.5s-1.5,0.7-1.5,1.5S74.9,94.2,75.7,94.2z"/>
		<path class="st3" d="M75.2,92.2c0.7,0,1.2-0.5,1.2-1.2s-0.5-1.2-1.2-1.2S74,90.3,74,91v0C74,91.7,74.5,92.2,75.2,92.2z"/>
		<path class="st3" d="M73.3,94.7c0.6,0,1.1-0.5,1.1-1.1c0-0.6-0.5-1.1-1.1-1.1c-0.6,0-1.1,0.5-1.1,1.1l0,0
			C72.2,94.2,72.7,94.7,73.3,94.7z"/>
		<path class="st3" d="M74,93.1c0.8,0,1.4-0.6,1.4-1.4c0-0.8-0.6-1.4-1.4-1.4c-0.8,0-1.4,0.6-1.4,1.4S73.2,93.1,74,93.1L74,93.1z"/>
		<path class="st3" d="M80.4,93.8c0.8,0,1.5-0.7,1.5-1.5s-0.7-1.5-1.5-1.5s-1.5,0.7-1.5,1.5S79.6,93.8,80.4,93.8z"/>
		<path class="st3" d="M85.4,93.5c0.8,0,1.5-0.7,1.5-1.5s-0.7-1.5-1.5-1.5s-1.5,0.7-1.5,1.5S84.6,93.5,85.4,93.5z"/>
		<path class="st3" d="M83.2,92c0.7,0,1.2-0.5,1.2-1.2s-0.5-1.2-1.2-1.2S82,90.1,82,90.8v0C82,91.5,82.5,92,83.2,92z"/>
		<path class="st3" d="M83.6,94c0.6,0,1.1-0.5,1.1-1.1c0-0.6-0.5-1.1-1.1-1.1c-0.6,0-1.1,0.5-1.1,1.1l0,0C82.5,93.5,83,94,83.6,94z"
			/>
		<path class="st3" d="M82.2,93.7c0.8,0,1.4-0.6,1.4-1.4c0-0.8-0.6-1.4-1.4-1.4c-0.8,0-1.4,0.6-1.4,1.4S81.4,93.7,82.2,93.7
			L82.2,93.7z"/>
		<path class="st9" d="M46.5,56.6h-1.9v8.2h1.9V56.6z"/>
		<path class="st9" d="M46,51.4h-0.9v8.2H46V51.4z"/>
		<path class="st14" d="M50.5,63.6h-6.8V68h6.8V63.6z"/>
		<path class="st15" d="M47.7,63.6h-6.8V68h6.8V63.6z"/>
		<path class="st6" d="M112.7,68H34.3v2h78.4V68z"/>
		<path class="st16" d="M26.2,80.4v11.4"/>
		<path class="st17" d="M32.9,85.4l-4.3-4.9h2.6l-5-5.7l-5.1,5.7h2.7l-4.3,4.9H32.9z"/>
		<path class="st16" d="M18.4,75.5v16.2"/>
		<path class="st18" d="M28,82.7l-6.1-7.1h3.7l-7.2-8.2l-7.2,8.2H15l-6.2,7.1H28z"/>
		<path class="st7" d="M375,121.1v9.9H106.9l-4.7-9.7c0.4,0.3,7.8,0.3,8.3,0.3c0.4,0,0.9-0.1,1.3-0.3c0.4-0.2,0.7-0.5,1-0.8
			c0.3,0.4,0.6,0.6,1,0.8c0.4,0.2,0.8,0.3,1.2,0.3c0.9,0,0.7-0.4,1.2-1.1c0.5,0.7,2.3,1.1,3.3,1.1c0.4,0,0.9-0.1,1.2-0.3
			c0.4-0.2,0.7-0.5,1-0.8c0.3,0.4,0.6,0.6,1,0.8c0.4,0.2,0.8,0.3,1.2,0.3c0.4,0,0.9-0.1,1.3-0.3c0.4-0.2,0.7-0.5,1-0.8
			c0.3,0.4,0.6,0.6,1,0.8c0.8,0.4,1.7,0.4,2.5,0c0.4-0.2,0.7-0.5,1-0.8c0.3,0.4,0.6,0.6,1,0.8c0.4,0.2,0.8,0.3,1.3,0.3
			c0.4,0,0.8-0.1,1.2-0.3c0.4-0.2,0.7-0.5,1-0.8c0.3,0.4,0.6,0.6,1,0.8c0.4,0.2,0.8,0.3,1.3,0.3c0.4,0,0.8-0.1,1.2-0.3
			c0.4-0.2,0.7-0.5,1-0.8c0.3,0.4,0.6,0.6,1,0.8c0.4,0.2,0.8,0.3,1.2,0.3c0.4,0,0.9-0.1,1.3-0.3c0.4-0.2,0.7-0.5,1-0.8
			c0.1,0.2,0.3,0.4,0.5,0.5l0,0c0.5,0.4,1.1,0.6,1.8,0.6c0.4,0,0.8-0.1,1.2-0.3c0.4-0.2,0.7-0.5,1-0.8c0.3,0.4,0.6,0.6,1,0.8
			c0.4,0.2,0.8,0.3,1.3,0.3c0.4,0,0.8-0.1,1.2-0.3c0.4-0.2,0.7-0.5,1-0.8c0.3,0.3,0.6,0.6,1,0.8l0.9,0.3h0.3c0.4,0,0.9-0.1,1.2-0.3
			c0.4-0.2,0.7-0.5,1-0.8c0.3,0.4,0.6,0.6,1,0.8c0.4,0.2,0.8,0.3,1.2,0.3c0.4,0,0.8-0.1,1.2-0.3c0.4-0.2,0.7-0.5,1-0.8l0,0
			c0.3,0.4,0.6,0.6,1,0.8c0.4,0.2,0.8,0.3,1.2,0.3c0.4,0,0.9-0.1,1.3-0.3c0.4-0.2,0.7-0.5,1-0.8c0.3,0.4,0.6,0.6,1,0.8
			c0.4,0.2,0.8,0.3,1.2,0.3c0.4,0,0.9-0.1,1.2-0.3c0.4-0.2,0.7-0.5,1-0.8c0.3,0.4,0.6,0.6,1,0.8c0.4,0.2,0.8,0.3,1.3,0.3
			c0.4,0,0.9-0.1,1.2-0.3c0.4-0.2,0.7-0.5,1-0.8c0.3,0.4,0.6,0.6,1,0.8c0.4,0.2,0.8,0.3,1.2,0.3c0.4,0,0.9-0.1,1.3-0.3
			c0.4-0.2,0.7-0.5,1-0.8c0.3,0.4,0.6,0.6,1,0.8c0.8,0.4,1.7,0.4,2.5,0c0.4-0.2,0.7-0.5,1-0.8c0.3,0.4,0.6,0.6,1,0.8
			c0.4,0.2,0.8,0.3,1.3,0.3c0.4,0,0.9-0.1,1.2-0.3c0.4-0.2,0.7-0.5,1-0.8c0.3,0.4,0.6,0.6,1,0.8c0.4,0.2,0.8,0.3,1.2,0.3
			c0.4,0,0.9-0.1,1.3-0.3c0.4-0.2,0.7-0.5,1-0.8c0.3,0.4,0.7,0.7,1.1,0.9l0,0c0.4,0.2,0.8,0.3,1.2,0.3c0.4,0,0.9-0.1,1.2-0.3
			c0.4-0.2,0.7-0.5,1-0.8l0,0c0.3,0.4,0.6,0.6,1,0.8c0.4,0.2,0.8,0.3,1.2,0.3c0.4,0,0.8-0.1,1.2-0.3c0.4-0.2,0.7-0.5,1-0.8l0,0
			c0.3,0.4,0.6,0.6,1,0.8c0.4,0.2,0.8,0.3,1.2,0.3c0.4,0,0.9-0.1,1.2-0.3c0.4-0.2,0.7-0.5,1-0.8l0,0c0.3,0.4,0.6,0.6,1,0.8
			c0.4,0.2,0.8,0.3,1.2,0.3c0.4,0,0.8-0.1,1.2-0.3c0.4-0.2,0.7-0.5,1-0.8c0.5,0.7,1.4,1.1,2.3,1.1c0.4,0,0.8-0.1,1.2-0.3
			c0.4-0.2,0.7-0.5,1-0.8c0.3,0.4,0.6,0.6,1,0.8c0.4,0.2,0.8,0.3,1.2,0.3c0.4,0,0.9-0.1,1.3-0.3c0.4-0.2,0.7-0.5,1-0.8
			c0.3,0.4,0.6,0.6,1,0.8c0.4,0.2,0.8,0.3,1.2,0.3c0.4,0,0.9-0.1,1.2-0.3c0.4-0.2,0.7-0.5,1-0.8c0.5,0.7,1.4,1.1,2.3,1.1
			c0.4,0,0.9-0.1,1.2-0.3c0.4-0.2,0.7-0.5,1-0.8c0.3,0.4,0.6,0.6,1,0.8c0.4,0.2,0.8,0.3,1.2,0.3c0.4,0,0.9-0.1,1.3-0.3
			c0.4-0.2,0.7-0.5,1-0.8c0.3,0.4,0.6,0.6,1,0.8c0.8,0.4,1.7,0.4,2.5,0c0.4-0.2,0.7-0.5,1-0.8c0.5,0.7,1.4,1.1,2.3,1.1
			c0.4,0,0.9-0.1,1.2-0.3c0.4-0.2,0.7-0.5,1-0.8c0.3,0.4,0.6,0.6,1,0.8c0.4,0.2,0.8,0.3,1.2,0.3c0.4,0,0.9-0.1,1.3-0.3
			c0.4-0.2,0.7-0.5,1-0.8l0,0c0.3,0.4,0.6,0.7,1,0.9c0.4,0.2,0.8,0.3,1.3,0.3c0.5,0,0.9-0.1,1.3-0.3c0.4-0.2,0.8-0.5,1-0.9
			c0.3,0.4,0.6,0.7,1,0.9c0.4,0.2,0.8,0.3,1.3,0.3c0.5,0,0.9-0.1,1.3-0.3c0.4-0.2,0.8-0.5,1-0.9c0.3,0.4,0.6,0.7,1,0.9
			c0.4,0.2,0.8,0.3,1.3,0.3c0.5,0,0.9-0.1,1.3-0.3c0.4-0.2,0.8-0.5,1-0.9c0.3,0.4,0.6,0.7,1,0.9c0.4,0.2,0.8,0.3,1.3,0.3
			c0.2,0,0.4,0,0.6-0.1l0,0c0.3-0.1,0.6-0.2,0.9-0.4c0.3-0.2,0.5-0.4,0.7-0.7c0.3,0.4,0.6,0.6,1,0.8c0.4,0.2,0.8,0.3,1.2,0.3
			c0.4,0,0.8-0.1,1.2-0.3c0.4-0.2,0.7-0.5,1-0.8c0.5,0.7,1.4,1.1,2.3,1.1c0.4,0,0.8-0.1,1.2-0.3c0.4-0.2,0.7-0.5,1-0.8
			c0.2,0.3,0.5,0.6,0.9,0.8c0.1,0.1,0.3,0.1,0.4,0.2c0.1,0,0.1,0,0.2,0.1c0.1,0,0.3,0,0.4,0.1h0.3c0.4,0,0.9-0.1,1.3-0.3
			c0.4-0.2,0.7-0.5,1-0.8c0.3,0.4,0.6,0.6,1,0.8c0.4,0.2,0.8,0.3,1.3,0.3c0.4,0,0.8-0.1,1.2-0.3c0.4-0.2,0.7-0.5,1-0.8
			c0.3,0.4,0.6,0.6,1,0.8c0.4,0.2,0.8,0.3,1.2,0.3c0.4,0,0.9-0.1,1.3-0.3c0.4-0.2,0.7-0.5,1-0.8c0.3,0.4,0.6,0.6,1,0.8
			c0.4,0.2,0.8,0.3,1.2,0.3c0.4,0,0.8-0.1,1.2-0.3c0.4-0.2,0.7-0.5,1-0.8c0.3,0.4,0.6,0.6,1,0.8c0.4,0.2,0.8,0.3,1.3,0.3
			c0.4,0,0.8-0.1,1.2-0.3c0.4-0.2,0.7-0.5,1-0.8c0.3,0.4,0.6,0.6,1,0.8c0.4,0.2,0.8,0.3,1.2,0.3c0.4,0,0.9-0.1,1.3-0.3
			c0.4-0.2,0.7-0.5,1-0.8c0.3,0.4,0.6,0.6,1,0.8c0.4,0.2,0.8,0.3,1.2,0.3c0.9,0,1.7-0.4,2.3-1.1c0.3,0.4,0.6,0.6,1,0.8
			c0.4,0.2,0.8,0.3,1.2,0.3c0.4,0,0.8-0.1,1.2-0.3c0.4-0.2,0.7-0.5,1-0.8c0.1,0.2,0.3,0.4,0.5,0.5l0,0c0.5,0.4,1.1,0.6,1.8,0.6
			c0.4,0,0.9-0.1,1.3-0.3c0.4-0.2,0.7-0.5,1-0.8c0.3,0.4,0.6,0.6,1,0.8c0.4,0.2,0.8,0.3,1.2,0.3c0.4,0,0.9-0.1,1.3-0.3
			c0.4-0.2,0.7-0.5,1-0.8c0.3,0.3,0.6,0.6,1,0.8l0.9,0.3h0.3c0.4,0,0.8-0.1,1.2-0.3c0.4-0.2,0.7-0.5,1-0.8l0,0
			c0.3,0.4,0.6,0.6,1,0.8c0.4,0.2,0.8,0.3,1.2,0.3c0.4,0,0.9-0.1,1.2-0.3c0.4-0.2,0.7-0.5,1-0.8l0,0c0.3,0.4,0.6,0.6,1,0.8
			c0.4,0.2,0.8,0.3,1.2,0.3c0.4,0,0.9-0.1,1.2-0.3c0.4-0.2,0.7-0.5,1-0.8c0.3,0.4,0.6,0.6,1,0.8c0.4,0.2,0.8,0.3,1.3,0.3
			c0.4,0,0.9-0.1,1.2-0.3c0.4-0.2,0.7-0.5,1-0.8c0.3,0.4,0.6,0.6,1,0.8c0.4,0.2,0.8,0.3,1.2,0.3c0.4,0,0.9-0.1,1.3-0.3
			c0.4-0.2,0.7-0.5,1-0.8c0.3,0.4,0.6,0.6,1,0.8c0.4,0.2,0.8,0.3,1.2,0.3c0.4,0,0.8-0.1,1.2-0.3c0.4-0.2,0.7-0.5,1-0.8
			c0.3,0.4,0.6,0.6,1,0.8c0.4,0.2,0.8,0.3,1.3,0.3c0.4,0,0.8-0.1,1.2-0.3c0.4-0.2,0.7-0.5,1-0.8c0.3,0.4,0.6,0.6,1,0.8
			c0.4,0.2,0.8,0.3,1.2,0.3c0.4,0,0.9-0.1,1.3-0.3c0.4-0.2,0.7-0.5,1-0.8c0.3,0.4,0.6,0.6,1,0.8c0.4,0.2,0.8,0.3,1.2,0.3
			c0.4,0,0.8-0.1,1.2-0.3c0.4-0.2,0.7-0.5,1-0.8c0.3,0.4,0.7,0.7,1.1,0.9l0,0c0.8,0.4,1.7,0.4,2.4,0c0.4-0.2,0.7-0.5,1-0.8l0,0
			c0.3,0.4,0.6,0.6,1,0.8c0.8,0.4,1.7,0.4,2.5,0c0.4-0.2,0.7-0.5,1-0.8l0,0c0.3,0.4,0.6,0.6,1,0.8c0.4,0.2,0.8,0.3,1.2,0.3
			c0.4,0,0.9-0.1,1.2-0.3c0.4-0.2,0.7-0.5,1-0.8l0,0C374.6,120.8,374.8,121,375,121.1z"/>
		<path class="st19" d="M354.4,102.4l7.4-0.1c-1.2-0.3-2.5-0.5-3.8-0.5C356.8,101.9,355.6,102.1,354.4,102.4"/>
		<path class="st19" d="M341.8,103.9h4.9c-0.8-0.3-1.6-0.5-2.5-0.5C343.4,103.4,342.6,103.6,341.8,103.9"/>
		<path class="st20" d="M355,102.1v8.9h1.7l0.1-8.9H355z"/>
		<path class="st21" d="M346.4,103.7h-1.8v7.2h1.8V103.7z"/>
		<path class="st20" d="M324.1,99.8h-1.8v11.1h1.8V99.8z"/>
		<path class="st21" d="M330.2,99.3h-1.8V111h1.8V99.3z"/>
		<path class="st20" d="M340.3,104.3h-1.8v6.6h1.8V104.3z"/>
		<path class="st22" d="M356.5,102.4h-1.8v0.3h1.8V102.4z"/>
		<path class="st19" d="M338.8,103.9h4.9c-0.8-0.3-1.6-0.5-2.5-0.5C340.4,103.4,339.6,103.6,338.8,103.9"/>
		<path class="st23" d="M347,104h-1.6v0.3h1.6V104z"/>
		<path class="st22" d="M339.7,104h-1.8v0.3h1.8V104z"/>
		<path class="st20" d="M339.7,103.7h-1.8v0.3h1.8V103.7z"/>
		<path class="st19" d="M317.8,102.3h4.9c-0.8-0.3-1.6-0.5-2.5-0.5C319.4,101.8,318.6,102,317.8,102.3"/>
		<path class="st24" d="M339.7,103.7v0.3h5.6v-0.3H339.7z"/>
		<path class="st3" d="M339.7,104v0.3h5.6V104H339.7z"/>
		<path class="st19" d="M346.9,99.2h8.1c-1.3-0.4-2.7-0.5-4.1-0.5C349.6,98.8,348.2,98.9,346.9,99.2"/>
		<path class="st19" d="M329.9,100.7h4.9c-0.8-0.3-1.6-0.5-2.5-0.5C331.5,100.3,330.7,100.4,329.9,100.7"/>
		<path class="st19" d="M333.1,100.7h4.9c-0.8-0.3-1.6-0.5-2.5-0.5C334.7,100.3,333.9,100.4,333.1,100.7"/>
		<path class="st19" d="M322.7,99.3h6.9c-1.2-0.3-2.4-0.4-3.6-0.4C324.9,98.9,323.8,99.1,322.7,99.3"/>
		<path class="st19" d="M322.7,99.3h6.9c-1.2-0.3-2.4-0.4-3.6-0.4C324.9,98.9,323.8,99.1,322.7,99.3"/>
		<path class="st24" d="M338.6,100.7h-8.9v0.3h8.9V100.7z"/>
		<path class="st24" d="M328.6,99.3h-4.5v0.3h4.5V99.3z"/>
		<path class="st24" d="M346.5,99.2v0.3h8.9v-0.3H346.5z"/>
		<path class="st24" d="M317.5,102.1v0.3h5.4v-0.3H317.5z"/>
		<path class="st25" d="M329.7,101.3v9.6h8.9v-9.6H329.7z"/>
		<path class="st25" d="M339.7,104.4v6.5h5.6v-6.5H339.7z"/>
		<path class="st25" d="M324.1,111l4.4-0.1v-11h-4.4V111z"/>
		<path class="st3" d="M324.3,101.5l0.1,1h0.4l-0.1-1H324.3z"/>
		<path class="st3" d="M324.3,100.1v1h0.4v-1H324.3z"/>
		<path class="st3" d="M325,101.5v1h0.4v-1H325z"/>
		<path class="st3" d="M325,100.1v1h0.4v-1H325z"/>
		<path class="st3" d="M325.8,101.5v1h0.4v-1H325.8z"/>
		<path class="st3" d="M325.7,100.1l0.1,1h0.3v-1H325.7z"/>
		<path class="st3" d="M326.5,101.5v1h0.4l-0.1-1H326.5z"/>
		<path class="st3" d="M326.4,100.1v1h0.4v-1H326.4z"/>
		<path class="st25" d="M346.5,99.9V111h8.8l0.1-11.1H346.5z"/>
		<path class="st25" d="M356.4,102.8l0,8.1h5.7v-8.1H356.4z"/>
		<path class="st25" d="M323,102.8h-5.5v8.2h5.5V102.8z"/>
		<path class="st24" d="M356.4,102.1v0.3h5.7v-0.3H356.4z"/>
		<path class="st3" d="M327.2,101.5v1h0.4v-1H327.2z"/>
		<path class="st3" d="M327.2,100.1v1h0.4v-1H327.2z"/>
		<path class="st3" d="M327.9,101.5v1h0.4v-1H327.9z"/>
		<path class="st3" d="M327.8,100.1l0.1,1h0.4l-0.1-1H327.8z"/>
		<path class="st3" d="M346.8,101.5v1h0.4v-1H346.8z"/>
		<path class="st3" d="M346.8,100.1v1h0.4v-1H346.8z"/>
		<path class="st3" d="M347.5,101.5v1h0.4v-1H347.5z"/>
		<path class="st3" d="M347.5,100.1v1h0.4v-1H347.5z"/>
		<path class="st3" d="M348.2,101.5l0.1,1h0.4l-0.1-1H348.2z"/>
		<path class="st3" d="M348.2,100.1v1h0.4v-1H348.2z"/>
		<path class="st3" d="M348.9,101.5l0.1,1h0.4l-0.1-1H348.9z"/>
		<path class="st3" d="M348.9,100.1v1h0.4v-1H348.9z"/>
		<path class="st3" d="M349.7,101.5v1h0.4v-1H349.7z"/>
		<path class="st3" d="M349.6,100.1l0.1,1h0.4l-0.1-1H349.6z"/>
		<path class="st3" d="M350.4,101.5v1h0.4v-1H350.4z"/>
		<path class="st3" d="M350.3,100.1v1h0.4v-1H350.3z"/>
		<path class="st3" d="M351.1,101.5l0.1,1h0.4l-0.1-1H351.1z"/>
		<path class="st3" d="M351.1,100.1v1h0.4v-1H351.1z"/>
		<path class="st3" d="M351.8,101.5l0.1,1h0.4l-0.1-1H351.8z"/>
		<path class="st3" d="M351.8,100.1v1h0.4v-1H351.8z"/>
		<path class="st3" d="M352.6,101.5v1h0.4v-1H352.6z"/>
		<path class="st3" d="M352.5,100.1l0.1,1h0.4l-0.1-1H352.5z"/>
		<path class="st3" d="M353.3,101.5v1h0.4v-1H353.3z"/>
		<path class="st3" d="M353.2,100.1l0.1,1h0.4l-0.1-1H353.2z"/>
		<path class="st3" d="M354,101.5v1h0.4v-1H354z"/>
		<path class="st3" d="M354,100.1v1h0.4v-1H354z"/>
		<path class="st3" d="M354.7,101.5v1h0.4v-1H354.7z"/>
		<path class="st3" d="M354.7,100.1v1h0.4v-1H354.7z"/>
		<path class="st3" d="M330.1,101.5v1h0.4v-1H330.1z"/>
		<path class="st3" d="M330.8,101.5v1h0.4v-1H330.8z"/>
		<path class="st3" d="M331.5,101.5v1h0.4v-1H331.5z"/>
		<path class="st3" d="M332.2,101.5v1h0.4v-1H332.2z"/>
		<path class="st3" d="M332.9,101.5v1h0.4v-1H332.9z"/>
		<path class="st3" d="M333.6,101.5v1h0.4v-1H333.6z"/>
		<path class="st3" d="M334.3,101.5v1h0.4v-1H334.3z"/>
		<path class="st3" d="M335,101.5v1h0.4v-1H335z"/>
		<path class="st3" d="M335.7,101.5v1h0.4v-1H335.7z"/>
		<path class="st3" d="M336.4,101.5v1h0.4v-1H336.4z"/>
		<path class="st3" d="M337.1,101.5v1h0.4v-1H337.1z"/>
		<path class="st3" d="M337.8,101.5v1h0.4v-1H337.8z"/>
		<path class="st3" d="M338.6,101h-8.9v0.3h8.9V101z"/>
		<path class="st3" d="M328.6,99.5h-4.5v0.3h4.5V99.5z"/>
		<path class="st3" d="M346.5,99.5v0.3h8.9v-0.3H346.5z"/>
		<path class="st3" d="M317.5,102.5v0.3h5.4v-0.3H317.5z"/>
		<path class="st3" d="M356.4,102.4v0.4h5.7v-0.4H356.4z"/>
		<path class="st22" d="M324.1,99.5h-1.8v0.3h1.8V99.5z"/>
		<path class="st20" d="M324.1,99.3h-1.8v0.3h1.8V99.3z"/>
		<path class="st23" d="M330.1,99.5h-1.6v0.3h1.6V99.5z"/>
		<path class="st26" d="M320.6,102.8h-1.1v8.3h1.1V102.8z"/>
		<path class="st27" d="M326.2,102.8h-1v8.2h1V102.8z"/>
		<path class="st28" d="M336.4,102.8h-1.1v8.3h1.1V102.8z"/>
		<path class="st29" d="M344.1,104.4h-1v6.6h1V104.4z"/>
		<path class="st30" d="M349.8,102.8h-1.1v8.3h1.1V102.8z"/>
		<path class="st31" d="M358.7,102.9h-1v8.1h1V102.9z"/>
		<path class="st32" d="M318.6,102.8h-0.2v8.3h0.2V102.8z"/>
		<path class="st32" d="M319.7,102.8h-0.2v8.3h0.2V102.8z"/>
		<path class="st32" d="M320.8,102.8h-0.2v8.3h0.2V102.8z"/>
		<path class="st32" d="M323.1,102.8h-0.2v8.3h0.2V102.8z"/>
		<path class="st32" d="M321.9,102.8h-0.2v8.3h0.2V102.8z"/>
		<path class="st32" d="M324.2,102.8H324v8.3h0.2V102.8z"/>
		<path class="st32" d="M325.3,102.8h-0.2v8.3h0.2V102.8z"/>
		<path class="st32" d="M326.4,102.8h-0.2v8.3h0.2V102.8z"/>
		<path class="st32" d="M327.5,102.8h-0.2v8.3h0.2V102.8z"/>
		<path class="st32" d="M328.7,102.8h-0.2v8.3h0.2V102.8z"/>
		<path class="st32" d="M329.8,102.8h-0.2v8.3h0.2V102.8z"/>
		<path class="st32" d="M332,102.8h-0.2v8.3h0.2V102.8z"/>
		<path class="st32" d="M330.9,102.8h-0.2v8.3h0.2V102.8z"/>
		<path class="st32" d="M333.1,102.8h-0.2v8.3h0.2V102.8z"/>
		<path class="st32" d="M334.3,102.8h-0.2v8.3h0.2V102.8z"/>
		<path class="st32" d="M335.4,102.8h-0.2v8.3h0.2V102.8z"/>
		<path class="st32" d="M336.5,102.8h-0.2v8.3h0.2V102.8z"/>
		<path class="st32" d="M337.6,102.8h-0.2v8.3h0.2V102.8z"/>
		<path class="st32" d="M338.7,102.8h-0.2v8.3h0.2V102.8z"/>
		<path class="st32" d="M341,102.8h-0.2v8.3h0.2V102.8z"/>
		<path class="st32" d="M339.9,102.8h-0.2v8.3h0.2V102.8z"/>
		<path class="st32" d="M342.1,102.8h-0.2v8.3h0.2V102.8z"/>
		<path class="st32" d="M343.2,102.8H343v8.3h0.2V102.8z"/>
		<path class="st32" d="M344.3,102.8h-0.2v8.3h0.2V102.8z"/>
		<path class="st32" d="M345.5,102.8h-0.2v8.3h0.2V102.8z"/>
		<path class="st32" d="M346.6,102.8h-0.2v8.3h0.2V102.8z"/>
		<path class="st32" d="M347.7,102.8h-0.2v8.3h0.2V102.8z"/>
		<path class="st32" d="M349.9,102.8h-0.2v8.3h0.2V102.8z"/>
		<path class="st32" d="M348.8,102.8h-0.2v8.3h0.2V102.8z"/>
		<path class="st32" d="M351.1,102.8h-0.2v8.3h0.2V102.8z"/>
		<path class="st32" d="M352.2,102.8H352v8.3h0.2V102.8z"/>
		<path class="st32" d="M353.3,102.8h-0.2v8.3h0.2V102.8z"/>
		<path class="st32" d="M354.4,102.8h-0.2v8.3h0.2V102.8z"/>
		<path class="st32" d="M355.5,102.8h-0.2v8.3h0.2V102.8z"/>
		<path class="st32" d="M356.7,102.8h-0.2v8.3h0.2V102.8z"/>
		<path class="st32" d="M358.9,102.8h-0.2v8.3h0.2V102.8z"/>
		<path class="st32" d="M357.8,102.8h-0.2v8.3h0.2V102.8z"/>
		<path class="st32" d="M360,102.8h-0.2v8.3h0.2V102.8z"/>
		<path class="st32" d="M361.1,102.8h-0.2v8.3h0.2V102.8z"/>
		<path class="st32" d="M362.3,102.8h-0.2v8.3h0.2V102.8z"/>
		<path class="st32" d="M362.9,104.3h-44.7v0.2h44.7L362.9,104.3z"/>
		<path class="st32" d="M362.9,102.8h-44.7v0.2h44.7L362.9,102.8z"/>
		<path class="st32" d="M362.9,107.5h-44.7v0.2h44.7L362.9,107.5z"/>
		<path class="st32" d="M362.9,105.9h-44.7v0.2h44.7L362.9,105.9z"/>
		<path class="st32" d="M362.9,109.1h-44.7v0.2h44.7L362.9,109.1z"/>
		<path class="st22" d="M233.6,93.9h-22.4v1.7h22.4L233.6,93.9z"/>
		<path class="st33" d="M255.3,93.9h-18.5v1.7h18.5V93.9z"/>
		<path class="st22" d="M279,93.9h-20.4v1.7H279V93.9z"/>
		<path class="st33" d="M299.4,93.9h-17.1v1.7h17.1V93.9z"/>
		<path class="st22" d="M317.4,93.9h-14.8v1.7h14.8V93.9z"/>
		<path class="st20" d="M258.7,94.9V94h-3.5v1.7h3.5V94.9z"/>
		<path class="st34" d="M283.4,93.9h-5.5v1.7h5.5V93.9z"/>
		<path class="st20" d="M304.3,95.7V94H298v1.7H304.3z"/>
		<path class="st34" d="M240.3,93.9H230v1.7h10.3V93.9z"/>
		<path class="st20" d="M261.9,95.6h-29.1v20.9h29.1V95.6z"/>
		<path class="st20" d="M308.2,95.6h-29.1v20.9h29.1V95.6z"/>
		<path class="st32" d="M284.2,95.6h-29.1v20.9h29.1V95.6z"/>
		<path class="st32" d="M319.8,95.6h-19.9v20.9h19.9V95.6z"/>
		<path class="st32" d="M238.5,95.6h-29.1v20.9h29.1V95.6z"/>
		<path class="st22" d="M241.8,95.6h-9.5v20.9h9.5V95.6z"/>
		<path class="st24" d="M258.1,95.6h-3.8v20.9h3.8V95.6z"/>
		<path class="st22" d="M284.9,95.6h-4.4v20.9h4.4V95.6z"/>
		<path class="st24" d="M302.4,95.6h-5.7v20.9h5.7V95.6z"/>
		<path class="st33" d="M214.8,96.1h-1.4v3.4h1.4V96.1z"/>
		<path class="st33" d="M211.9,96.1h-1.4v3.4h1.4V96.1z"/>
		<path class="st33" d="M220.4,96.1H219v3.4h1.4V96.1z"/>
		<path class="st33" d="M217.6,96.1h-1.4v3.4h1.4V96.1z"/>
		<path class="st33" d="M226.1,96.1h-1.4v3.4h1.4V96.1z"/>
		<path class="st33" d="M223.3,96.1h-1.4v3.4h1.4V96.1z"/>
		<path class="st33" d="M231.8,96.1h-1.4v3.4h1.4V96.1z"/>
		<path class="st33" d="M229,96.1h-1.4v3.4h1.4V96.1z"/>
		<path class="st33" d="M237.5,96.1h-1.4v3.4h1.4V96.1z"/>
		<path class="st33" d="M234.6,96.1h-1.4v3.4h1.4V96.1z"/>
		<path class="st33" d="M243.2,96.1h-1.4v3.4h1.4V96.1z"/>
		<path class="st33" d="M240.3,96.1h-1.4v3.4h1.4V96.1z"/>
		<path class="st33" d="M248.9,96.1h-1.4v3.4h1.4V96.1z"/>
		<path class="st33" d="M246,96.1h-1.4v3.4h1.4V96.1z"/>
		<path class="st33" d="M254.5,96.1h-1.4v3.4h1.4V96.1z"/>
		<path class="st33" d="M251.7,96.1h-1.4v3.4h1.4V96.1z"/>
		<path class="st33" d="M260.2,96.1h-1.4v3.4h1.4V96.1z"/>
		<path class="st33" d="M257.4,96.1H256v3.4h1.4V96.1z"/>
		<path class="st33" d="M265.9,96.1h-1.4v3.4h1.4V96.1z"/>
		<path class="st33" d="M263.1,96.1h-1.4v3.4h1.4V96.1z"/>
		<path class="st33" d="M271.6,96.1h-1.4v3.4h1.4V96.1z"/>
		<path class="st33" d="M268.7,96.1h-1.4v3.4h1.4V96.1z"/>
		<path class="st33" d="M277.3,96.1h-1.4v3.4h1.4V96.1z"/>
		<path class="st33" d="M274.4,96.1H273v3.4h1.4V96.1z"/>
		<path class="st33" d="M282.9,96.1h-1.4v3.4h1.4V96.1z"/>
		<path class="st33" d="M280.1,96.1h-1.4v3.4h1.4V96.1z"/>
		<path class="st33" d="M288.6,96.1h-1.4v3.4h1.4V96.1z"/>
		<path class="st33" d="M285.8,96.1h-1.4v3.4h1.4V96.1z"/>
		<path class="st33" d="M294.3,96.1h-1.4v3.4h1.4V96.1z"/>
		<path class="st33" d="M291.5,96.1h-1.4v3.4h1.4V96.1z"/>
		<path class="st33" d="M300,96.1h-1.4v3.4h1.4V96.1z"/>
		<path class="st33" d="M297.1,96.1h-1.4v3.4h1.4V96.1z"/>
		<path class="st33" d="M305.7,96.1h-1.4v3.4h1.4V96.1z"/>
		<path class="st33" d="M302.8,96.1h-1.4v3.4h1.4V96.1z"/>
		<path class="st33" d="M311.4,96.1H310v3.4h1.4V96.1z"/>
		<path class="st33" d="M308.5,96.1h-1.4v3.4h1.4V96.1z"/>
		<path class="st33" d="M317,96.1h-1.4v3.4h1.4V96.1z"/>
		<path class="st33" d="M314.2,96.1h-1.4v3.4h1.4V96.1z"/>
		<path class="st33" d="M319.9,96.1h-1.4v3.4h1.4V96.1z"/>
		<path class="st33" d="M213.6,100.2h-1.4v3.3h1.4V100.2z"/>
		<path class="st33" d="M210.8,100.2h-1.4v3.3h1.4V100.2z"/>
		<path class="st33" d="M219.3,100.2h-1.4v3.3h1.4V100.2z"/>
		<path class="st33" d="M216.5,100.2h-1.4v3.3h1.4V100.2z"/>
		<path class="st33" d="M225,100.2h-1.4v3.3h1.4V100.2z"/>
		<path class="st33" d="M222.1,100.2h-1.4v3.3h1.4V100.2z"/>
		<path class="st33" d="M230.7,100.2h-1.4v3.3h1.4V100.2z"/>
		<path class="st33" d="M227.8,100.2h-1.4v3.3h1.4V100.2z"/>
		<path class="st33" d="M236.3,100.2h-1.4v3.3h1.4V100.2z"/>
		<path class="st33" d="M233.5,100.2h-1.4v3.3h1.4V100.2z"/>
		<path class="st33" d="M242,100.2h-1.4v3.3h1.4V100.2z"/>
		<path class="st33" d="M239.2,100.2h-1.4v3.3h1.4V100.2z"/>
		<path class="st33" d="M247.7,100.2h-1.4v3.3h1.4V100.2z"/>
		<path class="st33" d="M244.9,100.2h-1.4v3.3h1.4V100.2z"/>
		<path class="st33" d="M253.4,100.2H252v3.3h1.4V100.2z"/>
		<path class="st33" d="M250.5,100.2h-1.4v3.3h1.4V100.2z"/>
		<path class="st33" d="M259.1,100.2h-1.4v3.3h1.4V100.2z"/>
		<path class="st33" d="M256.2,100.2h-1.4v3.3h1.4V100.2z"/>
		<path class="st33" d="M264.7,100.2h-1.4v3.3h1.4V100.2z"/>
		<path class="st33" d="M261.9,100.2h-1.4v3.3h1.4V100.2z"/>
		<path class="st33" d="M270.4,100.2H269v3.3h1.4V100.2z"/>
		<path class="st33" d="M267.6,100.2h-1.4v3.3h1.4V100.2z"/>
		<path class="st33" d="M276.1,100.2h-1.4v3.3h1.4V100.2z"/>
		<path class="st33" d="M273.3,100.2h-1.4v3.3h1.4V100.2z"/>
		<path class="st33" d="M281.8,100.2h-1.4v3.3h1.4V100.2z"/>
		<path class="st33" d="M279,100.2h-1.4v3.3h1.4V100.2z"/>
		<path class="st33" d="M287.5,100.2h-1.4v3.3h1.4V100.2z"/>
		<path class="st33" d="M284.6,100.2h-1.4v3.3h1.4V100.2z"/>
		<path class="st33" d="M293.2,100.2h-1.4v3.3h1.4V100.2z"/>
		<path class="st33" d="M290.3,100.2h-1.4v3.3h1.4V100.2z"/>
		<path class="st33" d="M298.8,100.2h-1.4v3.3h1.4V100.2z"/>
		<path class="st33" d="M296,100.2h-1.4v3.3h1.4V100.2z"/>
		<path class="st33" d="M304.5,100.2h-1.4v3.3h1.4V100.2z"/>
		<path class="st33" d="M301.7,100.2h-1.4v3.3h1.4V100.2z"/>
		<path class="st33" d="M310.2,100.2h-1.4v3.3h1.4V100.2z"/>
		<path class="st33" d="M307.4,100.2H306v3.3h1.4V100.2z"/>
		<path class="st33" d="M315.9,100.2h-1.4v3.3h1.4V100.2z"/>
		<path class="st33" d="M313,100.2h-1.4v3.3h1.4V100.2z"/>
		<path class="st33" d="M318.7,100.2h-1.4v3.3h1.4V100.2z"/>
		<path class="st33" d="M214.8,104.3h-1.4v3.2h1.4V104.3z"/>
		<path class="st33" d="M211.9,104.3h-1.4v3.2h1.4V104.3z"/>
		<path class="st33" d="M220.4,104.3H219v3.2h1.4V104.3z"/>
		<path class="st33" d="M217.6,104.3h-1.4v3.2h1.4V104.3z"/>
		<path class="st33" d="M226.1,104.3h-1.4v3.2h1.4V104.3z"/>
		<path class="st33" d="M223.3,104.3h-1.4v3.2h1.4V104.3z"/>
		<path class="st33" d="M231.8,104.3h-1.4v3.2h1.4V104.3z"/>
		<path class="st33" d="M229,104.3h-1.4v3.2h1.4V104.3z"/>
		<path class="st33" d="M237.5,104.3h-1.4v3.2h1.4V104.3z"/>
		<path class="st33" d="M234.6,104.3h-1.4v3.2h1.4V104.3z"/>
		<path class="st33" d="M243.2,104.2h-1.4v3.2h1.4V104.2z"/>
		<path class="st33" d="M240.3,104.2h-1.4v3.2h1.4V104.2z"/>
		<path class="st33" d="M248.9,104.2h-1.4v3.2h1.4V104.2z"/>
		<path class="st33" d="M246,104.2h-1.4v3.2h1.4V104.2z"/>
		<path class="st33" d="M254.5,104.2h-1.4v3.2h1.4V104.2z"/>
		<path class="st33" d="M251.7,104.2h-1.4v3.2h1.4V104.2z"/>
		<path class="st33" d="M260.2,104.2h-1.4v3.2h1.4V104.2z"/>
		<path class="st33" d="M257.4,104.2H256v3.2h1.4V104.2z"/>
		<path class="st33" d="M265.9,104.2h-1.4v3.2h1.4V104.2z"/>
		<path class="st33" d="M263.1,104.2h-1.4v3.2h1.4V104.2z"/>
		<path class="st33" d="M271.6,104.2h-1.4v3.2h1.4V104.2z"/>
		<path class="st33" d="M268.7,104.2h-1.4v3.2h1.4V104.2z"/>
		<path class="st33" d="M277.3,104.2h-1.4v3.2h1.4V104.2z"/>
		<path class="st33" d="M274.4,104.2H273v3.2h1.4V104.2z"/>
		<path class="st33" d="M282.9,104.2h-1.4v3.2h1.4V104.2z"/>
		<path class="st33" d="M280.1,104.2h-1.4v3.2h1.4V104.2z"/>
		<path class="st33" d="M288.6,104.2h-1.4v3.2h1.4V104.2z"/>
		<path class="st33" d="M285.8,104.2h-1.4v3.2h1.4V104.2z"/>
		<path class="st33" d="M294.3,104.2h-1.4v3.2h1.4V104.2z"/>
		<path class="st33" d="M291.5,104.2h-1.4v3.2h1.4V104.2z"/>
		<path class="st33" d="M300,104.2h-1.4v3.2h1.4V104.2z"/>
		<path class="st33" d="M297.1,104.2h-1.4v3.2h1.4V104.2z"/>
		<path class="st33" d="M305.7,104.2h-1.4v3.2h1.4V104.2z"/>
		<path class="st33" d="M302.8,104.2h-1.4v3.2h1.4V104.2z"/>
		<path class="st33" d="M311.4,104.2H310v3.2h1.4V104.2z"/>
		<path class="st33" d="M308.5,104.2h-1.4v3.2h1.4V104.2z"/>
		<path class="st33" d="M317,104.2h-1.4v3.2h1.4V104.2z"/>
		<path class="st33" d="M314.2,104.2h-1.4v3.2h1.4V104.2z"/>
		<path class="st33" d="M319.9,104.2h-1.4v3.2h1.4V104.2z"/>
		<path class="st33" d="M213.6,108.3h-1.4v3.2h1.4V108.3z"/>
		<path class="st33" d="M210.8,108.3h-1.4v3.2h1.4V108.3z"/>
		<path class="st33" d="M219.3,108.3h-1.4v3.2h1.4V108.3z"/>
		<path class="st33" d="M216.4,108.3H215v3.2h1.4V108.3z"/>
		<path class="st33" d="M225,108.3h-1.4v3.2h1.4V108.3z"/>
		<path class="st33" d="M222.1,108.3h-1.4v3.2h1.4V108.3z"/>
		<path class="st33" d="M230.6,108.3h-1.4v3.2h1.4V108.3z"/>
		<path class="st33" d="M227.8,108.3h-1.4v3.2h1.4V108.3z"/>
		<path class="st33" d="M236.3,108.3h-1.4v3.2h1.4V108.3z"/>
		<path class="st33" d="M233.5,108.3h-1.4v3.2h1.4V108.3z"/>
		<path class="st33" d="M242,108.3h-1.4v3.2h1.4V108.3z"/>
		<path class="st33" d="M239.2,108.3h-1.4v3.2h1.4V108.3z"/>
		<path class="st33" d="M247.7,108.3h-1.4v3.2h1.4V108.3z"/>
		<path class="st33" d="M244.9,108.3h-1.4v3.2h1.4V108.3z"/>
		<path class="st33" d="M253.4,108.3H252v3.2h1.4V108.3z"/>
		<path class="st33" d="M250.5,108.3h-1.4v3.2h1.4V108.3z"/>
		<path class="st33" d="M259.1,108.3h-1.4v3.2h1.4V108.3z"/>
		<path class="st33" d="M256.2,108.3h-1.4v3.2h1.4V108.3z"/>
		<path class="st33" d="M264.7,108.3h-1.4v3.2h1.4V108.3z"/>
		<path class="st33" d="M261.9,108.3h-1.4v3.2h1.4V108.3z"/>
		<path class="st33" d="M270.4,108.3H269v3.2h1.4V108.3z"/>
		<path class="st33" d="M267.6,108.3h-1.4v3.2h1.4V108.3z"/>
		<path class="st33" d="M276.1,108.3h-1.4v3.2h1.4V108.3z"/>
		<path class="st33" d="M273.3,108.3h-1.4v3.2h1.4V108.3z"/>
		<path class="st33" d="M281.8,108.3h-1.4v3.2h1.4V108.3z"/>
		<path class="st33" d="M278.9,108.3h-1.4v3.2h1.4V108.3z"/>
		<path class="st33" d="M287.5,108.3h-1.4v3.2h1.4V108.3z"/>
		<path class="st33" d="M284.6,108.3h-1.4v3.2h1.4V108.3z"/>
		<path class="st33" d="M293.2,108.3h-1.4v3.2h1.4V108.3z"/>
		<path class="st33" d="M290.3,108.3h-1.4v3.2h1.4V108.3z"/>
		<path class="st33" d="M298.8,108.3h-1.4v3.2h1.4V108.3z"/>
		<path class="st33" d="M296,108.3h-1.4v3.2h1.4V108.3z"/>
		<path class="st33" d="M304.5,108.3h-1.4v3.2h1.4V108.3z"/>
		<path class="st33" d="M301.7,108.3h-1.4v3.2h1.4V108.3z"/>
		<path class="st33" d="M310.2,108.3h-1.4v3.2h1.4V108.3z"/>
		<path class="st33" d="M307.4,108.3H306v3.2h1.4V108.3z"/>
		<path class="st33" d="M315.9,108.3h-1.4v3.2h1.4V108.3z"/>
		<path class="st33" d="M313,108.3h-1.4v3.2h1.4V108.3z"/>
		<path class="st33" d="M318.7,108.3h-1.4v3.2h1.4V108.3z"/>
		<path class="st33" d="M214.8,112.3h-1.4v4.2h1.4V112.3z"/>
		<path class="st33" d="M211.9,112.3h-1.4v4.2h1.4V112.3z"/>
		<path class="st33" d="M220.4,112.3H219v4.2h1.4V112.3z"/>
		<path class="st33" d="M217.6,112.3h-1.4v4.2h1.4V112.3z"/>
		<path class="st33" d="M226.1,112.3h-1.4v4.2h1.4V112.3z"/>
		<path class="st33" d="M223.3,112.3h-1.4v4.2h1.4V112.3z"/>
		<path class="st33" d="M231.8,112.3h-1.4v4.2h1.4V112.3z"/>
		<path class="st33" d="M229,112.3h-1.4v4.2h1.4V112.3z"/>
		<path class="st33" d="M237.5,112.3h-1.4v4.2h1.4V112.3z"/>
		<path class="st33" d="M234.6,112.3h-1.4v4.2h1.4V112.3z"/>
		<path class="st33" d="M243.2,112.3h-1.4v4.2h1.4V112.3z"/>
		<path class="st33" d="M240.3,112.3h-1.4v4.2h1.4V112.3z"/>
		<path class="st33" d="M248.9,112.3h-1.4v4.2h1.4V112.3z"/>
		<path class="st33" d="M246,112.3h-1.4v4.2h1.4V112.3z"/>
		<path class="st33" d="M254.5,112.3h-1.4v4.2h1.4V112.3z"/>
		<path class="st33" d="M251.7,112.3h-1.4v4.2h1.4V112.3z"/>
		<path class="st33" d="M260.2,112.3h-1.4v4.2h1.4V112.3z"/>
		<path class="st33" d="M257.4,112.3H256v4.2h1.4V112.3z"/>
		<path class="st33" d="M265.9,112.3h-1.4v4.2h1.4V112.3z"/>
		<path class="st33" d="M263.1,112.3h-1.4v4.2h1.4V112.3z"/>
		<path class="st33" d="M271.6,112.3h-1.4v4.2h1.4V112.3z"/>
		<path class="st33" d="M268.7,112.3h-1.4v4.2h1.4V112.3z"/>
		<path class="st33" d="M277.3,112.3h-1.4v4.2h1.4V112.3z"/>
		<path class="st33" d="M274.4,112.3H273v4.2h1.4V112.3z"/>
		<path class="st33" d="M282.9,112.3h-1.4v4.2h1.4V112.3z"/>
		<path class="st33" d="M280.1,112.3h-1.4v4.2h1.4V112.3z"/>
		<path class="st33" d="M288.6,112.3h-1.4v4.2h1.4V112.3z"/>
		<path class="st33" d="M285.8,112.3h-1.4v4.2h1.4V112.3z"/>
		<path class="st33" d="M294.3,112.3h-1.4v4.2h1.4V112.3z"/>
		<path class="st33" d="M291.5,112.3h-1.4v4.2h1.4V112.3z"/>
		<path class="st33" d="M300,112.3h-1.4v4.2h1.4V112.3z"/>
		<path class="st33" d="M297.1,112.3h-1.4v4.2h1.4V112.3z"/>
		<path class="st33" d="M305.7,112.3h-1.4v4.2h1.4V112.3z"/>
		<path class="st33" d="M302.8,112.3h-1.4v4.2h1.4V112.3z"/>
		<path class="st33" d="M311.4,112.3H310v4.2h1.4V112.3z"/>
		<path class="st33" d="M308.5,112.3h-1.4v4.2h1.4V112.3z"/>
		<path class="st33" d="M317,112.3h-1.4v4.2h1.4V112.3z"/>
		<path class="st33" d="M314.2,112.3h-1.4v4.2h1.4V112.3z"/>
		<path class="st33" d="M319.9,112.3h-1.4v4.2h1.4V112.3z"/>
		<path class="st35" d="M240.3,95.5L240.3,95.5l14.9,0.1v-0.1H240.3z"/>
		<path class="st36" d="M251.8,116.4v-4.2h-1.4v4.2h-1.5v-4.2h-1.4v4.2H246v-4.2h-1.4v4.2h-1.5v-4.2h-1.2v-0.8h0.1v-3.2h-0.1v-0.8
			h1.2v-3.2h-1.2v-0.7h0.1v-3.3h-0.1v-0.6h1.2v-3.4h-1.2v-0.7h12.5v0.6h-1.1v3.4h1.1v4.7h-1.1v3.2h1.1v4.8h-1.1v4.2L251.8,116.4z"/>
		<path class="st37" d="M240.5,116.5v-4.2h-1.4v4.2h-1.5v-4.2h-1.4v4.2h-1.5v-4.2h-1.4v4.2h-0.9v-5h1.1v-3.2h-1.1v-4.8h1.1v-3.3
			h-1.1v-4.6h7.9v0.1h1.8v0.6H242v3.4h0.1v0.6h-1.3v3.3h1.3v0.7H242v3.2h0.1v0.8h-1.3v3.2h1.3v0.8H242v4.2L240.5,116.5z"/>
		<path class="st38" d="M257.4,116.5v-4.2H256v4.2h-1.5v-4.2h-0.2v-4.8h0.2v-3.2h-0.2v-4.7h0.2v-3.4h-0.2v-0.6h3.8v4.6h-0.4v3.3h0.4
			v4.8h-0.4v3.2h0.4v5H257.4z"/>
		<path class="st35" d="M237.5,96.1h-1.4v3.4h1.4V96.1z"/>
		<path class="st35" d="M234.6,96.1h-1.4v3.4h1.4V96.1z"/>
		<path class="st35" d="M241.9,96.1h-0.1v3.5h1.3v-3.5H241.9z"/>
		<path class="st35" d="M240.3,96.1h-1.4v3.4h1.4V96.1z"/>
		<path class="st35" d="M248.9,96.1h-1.4v3.4h1.4V96.1z"/>
		<path class="st35" d="M246,96.1h-1.4v3.4h1.4V96.1z"/>
		<path class="st35" d="M254.3,96.1h-1.2v3.5h1.4v-3.5H254.3z"/>
		<path class="st35" d="M251.7,96.1h-1.4v3.4h1.4V96.1z"/>
		<path class="st35" d="M257.4,96.1H256v3.4h1.4V96.1z"/>
		<path class="st35" d="M236.3,100.2h-1.4v3.3h1.4V100.2z"/>
		<path class="st35" d="M233.4,100.2h-1.1v3.3h1.1V100.2z"/>
		<path class="st35" d="M241.9,100.2h-1.3v3.3h1.4v-3.3H241.9z"/>
		<path class="st35" d="M239.2,100.2h-1.4v3.3h1.4V100.2z"/>
		<path class="st35" d="M247.7,100.2h-1.4v3.3h1.4V100.2z"/>
		<path class="st35" d="M244.9,100.2h-1.4v3.3h1.4V100.2z"/>
		<path class="st35" d="M253.4,100.2H252v3.3h1.4V100.2z"/>
		<path class="st35" d="M250.5,100.2h-1.4v3.3h1.4V100.2z"/>
		<path class="st35" d="M258.1,100.2h-0.4v3.3h0.4V100.2z"/>
		<path class="st35" d="M256.2,100.2h-1.4v3.3h1.4V100.2z"/>
		<path class="st35" d="M237.5,104.3h-1.4v3.2h1.4V104.3z"/>
		<path class="st35" d="M234.6,104.3h-1.4v3.2h1.4V104.3z"/>
		<path class="st35" d="M241.9,104.2h-0.1v3.3h1.3v-3.3H241.9z"/>
		<path class="st35" d="M240.3,104.2h-1.4v3.2h1.4V104.2z"/>
		<path class="st35" d="M248.9,104.2h-1.4v3.2h1.4V104.2z"/>
		<path class="st35" d="M246,104.2h-1.4v3.2h1.4V104.2z"/>
		<path class="st35" d="M254.3,104.2h-1.2v3.3h1.4v-3.3H254.3z"/>
		<path class="st35" d="M251.7,104.2h-1.4v3.2h1.4V104.2z"/>
		<path class="st35" d="M257.4,104.2H256v3.2h1.4V104.2z"/>
		<path class="st35" d="M236.3,108.3h-1.4v3.2h1.4V108.3z"/>
		<path class="st35" d="M233.4,108.3h-1.1v3.2h1.1V108.3z"/>
		<path class="st35" d="M241.9,108.3h-1.3v3.2h1.4v-3.2H241.9z"/>
		<path class="st35" d="M239.2,108.3h-1.4v3.2h1.4V108.3z"/>
		<path class="st35" d="M247.7,108.3h-1.4v3.2h1.4V108.3z"/>
		<path class="st35" d="M244.9,108.3h-1.4v3.2h1.4V108.3z"/>
		<path class="st35" d="M253.4,108.3H252v3.2h1.4V108.3z"/>
		<path class="st35" d="M250.5,108.3h-1.4v3.2h1.4V108.3z"/>
		<path class="st35" d="M258.1,108.3h-0.4v3.2h0.4V108.3z"/>
		<path class="st35" d="M256.2,108.3h-1.4v3.2h1.4V108.3z"/>
		<path class="st35" d="M236.1,112.3v4.2h1.3v-4.2H236.1z"/>
		<path class="st35" d="M233.2,112.3v4.2h1.4v-4.2H233.2z"/>
		<path class="st35" d="M241.9,112.3h-0.1v4.2h1.3v-4.2H241.9z"/>
		<path class="st35" d="M238.9,112.3v4.2h1.4v-4.2H238.9z"/>
		<path class="st35" d="M247.5,112.3v4.2h1.3v-4.2H247.5z"/>
		<path class="st35" d="M244.6,112.3v4.2h1.4v-4.2H244.6z"/>
		<path class="st35" d="M254.3,112.3h-1.2v4.2h1.4v-4.2H254.3z"/>
		<path class="st35" d="M250.3,112.3v4.2h1.3v-4.2H250.3z"/>
		<path class="st35" d="M256,112.3v4.2h1.3v-4.2H256z"/>
		<path class="st35" d="M298,95.5h-14.6v0.1h13.4L298,95.5"/>
		<path class="st39" d="M283.4,95.5h-3v0.1h0.1L283.4,95.5z"/>
		<path class="st36" d="M302.6,95.5H298v0.1h4.5L302.6,95.5z"/>
		<path class="st36" d="M294.5,116.5v-4.2h-1.4v4.2h-1.5v-4.2h-1.4v4.2h-1.5v-4.2h-1.4v4.2h-1.5v-4.2h-0.9v-4.8h0.9v-3.2h-0.9v-4.7
			h0.9v-3.4h-0.9v-0.6H297v0.6h-1v3.4h1v4.7h-1v3.2h1v4.8h-1v4.2L294.5,116.5z"/>
		<path class="st32" d="M280.4,111.5h0.1l-0.1,5V111.5z M280.4,103.5h0.1l-0.1,4.8V103.5z M280.4,95.6h0.1l-0.1,4.6V95.6z"/>
		<path class="st32" d="M302.4,112.3v-4.8h0.1v4.8H302.4z M302.4,104.2v-4.7h0.1v4.7L302.4,104.2z M302.4,96.1v-0.6h0.1v0.6H302.4z"
			/>
		<path class="st37" d="M283,116.5v-4.2h-1.4v4.2h-1.1v-5h1.3v-3.2h-1.3v-4.8h1.3v-3.3h-1.3v-4.6h4.5v0.6h-0.5v3.4h0.5v4.7h-0.5v3.2
			h0.5v4.8h-0.5v4.2L283,116.5z"/>
		<path class="st38" d="M300.1,116.5v-4.2h-1.4v4.2h-1.5v-4.2h-0.4v-4.8h0.4v-3.2h-0.4v-4.7h0.4v-3.4h-0.4v-0.6h5.8v0.6h-1v3.4h1
			v4.7h-1v3.2h1v4.8h-1v4.2L300.1,116.5z"/>
		<path class="st35" d="M282.9,96.1h-1.4v3.4h1.4V96.1z"/>
		<path class="st35" d="M288.6,96.1h-1.4v3.4h1.4V96.1z"/>
		<path class="st35" d="M284.9,96.1h-0.5v3.5h1.3v-3.5H284.9z"/>
		<path class="st35" d="M294.3,96.1h-1.4v3.4h1.4V96.1z"/>
		<path class="st35" d="M291.5,96.1h-1.4v3.4h1.4V96.1z"/>
		<path class="st35" d="M300,96.1h-1.4v3.4h1.4V96.1z"/>
		<path class="st35" d="M296.7,96.1h-1v3.5h1.4v-3.5H296.7z"/>
		<path class="st35" d="M302.4,96.1h-1v3.5h1.2v-3.5H302.4z"/>
		<path class="st35" d="M280.5,100.2h-0.1v3.3h1.3v-3.3H280.5z"/>
		<path class="st35" d="M287.5,100.2h-1.4v3.3h1.4V100.2z"/>
		<path class="st35" d="M284.6,100.2h-1.4v3.3h1.4V100.2z"/>
		<path class="st35" d="M293.2,100.2h-1.4v3.3h1.4V100.2z"/>
		<path class="st35" d="M290.3,100.2h-1.4v3.3h1.4V100.2z"/>
		<path class="st35" d="M298.8,100.2h-1.4v3.3h1.4V100.2z"/>
		<path class="st35" d="M296,100.2h-1.4v3.3h1.4V100.2z"/>
		<path class="st35" d="M301.7,100.2h-1.4v3.3h1.4V100.2z"/>
		<path class="st35" d="M282.9,104.2h-1.4v3.2h1.4V104.2z"/>
		<path class="st35" d="M288.6,104.2h-1.4v3.2h1.4V104.2z"/>
		<path class="st35" d="M284.9,104.2h-0.5v3.3h1.3v-3.3H284.9z"/>
		<path class="st35" d="M294.3,104.2h-1.4v3.2h1.4V104.2z"/>
		<path class="st35" d="M291.5,104.2h-1.4v3.2h1.4V104.2z"/>
		<path class="st35" d="M300,104.2h-1.4v3.2h1.4V104.2z"/>
		<path class="st35" d="M296.7,104.2h-1v3.3h1.4v-3.3H296.7z"/>
		<path class="st35" d="M302.4,104.2h-1v3.3h1.2v-3.3H302.4z"/>
		<path class="st35" d="M280.5,108.3h-0.1v3.2h1.3v-3.2H280.5z"/>
		<path class="st35" d="M287.5,108.3h-1.4v3.2h1.4V108.3z"/>
		<path class="st35" d="M284.6,108.3h-1.4v3.2h1.4V108.3z"/>
		<path class="st35" d="M293.2,108.3h-1.4v3.2h1.4V108.3z"/>
		<path class="st35" d="M290.3,108.3h-1.4v3.2h1.4V108.3z"/>
		<path class="st35" d="M298.8,108.3h-1.4v3.2h1.4V108.3z"/>
		<path class="st35" d="M296,108.3h-1.4v3.2h1.4V108.3z"/>
		<path class="st35" d="M301.7,108.3h-1.4v3.2h1.4V108.3z"/>
		<path class="st35" d="M282.9,112.3h-1.4v4.2h1.4V112.3z"/>
		<path class="st35" d="M288.6,112.3h-1.4v4.2h1.4V112.3z"/>
		<path class="st35" d="M284.9,112.3h-0.5v4.2h1.3v-4.2H284.9z"/>
		<path class="st35" d="M294.3,112.3h-1.4v4.2h1.4V112.3z"/>
		<path class="st35" d="M291.5,112.3h-1.4v4.2h1.4V112.3z"/>
		<path class="st35" d="M300,112.3h-1.4v4.2h1.4V112.3z"/>
		<path class="st35" d="M296.7,112.3h-1v4.2h1.4v-4.2H296.7z"/>
		<path class="st35" d="M302.4,112.3h-1v4.2h1.2v-4.2H302.4z"/>
		<path class="st34" d="M232.6,95.5h-0.5v21.1h0.5V95.5z"/>
		<path class="st34" d="M236.2,95.5h-0.5v21.1h0.5V95.5z"/>
		<path class="st34" d="M239.8,95.5h-0.5v21.1h0.5V95.5z"/>
		<path class="st34" d="M247.1,95.5h-0.5v21.1h0.5V95.5z"/>
		<path class="st34" d="M243.5,95.5H243v21.1h0.5V95.5z"/>
		<path class="st34" d="M250.7,95.5h-0.5v21.1h0.5V95.5z"/>
		<path class="st34" d="M254.3,95.5h-0.5v21.1h0.5V95.5z"/>
		<path class="st34" d="M257.9,95.5h-0.5v21.1h0.5V95.5z"/>
		<path class="st34" d="M257.8,103.2l-25.6,0.1v0.5l25.6-0.1V103.2z"/>
		<path class="st34" d="M257.8,98.1l-25.6,0.1v0.5l25.6-0.1V98.1z"/>
		<path class="st34" d="M257.8,113.5l-25.6,0.1v0.5l25.6-0.1V113.5z"/>
		<path class="st34" d="M257.8,108.4l-25.6,0.1v0.5l25.6-0.1V108.4z"/>
		<path class="st34" d="M280.8,95.5h-0.4v21.1h0.4V95.5z"/>
		<path class="st34" d="M283.9,95.5h-0.4v21.1h0.4V95.5z"/>
		<path class="st34" d="M287,95.5h-0.4v21.1h0.4V95.5z"/>
		<path class="st34" d="M293.3,95.5h-0.4v21.1h0.4V95.5z"/>
		<path class="st34" d="M290.1,95.5h-0.4v21.1h0.4V95.5z"/>
		<path class="st34" d="M296.4,95.5H296v21.1h0.4V95.5z"/>
		<path class="st34" d="M299.5,95.5h-0.4v21.1h0.4V95.5z"/>
		<path class="st34" d="M302.6,95.5h-0.4v21.1h0.4V95.5z"/>
		<path class="st34" d="M302.5,98.1l-22,0.1v0.5l22-0.1V98.1z"/>
		<path class="st34" d="M302.6,103.2l-22,0.1v0.5l22-0.1V103.2z"/>
		<path class="st34" d="M302.6,113.5l-22,0.1v0.5l22-0.1V113.5z"/>
		<path class="st34" d="M302.6,108.4l-22,0.1v0.5l22-0.1V108.4z"/>
		<path class="st40" d="M198.9,70v-1.8h-1.6l-0.1,1.8H198.9z"/>
		<path class="st14" d="M200,109.6l-1.1-41.4h-1.6l-1.1,41.4H200z"/>
		<path class="st40" d="M199.7,98.1L199,71.2h-1.8l-0.7,26.9H199.7z"/>
		<path class="st40" d="M196.5,99.3l-0.1,2.1h3.3v-2.1H196.5z"/>
		<path class="st40" d="M196.4,102.7l-0.2,6.9h3.8l-0.2-6.9H196.4z"/>
		<path class="st13" d="M172.1,75.1h-3.5v34.4h3.5V75.1z"/>
		<path class="st40" d="M172.1,75.1h-3.5v1.4h3.5V75.1z"/>
		<path class="st40" d="M172.1,79v-1.2h-3.5V79C169.8,78.9,170.9,78.9,172.1,79z"/>
		<path class="st40" d="M168.6,80.2v29.4h3.5V80.2H168.6z"/>
		<path class="st13" d="M167.2,75.1h-3.5v34.4h3.5V75.1z"/>
		<path class="st40" d="M167.2,75.1h-3.5v1.4h3.5V75.1z"/>
		<path class="st40" d="M167.3,79v-1.2h-3.5V79C165,78.9,166.1,78.9,167.3,79z"/>
		<path class="st40" d="M163.7,80.2v29.4h3.5V80.2H163.7z"/>
		<path class="st41" d="M176.2,101.1h-15.3v8.5h15.3V101.1z"/>
		<path class="st40" d="M177.3,100.2h-17.7v0.9h17.7V100.2z"/>
		<path class="st13" d="M175.1,102.4h-4v1.9h4V102.4z"/>
		<path class="st13" d="M166.1,102.4h-4v1.9h4V102.4z"/>
		<path class="st13" d="M170.6,102.4h-4v1.9h4V102.4z"/>
		<path class="st40" d="M191.5,91.9h-2.8v1.3h2.8V91.9z"/>
		<path class="st41" d="M191.6,106.8h-2.8c-3,0-5.5-2.5-5.5-5.5v-2.9c0-3,2.5-5.5,5.5-5.5h2.8c3,0,5.5,2.5,5.5,5.5v2.8
			C197.1,104.3,194.7,106.8,191.6,106.8z"/>
		<path class="st9" d="M197,102c0-0.2,0.1-0.5,0.1-0.8v-0.4h-13.9v0.4c0,0.3,0,0.5,0.1,0.8H197z"/>
		<path class="st40" d="M189,101.9c0,0.1-1.1,7.6-1.1,7.6h2.3L189,101.9z"/>
		<path class="st40" d="M186.5,102c0,0.1-1.1,7.6-1.1,7.6h2.3L186.5,102z"/>
		<path class="st40" d="M189,102c0,0.1-1.1,7.6-1.1,7.6h2.3L189,102z"/>
		<path class="st40" d="M193.7,101.9c0,0.1-1.1,7.6-1.1,7.6h2.3L193.7,101.9z"/>
		<path class="st40" d="M191.3,102c0,0.1-1.1,7.6-1.1,7.6h2.3L191.3,102z"/>
		<path class="st40" d="M193.7,102c0,0.1-1.1,7.6-1.1,7.6h2.3L193.7,102z"/>
		<path class="st7" d="M162.6,109.6c-0.2-1-1.3-5.9-1.9-11.2c-0.9-8-1.1-19-1.1-19h-10.7c0,0-0.2,11-1.1,19
			c-0.6,5.2-1.7,10.2-1.9,11.2H162.6z"/>
		<path class="st13" d="M159.6,80.4v-1h-10.7v1H159.6z"/>
		<path class="st42" d="M56.3,87.4v10.7"/>
		<path class="st10" d="M63.5,92.2l-4.7-4.7h2.9l-4.2-4.2h2.8l-4-4l-4.1,4H55l-4.1,4.2h2.8l-4.6,4.7H63.5z"/>
		<path class="st42" d="M83.8,85.7v10.7"/>
		<path class="st10" d="M91,90.4l-4.6-4.6h2.8l-4.1-4.2h2.8l-4.1-4l-4,4h2.8l-4.2,4.2h2.8l-4.6,4.6H91z"/>
		<path class="st43" d="M13,108v14.9"/>
		<path class="st44" d="M23,114.5l-6.4-6.4h3.9l-5.7-5.8h3.8L13,96.7l-5.6,5.6h3.9l-5.8,5.8h3.9L3,114.5H23z"/>
		<path class="st43" d="M35.9,101.8v14.8"/>
		<path class="st44" d="M46,108.3l-6.5-6.4h4l-5.8-5.8h3.8l-5.6-5.6l-5.6,5.6h3.9l-5.8,5.8h4l-6.5,6.4H46z"/>
		<path class="st43" d="M54.3,86.7v14.8"/>
		<path class="st44" d="M64.3,93.2l-6.4-6.4h3.9L56.1,81h3.8l-5.6-5.6L48.7,81h3.9l-5.8,5.8h3.9l-6.4,6.4L64.3,93.2z"/>
		<path class="st43" d="M132.5,98.6v14.9"/>
		<path class="st44" d="M142.5,105.2l-6.5-6.5h4l-5.8-5.7h3.9l-5.6-5.6l-5.6,5.6h3.8l-5.8,5.7h4l-6.4,6.5H142.5z"/>
		<path class="st43" d="M76.1,117.1V132"/>
		<path class="st44" d="M86.1,123.7l-6.5-6.4h4l-5.8-5.8h3.9l-5.6-5.6l-5.6,5.6h3.8l-5.8,5.8h4l-6.5,6.4H86.1z"/>
		<path class="st45" d="M120.5,79.8V93"/>
		<path class="st18" d="M128.3,85.6l-5-5.7h3.1l-5.9-6.6l-5.9,6.6h3.1l-5,5.7H128.3z"/>
		<path class="st46" d="M149.7,102.9v7"/>
		<path class="st44" d="M153.9,106l-2.7-3h1.6l-3.1-3.5l-3.1,3.5h1.6l-2.6,3H153.9z"/>
		<path class="st47" d="M340.2,104.3v8.9"/>
		<path class="st48" d="M340.2,109c2.6,0.2,4.8-1.8,5-4.4c0.2-2.6-1.8-4.8-4.4-5c-2.6-0.2-4.8,1.8-5,4.4c0,0.1,0,0.2,0,0.3
			C335.7,106.8,337.7,108.9,340.2,109C340.2,109,340.2,109,340.2,109z"/>
		<path class="st47" d="M364,104.3v8.9"/>
		<path class="st48" d="M364,109c2.6,0.2,4.8-1.8,5-4.4c0.2-2.6-1.8-4.8-4.4-5c-2.6-0.2-4.8,1.8-5,4.4c0,0.1,0,0.2,0,0.3
			C359.5,106.8,361.5,108.9,364,109C364,109,364,109,364,109z"/>
		<path class="st47" d="M351.2,101.7v12.5"/>
		<path class="st49" d="M350.7,107.3c3.6,0.2,6.8-2.5,7-6.2c0.2-3.6-2.5-6.8-6.2-7c-3.6-0.2-6.8,2.5-7,6.2c0,0.1,0,0.3,0,0.4
			C344.4,104.2,347.2,107.2,350.7,107.3z"/>
		<path class="st47" d="M179.9,100.2v12.5"/>
		<path class="st49" d="M179.4,105.8c3.6,0.2,6.8-2.5,7-6.2c0.2-3.6-2.5-6.8-6.2-7c-3.6-0.2-6.8,2.5-7,6.2c0,0.1,0,0.3,0,0.4
			C173.1,102.7,175.9,105.7,179.4,105.8z"/>
		<path class="st47" d="M203.2,102.8v8.9"/>
		<path class="st48" d="M203.2,107.5c2.6,0.2,4.8-1.8,5-4.4c0.2-2.6-1.8-4.8-4.4-5c-2.6-0.2-4.8,1.8-5,4.4c0,0.1,0,0.2,0,0.3
			C198.7,105.3,200.7,107.4,203.2,107.5C203.2,107.5,203.2,107.5,203.2,107.5z"/>
	</g>
</g>
</svg>
