<svg width="70" height="39" viewBox="0 0 70 39" fill="none" xmlns="http://www.w3.org/2000/svg">
<path d="M46.4783 30.3878C43.9393 28.6278 37.2393 23.2068 37.2393 23.2068L37.5393 0.0507812C37.5393 0.0507812 43.5393 6.87678 44.1483 7.07978C44.7573 7.28278 45.1663 11.8228 45.1663 11.8228L49.6393 14.8718L52.4863 21.3778L57.5693 23.6148L62.6513 30.1198C62.6513 30.1198 60.4923 30.2408 57.7973 30.3878H46.4783Z" fill="#B9BBBA"/>
<path d="M15 29.543L18.1 25.819L17.9 21.347L24.609 11.385L27.049 4.473L31.725 0L37.54 0.051L40.712 8.614L47.165 11.1L48.754 18.448C48.754 18.448 57.831 28.048 59.392 30.455L46.479 30.388L15 29.543Z" fill="#737677"/>
<path d="M28.0638 11.791L21.8168 19.645C22.2338 19.48 23.7018 20.805 23.8458 20.945L19.6458 25.873L21.9678 26.832L21.0678 29.539H13.2568L16.8818 25.612V20.33L25.0148 9.758L26.4378 3.458L31.7238 0L28.8768 5.895L28.0638 11.791Z" fill="#B9BBBA"/>
<path d="M32.6659 6.53223L36.4559 19.5872L39.3649 20.7872L45.7819 25.0092L46.4819 30.3862L24.2979 29.8872L25.4789 24.8212L25.9129 21.4322L28.1979 18.5842L29.4839 13.8842L32.6659 6.53223Z" fill="#B9BBBA"/>
<path d="M69.951 33.8622L62.651 30.1192L56.391 25.5442L47.885 22.5402L46.1 27.4882L42.364 25.8562L39.807 27.1862L31.724 20.2622L25.986 26.7852L25.913 21.4282L13.258 29.5442L0 33.9482L33.711 38.0772L69.951 33.8622Z" fill="white"/>
</svg>
