<svg width="54" height="54" viewBox="0 0 54 54" fill="none" xmlns="http://www.w3.org/2000/svg">
<path d="M8.57422 28.1592L12.1942 30.0592L19.4942 33.8972" stroke="#826A4D" stroke-miterlimit="10" stroke-linecap="round"/>
<path d="M11.8101 26.0259L12.1941 30.0629" stroke="#826A4D" stroke-miterlimit="10" stroke-linecap="round"/>
<path d="M8.6499 32.034L12.1939 30.063" stroke="#826A4D" stroke-miterlimit="10" stroke-linecap="round"/>
<path d="M41.2611 39.0624C41.2611 41.6617 40.4903 44.2025 39.0462 46.3637C37.6022 48.5249 35.5497 50.2093 33.1483 51.204C30.7469 52.1987 28.1045 52.459 25.5552 51.9519C23.0059 51.4448 20.6642 50.1931 18.8263 48.3552C16.9883 46.5173 15.7367 44.1756 15.2296 41.6263C14.7225 39.077 14.9827 36.4346 15.9774 34.0332C16.9721 31.6318 18.6566 29.5793 20.8178 28.1352C22.9789 26.6912 25.5198 25.9204 28.1191 25.9204C29.8449 25.9204 31.5538 26.2603 33.1483 26.9208C34.7427 27.5812 36.1915 28.5493 37.4119 29.7696C38.6322 30.99 39.6002 32.4387 40.2607 34.0332C40.9211 35.6276 41.2611 37.3366 41.2611 39.0624Z" fill="white"/>
<path d="M44.256 24.9111L41.664 28.0751L36.439 34.4551" stroke="#826A4D" stroke-miterlimit="10" stroke-linecap="round"/>
<path d="M45.6961 28.5092L41.6641 28.0752" stroke="#826A4D" stroke-miterlimit="10" stroke-linecap="round"/>
<path d="M40.4438 24.208L41.6638 28.075" stroke="#826A4D" stroke-miterlimit="10" stroke-linecap="round"/>
<path d="M35.9409 19.4953C35.9411 21.0427 35.4825 22.5553 34.6229 23.8419C33.7634 25.1286 32.5416 26.1314 31.1121 26.7237C29.6826 27.3159 28.1096 27.4709 26.592 27.1691C25.0744 26.8673 23.6804 26.1222 22.5862 25.028C21.4921 23.9339 20.747 22.5399 20.4452 21.0223C20.1434 19.5047 20.2984 17.9317 20.8906 16.5021C21.4828 15.0726 22.4857 13.8509 23.7723 12.9913C25.059 12.1318 26.5716 11.6731 28.1189 11.6733C30.1934 11.6733 32.183 12.4974 33.6499 13.9644C35.1168 15.4313 35.9409 17.4208 35.9409 19.4953Z" fill="white"/>
<path d="M26.3162 18.132C26.3164 18.2612 26.2782 18.3875 26.2065 18.495C26.1347 18.6025 26.0327 18.6862 25.9132 18.7355C25.7938 18.7849 25.6624 18.7976 25.5358 18.7722C25.4091 18.7467 25.2928 18.6842 25.2018 18.5926C25.1107 18.5009 25.0489 18.3843 25.0242 18.2575C24.9995 18.1306 25.0131 17.9993 25.0632 17.8802C25.1133 17.7611 25.1976 17.6596 25.3055 17.5885C25.4134 17.5174 25.54 17.48 25.6692 17.481C25.8412 17.482 26.0057 17.5511 26.1269 17.6731C26.2482 17.795 26.3162 17.96 26.3162 18.132Z" fill="black"/>
<path d="M14.0342 27.3181L24.0832 20.1621" stroke="#F39200" stroke-width="2" stroke-miterlimit="10" stroke-linecap="round"/>
<path d="M24.0911 18.132C24.0913 18.2611 24.0531 18.3874 23.9814 18.4949C23.9097 18.6023 23.8077 18.686 23.6884 18.7354C23.569 18.7848 23.4377 18.7976 23.311 18.7723C23.1844 18.7469 23.0681 18.6845 22.977 18.5929C22.8859 18.5014 22.824 18.3848 22.7992 18.2581C22.7744 18.1313 22.7879 18 22.8378 17.8809C22.8877 17.7618 22.9719 17.6602 23.0797 17.589C23.1875 17.5178 23.3139 17.4802 23.4431 17.481C23.6152 17.482 23.7798 17.551 23.9012 17.673C24.0226 17.7949 24.0908 17.9599 24.0911 18.132Z" fill="black"/>
<path d="M23.7791 32.0333C23.7793 32.1625 23.7411 32.2888 23.6694 32.3963C23.5977 32.5037 23.4957 32.5874 23.3764 32.6368C23.257 32.6862 23.1257 32.699 22.999 32.6736C22.8724 32.6483 22.7561 32.5858 22.665 32.4943C22.5739 32.4027 22.512 32.2862 22.4872 32.1594C22.4624 32.0327 22.4759 31.9014 22.5258 31.7823C22.5757 31.6631 22.6599 31.5615 22.7677 31.4903C22.8754 31.4191 23.0019 31.3815 23.1311 31.3823C23.3032 31.3834 23.4678 31.4524 23.5892 31.5744C23.7106 31.6963 23.7788 31.8613 23.7791 32.0333Z" fill="black"/>
<path d="M22.6038 35.1071C22.604 35.2363 22.5658 35.3626 22.4941 35.4701C22.4223 35.5776 22.3203 35.6613 22.2008 35.7106C22.0814 35.76 21.95 35.7727 21.8234 35.7473C21.6967 35.7218 21.5804 35.6593 21.4894 35.5677C21.3983 35.476 21.3365 35.3594 21.3118 35.2325C21.2871 35.1057 21.3007 34.9744 21.3508 34.8553C21.4009 34.7362 21.4852 34.6347 21.5931 34.5636C21.701 34.4925 21.8276 34.4551 21.9568 34.4561C22.1288 34.4571 22.2933 34.5262 22.4145 34.6482C22.5358 34.7701 22.6038 34.9351 22.6038 35.1071Z" fill="black"/>
<path d="M23.2571 38.7833C23.2573 38.9125 23.2191 39.0388 23.1474 39.1463C23.0757 39.2537 22.9737 39.3374 22.8544 39.3868C22.735 39.4362 22.6037 39.449 22.4771 39.4236C22.3504 39.3983 22.2342 39.3358 22.143 39.2443C22.0519 39.1527 21.99 39.0362 21.9652 38.9094C21.9405 38.7827 21.9539 38.6514 22.0038 38.5323C22.0537 38.4131 22.1379 38.3115 22.2457 38.2403C22.3535 38.1691 22.48 38.1315 22.6091 38.1323C22.7812 38.1334 22.9458 38.2024 23.0672 38.3244C23.1886 38.4463 23.2569 38.6113 23.2571 38.7833Z" fill="black"/>
<path d="M18.915 13.9053H37.323V11.6963H18.915V13.9053Z" fill="black"/>
<path d="M22.874 12.367H33.364V0H22.874V12.367Z" fill="black"/>
<path d="M7.31698 48.2654C7.31678 47.542 7.10207 46.8348 6.70001 46.2334C6.29794 45.632 5.72657 45.1633 5.05814 44.8866C4.38971 44.6098 3.65424 44.5376 2.94472 44.6788C2.23521 44.8201 1.58351 45.1685 1.07203 45.6802C0.560548 46.1918 0.212256 46.8436 0.0711925 47.5531C-0.0698712 48.2627 0.00262779 48.9981 0.279523 49.6665C0.556417 50.3348 1.02527 50.9061 1.62681 51.308C2.22834 51.7099 2.93554 51.9244 3.65898 51.9244C4.13944 51.9244 4.61519 51.8297 5.05906 51.6459C5.50294 51.462 5.90624 51.1924 6.24593 50.8526C6.58562 50.5129 6.85504 50.1095 7.03882 49.6656C7.22259 49.2216 7.31711 48.7459 7.31698 48.2654Z" fill="white"/>
<path d="M12.3092 45.7161C12.3092 44.9927 12.0947 44.2855 11.6928 43.6839C11.2908 43.0824 10.7196 42.6135 10.0513 42.3367C9.3829 42.0598 8.64745 41.9873 7.93789 42.1283C7.22834 42.2694 6.57654 42.6177 6.06492 43.1292C5.5533 43.6406 5.20483 44.2923 5.06358 45.0019C4.92232 45.7114 4.99462 46.4468 5.27133 47.1153C5.54804 47.7837 6.01674 48.3551 6.61816 48.7571C7.21959 49.1592 7.92672 49.3739 8.65017 49.3741C9.62042 49.3741 10.5509 48.9887 11.2371 48.3028C11.9233 47.6168 12.3089 46.6864 12.3092 45.7161Z" fill="white"/>
<path d="M17.7608 46.7132C17.7606 45.9897 17.5459 45.2826 17.1439 44.6812C16.7418 44.0797 16.1704 43.611 15.502 43.3343C14.8336 43.0576 14.0981 42.9853 13.3886 43.1266C12.6791 43.2678 12.0274 43.6163 11.5159 44.1279C11.0044 44.6395 10.6561 45.2913 10.515 46.0009C10.374 46.7104 10.4465 47.4459 10.7234 48.1142C11.0003 48.7826 11.4691 49.3538 12.0707 49.7557C12.6722 50.1576 13.3794 50.3722 14.1028 50.3722C14.5833 50.3722 15.059 50.2775 15.5029 50.0936C15.9468 49.9097 16.3501 49.6402 16.6898 49.3004C17.0295 48.9606 17.2989 48.5572 17.4827 48.1133C17.6664 47.6694 17.761 47.1936 17.7608 46.7132Z" fill="white"/>
<path d="M21.42 48.2654C21.4198 47.542 21.2051 46.8349 20.8031 46.2335C20.4011 45.6321 19.8298 45.1634 19.1614 44.8867C18.493 44.6099 17.7576 44.5376 17.0481 44.6787C16.3386 44.8199 15.6869 45.1683 15.1754 45.6798C14.6639 46.1913 14.3155 46.843 14.1743 47.5525C14.0332 48.262 14.1055 48.9974 14.3823 49.6658C14.659 50.3342 15.1277 50.9055 15.7291 51.3075C16.3305 51.7095 17.0376 51.9242 17.761 51.9244C18.2415 51.9245 18.7174 51.83 19.1614 51.6461C19.6054 51.4623 20.0088 51.1928 20.3486 50.853C20.6884 50.5132 20.9579 50.1098 21.1417 49.6658C21.3256 49.2218 21.4201 48.7459 21.42 48.2654Z" fill="white"/>
<path d="M43.5391 47.2122C43.5391 46.4887 43.3246 45.7815 42.9227 45.1799C42.5207 44.5784 41.9494 44.1095 41.281 43.8326C40.6126 43.5558 39.8771 43.4833 39.1675 43.6245C38.4579 43.7656 37.8061 44.114 37.2945 44.6256C36.783 45.1372 36.4346 45.789 36.2934 46.4986C36.1523 47.2081 36.2247 47.9436 36.5016 48.6121C36.7785 49.2805 37.2473 49.8518 37.8489 50.2537C38.4504 50.6557 39.1577 50.8702 39.8811 50.8702C40.3615 50.8702 40.8372 50.7756 41.281 50.5918C41.7248 50.4079 42.1281 50.1385 42.4677 49.7988C42.8074 49.4591 43.0769 49.0559 43.2607 48.6121C43.4445 48.1682 43.5391 47.6926 43.5391 47.2122Z" fill="white"/>
<path d="M48.5782 46.7132C48.578 45.9897 48.3633 45.2826 47.9612 44.6812C47.5592 44.0797 46.9878 43.611 46.3194 43.3343C45.6509 43.0576 44.9155 42.9853 44.206 43.1266C43.4964 43.2678 42.8447 43.6163 42.3333 44.1279C41.8218 44.6395 41.4735 45.2913 41.3324 46.0009C41.1914 46.7104 41.2639 47.4459 41.5408 48.1142C41.8176 48.7826 42.2865 49.3538 42.888 49.7557C43.4896 50.1576 44.1968 50.3722 44.9202 50.3722C45.4007 50.3722 45.8764 50.2775 46.3203 50.0936C46.7642 49.9097 47.1675 49.6402 47.5072 49.3004C47.8468 48.9606 48.1163 48.5572 48.3 48.1133C48.4838 47.6694 48.5783 47.1936 48.5782 46.7132Z" fill="white"/>
<path d="M53.0138 49.3743C53.0136 48.6509 52.7989 47.9438 52.3969 47.3424C51.9948 46.741 51.4235 46.2723 50.7551 45.9955C50.0868 45.7188 49.3514 45.6464 48.6419 45.7876C47.9324 45.9288 47.2807 46.2772 46.7692 46.7887C46.2576 47.3002 45.9093 47.9519 45.7681 48.6614C45.6269 49.3709 45.6993 50.1063 45.976 50.7747C46.2528 51.4431 46.7215 52.0144 47.3229 52.4164C47.9243 52.8184 48.6314 53.0331 49.3548 53.0333C49.8353 53.0333 50.3111 52.9386 50.755 52.7548C51.1989 52.5709 51.6023 52.3014 51.9421 51.9616C52.2818 51.6218 52.5513 51.2185 52.7352 50.7745C52.9191 50.3306 53.0138 49.8548 53.0138 49.3743Z" fill="white"/>
</svg>
