<?xml version="1.0" encoding="utf-8"?>
<!-- Generator: Adobe Illustrator 26.0.1, SVG Export Plug-In . SVG Version: 6.00 Build 0)  -->
<svg version="1.1" id="Layer_1" xmlns="http://www.w3.org/2000/svg" xmlns:xlink="http://www.w3.org/1999/xlink" x="0px" y="0px" viewBox="0 0 130.4 240" style="enable-background:new 0 0 130.4 240;" xml:space="preserve">
	<style type="text/css">
	.owl_st0{fill:#4A3C2C;}
	.owl_st1{fill:#62503A;}
	.owl_st2{fill:#836E54;}
	.owl_st3{fill:#AE9370;}
	.owl_st4{fill:#826A4D;}
	.owl_st5{fill:#BBBAAA;}
	.owl_st6{fill:#3C3C3B;}
	.owl_st7{fill:#FAF8E2;}
	.owl_st8{fill:#FFEE00;}
	.owl_st9{fill:#E30613;}
	.owl_st10{fill:#FFFFFF;}
</style>
	<g id="Layer_2_00000008107787279410949570000017498783825309482128_">
		<g id="Layer_1-2">
			<path class="owl_st0" d="M40.2,213.2l4.9,25.5h0.7l4.9-25.5H40.2z" />
			<path class="owl_st0" d="M40.6,240c0-2.7,4.8-4.8,4.8-4.8s4.8,2.2,4.8,4.8" />
			<path class="owl_st1" d="M78.6,238.8h-0.7L73,213.2h10.4L78.6,238.8z" />
			<path class="owl_st1" d="M73.5,240c0-2.7,4.8-4.8,4.8-4.8s4.8,2.2,4.8,4.8" />
			<path class="owl_st0" d="M61.8,153.9v78.5c-25.6,0-46.4-7.8-46.4-29.5c0-6.2,1.1-12.3,3.3-18.1c2.3-6.4,5.8-12.2,10.4-17.2
			c7.5-8,18.3-13.5,32.5-13.6H61.8z" />
			<path class="owl_st1" d="M108.2,202.8c0.2,5.8-1.7,11.4-5.2,15.9c-7.7,9.7-23.3,13.6-41.2,13.6v-78.5c13.9,0,24.5,5.2,32.1,12.9
			c4.9,5.1,8.6,11.2,11,17.9C107,190.5,108.1,196.7,108.2,202.8" />
			<path d="M105.1,188.2c0,17.4-19.4,22.9-43.2,22.9s-43.3-5.6-43.3-22.9c0-1.1,0-2.3,0.2-3.4c2.3-6.4,5.8-12.2,10.4-17.2
			c7.5-8,18.3-13.5,32.5-13.6h0.2c13.9,0,24.5,5.2,32.1,12.9c4.9,5.1,8.6,11.2,11,17.9C105,185.9,105.1,187,105.1,188.2" />
			<path class="owl_st2" d="M15.5,203.1c-0.2,5.8,1.7,11.5,5.2,16.1C29.6,210.6,35,199.3,35,187c0-7.1-1.8-14-5.2-20.2
			C20.1,176.7,15.5,190.8,15.5,203.1z" />
			<path class="owl_st3" d="M108.2,203.1c0.2,5.8-1.7,11.5-5.2,16.1c-8.9-8.6-14.3-19.8-14.3-32.1c0-7.1,1.8-14,5.2-20.2
			C103.5,176.7,108.2,190.8,108.2,203.1z" />
			<path class="owl_st1" d="M61.8,206.2c-23.9,0-43.3-5.5-43.3-22.9s12.9-40,43.3-40" />
			<path class="owl_st4" d="M61.8,143.3c30.4,0,43.3,22.6,43.3,40s-19.4,22.9-43.3,22.9" />
			<path class="owl_st5" d="M58.1,176.4c0,5.9-4.7,10.6-10.6,10.6s-10.6-4.7-10.6-10.6c0-5.9,4.7-10.6,10.6-10.6c2.8,0,5.5,1.1,7.5,3.1
			C57,170.8,58.1,173.5,58.1,176.4" />
			<path class="owl_st6" d="M51.8,176.4c0,1.7-1,3.3-2.6,3.9c-0.8,0.3-1.6,0.4-2.5,0.2c-0.8-0.2-1.6-0.6-2.2-1.2c-0.6-0.6-1-1.4-1.2-2.2
			c-0.5-2.3,1-4.5,3.3-5c2.3-0.5,4.5,1,5,3.3C51.8,175.8,51.8,176.1,51.8,176.4z" />
			<path class="owl_st7" d="M86.7,176.4c0,5.9-4.7,10.6-10.6,10.6c-5.1,0-9.4-3.6-10.4-8.6c-1.1-5.7,2.6-11.3,8.3-12.5
			c3.5-0.7,7,0.4,9.5,2.9C85.6,170.9,86.7,173.5,86.7,176.4" />
			<path class="owl_st6" d="M80.4,176.4c0,1.7-1,3.3-2.6,3.9c-0.8,0.3-1.6,0.4-2.5,0.2c-0.8-0.2-1.6-0.6-2.2-1.2c-0.6-0.6-1-1.4-1.2-2.2
			c-0.5-2.3,1-4.5,3.3-5c2.3-0.5,4.5,1,5,3.3C80.3,175.8,80.4,176.1,80.4,176.4z" />
			<path class="owl_st8" d="M61.8,180.6l-4,7.5l4,7.2V180.6z" />
			<path class="owl_st8" d="M61.8,180.6l4,7.5l-4,7.2V180.6z" />
			<path class="owl_st1" d="M40.1,152.6c-9.8,3.5-15.6,0.8-15.4-10.5C30.7,142.1,35.7,146.2,40.1,152.6z" />
			<path class="owl_st4" d="M83.6,152.6c9.8,3.5,15.6,0.8,15.4-10.5C92.9,142.1,87.9,146.2,83.6,152.6z" />
			<path class="owl_st9" d="M70.1,145.1c17.6-26.1,47.3-5.8,39.7,20.9c-4.6-14.2-9.8-16-15.2-8L70.1,145.1z" />
			<path class="owl_st10" d="M94.3,161.1c-9.6-2.3-18.5-7-25.9-13.6c-1.4-1.3-1.9-2.4-1.2-3.8c0.7-1.4,2.4-1.9,3.8-1.2
			c7.3,6.7,16.3,11.4,25.9,13.6c1.4,0.7,1.9,2.4,1.2,3.8c0,0,0,0,0,0C97.5,161.3,96,161.4,94.3,161.1" />
			<path class="owl_st10" d="M112.9,170.1c-2.2,1.7-5.5,1.3-7.2-0.9c-0.2-0.3-0.4-0.6-0.6-0.9c-0.5-0.9-0.6-1.9-0.5-2.9
			c0.1-1,0.6-2,1.2-2.7c1.4-1.6,3.6-2.2,5.6-1.5c2.3,0.8,3.8,3.1,3.5,5.5C114.7,168,114,169.3,112.9,170.1z" />
		</g>
	</g>
</svg>