<?xml version="1.0" encoding="utf-8"?>
<!-- Generator: Adobe Illustrator 26.0.1, SVG Export Plug-In . SVG Version: 6.00 Build 0)  -->
<svg version="1.1" id="Layer_1" xmlns="http://www.w3.org/2000/svg" xmlns:xlink="http://www.w3.org/1999/xlink" x="0px" y="0px"
	 viewBox="0 0 375 493.7" style="enable-background:new 0 0 375 493.7;" xml:space="preserve">
<style type="text/css">
	.st0{opacity:0.1;fill:#00A7F0;enable-background:new    ;}
	.st1{opacity:0.3;fill:#00A7F0;enable-background:new    ;}
</style>
<g id="Layer_2_00000026144028684916545210000014093614562040390807_">
	<g id="Layer_1-2">
		<polygon class="st0" points="375,20.1 375,493.7 0,493.7 0,34.4 22.7,15.7 71.7,41.5 133.6,0 205.6,41.5 246,28.7 284,41.5 
			348.3,0.7 		"/>
		<path class="st1" d="M0,493.7v-406l15,2.5v-1l0,0v-2h2.4L18,87v-3.8H5l8.9-13.2H8.4l10.3-15.4l10.3,15.4h-5.4l6.3,9.3v-1h1.2
			c3.4-0.7,6.8-1.1,10.2-1.1h1c3.4,0,6.7,0.4,10,1.1h0.1h1.7v4.3c2.1-0.7,4.4-1.1,6.6-1.3h0.5c1.6,0,3.2,0.3,4.8,0.7
			c1.5-0.4,3.1-0.6,4.7-0.7h0.5c2.3,0.1,4.5,0.5,6.6,1.3h2.3v1v1.1v4.5H20v0.5h1.2v1.5l3.5,0.6l0.5,0.1v-2.2h3v2.7l0.5,0.1v-2.7h3
			V93l0.5,0.1v-3.4h3v3.8l0.5,0.1v-3.9h3V94h-0.4l4.3,0.7v-0.2h3v0.7l0.5,0.1v-0.8h3v1.3l0.5,0.1v-1.3h3v1.8l0.5,0.1v-1.9h3V97
			l0.5,0.1v-2.5h3v3l0.5,0.1v-3.1h3v3.6l0.5,0.1v-3.6h3v4.1l0.5,0.1v-4.2h3v4.3h-2.7l6.3,1v-0.5h3v1l0.5,0.1v-1h3v1.6l0.5,0.1v-1.7
			h3v2.2l0.5,0.1v-2.2h3v2.7l0.5,0.1v-2.8h3v3.3l0.5,0.1v-3.4h3v3.9l5.8,1h1.1v0.2l0.5,0.1v-0.3h3v0.7l0.5,0.1v-0.8h3v1.3l0.5,0.1
			v-1.4h3v1.9l4,0.7v-2.6h3v3l0.5,0.1v-3.1h3v3.6l0.5,0.1v-3.7h2.9v4.2l0.5,0.1v-4.3h3v4.3h-2.8l3.3,0.5h3v0.5l0.5,0.1v-0.6h3v1.1
			l0.5,0.1v-1.2h3v1.7l3.9,0.7v-2.3h3v2.8l0.5,0.1v-2.9h3v3.4l0.5,0.1v-3.5h1.6l0.5-0.5h-2.1v-4.3h3v3.5l4.7-4.7h-4l5.8-5.8h-3.9
			l5.6-5.6l5.6,5.6h-3.9l5.8,5.8h-4l6.4,6.4h-9.3v5l12.8,2.1c2.6-2.8,4.9-5.8,6.9-9v-1.3l-2.9-3.2v-7l2.4-4l1.1,1.8l6.3-12.6
			l6.2,12.4l1-1.6l2.4,4v7.1l-2.4,2.6h15.2v-2h1.7l0.9-2.6c-0.7-1.7-1.3-3.6-1.8-5.4H208v-4.1h1.7l1-2.7l0,0l0,0l0,0
			c0-1.7,0.1-3.4,0.4-5.1h-0.8v-4.2h1.7l1-2.7l0.1-0.1l0,0c1.1-2.7,2.6-5.2,4.4-7.5l0,0c4.7-5.9,11.2-10,18.5-11.7
			c5.1-1.2,10.3-1.2,15.4,0c7.3,1.7,13.8,5.8,18.4,11.7l0,0c1.6,2.1,3,4.3,4.1,6.8c0.1,0,0.1,0.1,0.1,0.2l1,2.7h1.6V83H276
			c0.4,1.9,0.5,3.8,0.5,5.8l0,0l0,0l0,0l1,2.7h1.6v4.1h-3.5c-0.4,1.7-0.9,3.4-1.6,5l1,2.7h1.8v4.1h-6.1V107c-0.7,1-1.5,2-2.3,3
			c3.2,4.5,6.9,8.7,11,12.4c3.9,3.6,8.3,6.8,12.9,9.5v-7.9h-4.8l7.9-6.6h0.7l1.7-2.8l1.7,2.8h3.1l1.7-2.8l1.7,2.8h3.8l1.7-2.8
			l1.7,2.8h3.8l1.7-2.8l1.7,2.8h3.8l1.7-2.8l1.7,2.8h4.2v-7.5h-1.5v-1.1h1.5v-2.6h-1.5V91.6h1.5v-5.1l0,0l4.5-6.1l0,0v-4.7l2.4-4
			l2.4,4v4.8l4.4,6v5.1h1.8v14.6h-1.7v2.6h1.7v1.1h-1.7V145l19,3.1v-5.7H355l6.5-6.4h-4l5.8-5.8h-3.9l5.6-5.6l5.6,5.6h-3.9l5.8,5.8
			h-4l6.5,6.4h-9.3v5.9l9.3,1.6v343.7H0z M343,144.7v-33.5h-1.4v33.2L343,144.7z M339.3,144.1v-32.9h-1.4v32.6L339.3,144.1z
			 M335.4,143.4v-32.2H334v31.9L335.4,143.4z M328.1,142.2v-16.7h-1.4V142L328.1,142.2z M324.8,141.7v-16h-1.4v15.7L324.8,141.7z
			 M321,141v-15.4h-1.4v15.2L321,141z M317.7,140.4v-14.9h-1.4v14.6L317.7,140.4z M313.8,139.8v-14.2h-1.4v14L313.8,139.8z
			 M310.5,139.3v-13.7h-1.4V139L310.5,139.3z M306.7,138.6v-13h-1.4v12.8L306.7,138.6z M303.4,138.1v-12.5H302v12.3L303.4,138.1z
			 M300.2,137.5v-12h-1.4v11.7L300.2,137.5z M296.9,137v-11.4h-1.4v11.2L296.9,137z M292.5,136.3v-4c-4.7-2.8-9.1-6-13.1-9.6
			c-4.1-3.7-7.8-7.9-11-12.4c-0.4,0.4-0.8,0.8-1.2,1.2l1,2.7h1.6v2.6c2.8,4.2,6.2,8.1,9.9,11.6c2.9,2.7,6,5.1,9.3,7.3L292.5,136.3z
			 M288.2,135.5c-3.1-2-5.9-4.3-8.6-6.8c-3.7-3.4-6.9-7.2-9.8-11.3v0.9h-3v2.1h0.6v0.8h-0.6v7.1h0.6v0.8h-0.6v2.9L288.2,135.5z
			 M252.7,129.7l-2.1-9.3c-2.1,0.4-4.2,0.7-6.4,0.7l0.9,2.5h1.6v4.1h-6.1v-4.1h1.7l0.9-2.5c-1.9,0-3.9-0.2-5.8-0.6l-1.3,6.4
			L252.7,129.7z M253.3,129.2L253.3,129.2L253.3,129.2L253.3,129.2z M253.3,128.3v-7.1h-0.5v-0.8h0.5v-0.8c-0.7,0.2-1.4,0.4-2.1,0.6
			l1.9,8.1H253.3z M261.1,125.6v2.7h1.9v-2.7c0-0.2-0.1-0.5-0.3-0.6c-0.4-0.3-0.9-0.3-1.3,0C261.2,125.1,261.1,125.4,261.1,125.6
			L261.1,125.6z M257.4,125.6v2.7h1.9v-2.7c0-0.2-0.1-0.4-0.2-0.5h-1.6C257.4,125.2,257.4,125.4,257.4,125.6z M235.5,126.8l1.4-6.5
			c-1.6-0.3-3.1-0.8-4.7-1.3l0.7,2h1.6v4.1h-6.1V121h1.7l0.9-2.4c-2.6-1.1-5.1-2.5-7.4-4.2v3.9h-6.1v-4.1h1.7l1-2.7
			c-0.4-0.4-0.9-0.9-1.3-1.3h-24.1v2.4h0.6v0.8h-0.6v6.7L235.5,126.8z M243.7,121l-0.9,2.5h2l-0.9-2.5H243.7z M230.5,121h2l-0.8-2.2
			l-0.2-0.1h-0.1L230.5,121z M261.1,117.8v2.7h1.9v-2.7c0-0.2-0.1-0.5-0.3-0.7c-0.4-0.3-1-0.3-1.3,0
			C261.2,117.4,261.1,117.6,261.1,117.8L261.1,117.8z M259.2,120.5v-2.7c0-0.2-0.1-0.4-0.2-0.5c-0.6,0.3-1.1,0.6-1.7,0.8v1.6
			l0.3,0.8L259.2,120.5z M243.8,120.3c2.2,0,4.4-0.2,6.5-0.7l-2.2-9.5h-4.4L243.8,120.3z M237.6,119.8c1.9,0.4,3.9,0.5,5.8,0.6
			v-10.2h-3.9L237.6,119.8z M231.8,118.1c1.7,0.6,3.4,1.2,5.1,1.5l2-9.5h-3.8L231.8,118.1z M191.2,119.5v-1.6c0-0.2-0.1-0.5-0.3-0.7
			c-0.2-0.2-0.4-0.3-0.7-0.3c-0.2,0-0.5,0.1-0.7,0.3c-0.2,0.2-0.3,0.4-0.3,0.7v1.3L191.2,119.5z M251.1,119.5
			c0.8-0.2,1.5-0.4,2.2-0.6v-5.5h-0.5v-0.8h0.5v-1.1l-0.6-1.3h-3.8L251.1,119.5z M187.4,118.9v-1c0-0.5-0.4-0.9-0.9-0.9c0,0,0,0,0,0
			c-0.2,0-0.5,0.1-0.7,0.3c-0.2,0.2-0.3,0.4-0.3,0.7v0.7L187.4,118.9z M221,111.3c3,2.9,6.6,5.2,10.4,6.7l3.2-7.8h-6.6v0.8h-4.7
			v-0.8h-1.2L221,111.3z M181.5,117.9v-4.5h-0.1c-0.8,1.4-1.7,2.7-2.6,4L181.5,117.9z M178.4,117.4c0.9-1.3,1.8-2.7,2.6-4v-0.8h0.4
			l0.1-0.1c0,0,0,0,0-0.1v-4c-2,3-4.1,5.8-6.5,8.4L178.4,117.4z M257.6,117.3l0.7-0.3c-0.1,0-0.3,0-0.4,0.1
			C257.7,117.1,257.6,117.2,257.6,117.3L257.6,117.3z M160.3,114.4v-4.8h-7.5v3.6L160.3,114.4z M267.6,114.2l-0.5-0.9h-0.4v0.9
			H267.6z M221.4,112.6l0.6,1.7h1.4C222.6,113.7,222,113.1,221.4,112.6L221.4,112.6z M219.6,114.2h2l-0.8-2.2l0,0l-0.2-0.2
			L219.6,114.2z M261.1,109.9v2.7h1.9v-2.7c0-0.2-0.1-0.5-0.3-0.7c-0.4-0.3-1-0.3-1.3,0C261.2,109.4,261.1,109.7,261.1,109.9
			L261.1,109.9z M257.3,109.9v2.7h1.9v-2.7c0-0.2-0.1-0.5-0.3-0.7c-0.4-0.4-1-0.4-1.3,0C257.4,109.4,257.3,109.7,257.3,109.9
			L257.3,109.9z M189.3,109.9v2.7h1.9v-2.7c0-0.2-0.1-0.5-0.3-0.7c-0.4-0.4-1-0.4-1.3,0C189.4,109.4,189.3,109.7,189.3,109.9
			L189.3,109.9z M185.6,109.9v2.7h1.9v-2.7c0-0.2-0.1-0.5-0.3-0.7c-0.4-0.3-1-0.3-1.3,0C185.7,109.4,185.6,109.7,185.6,109.9
			L185.6,109.9z M266.8,111.9c0.1,0.2,0.2,0.4,0.4,0.6l-0.3-0.8C266.8,111.8,266.8,111.8,266.8,111.9L266.8,111.9z M220.8,111
			l0.9-0.8h-1.7C220.2,110.4,220.5,110.7,220.8,111L220.8,111z M266.7,110.9c0.4-0.4,0.8-0.8,1.2-1.2c-0.5-0.7-0.9-1.3-1.2-1.8
			V110.9z M253.3,110.6v-0.4h-0.2L253.3,110.6z M269.7,103.2l-3,3.2v0.8c0.3,0.5,0.8,1.3,1.4,2.1c1-1.2,1.9-2.4,2.8-3.7v-2.2h1.3
			c0.5-0.9,0.9-1.8,1.3-2.7l-3.8-1.5L269.7,103.2z M253.3,106.6L253.3,106.6h-1.8l0,0H253.3z M251.2,106.6L251.2,106.6h-3.1l0,0
			H251.2z M247.4,106.6L247.4,106.6h-3.5l0,0H247.4z M243.5,106.6L243.5,106.6h-3.1l0,0H243.5z M239.6,106.6L239.6,106.6h-3.1l0,0
			H239.6z M228.1,106.6h8.1l0,0H228.1L228.1,106.6z M223.3,106.6L223.3,106.6H217l0,0H223.3z M194.9,106.6h15.7l0,0H194.9
			L194.9,106.6z M252.8,105.8l-2.3-2.6v-7.1l0.1-0.2l-3.6-3.4c-0.4,0.3-0.8,0.6-1.3,0.8l5.5,12.5L252.8,105.8z M250.8,105.8
			l-5.4-12.4l-0.2,0.1h-0.1l2.8,12.3L250.8,105.8z M247.2,105.8l-2.8-12.1c-0.2,0-0.4,0.1-0.6,0.1v12L247.2,105.8z M243.5,105.8v-12
			c-0.1,0-0.2,0-0.4,0H243l-2.5,12.1L243.5,105.8z M239.8,105.8l2.5-12.2l-0.4-0.1l-5.1,12.3L239.8,105.8z M228.1,105.4v0.4h8.4
			l5.1-12.5c-0.5-0.2-1-0.5-1.4-0.9l-12.6,12.3L228.1,105.4z M223.3,105.8v-0.4l2.4-4l1.8,3L240,92.2c-0.3-0.4-0.6-0.8-0.9-1.2
			l-25,10.4l0.1,0.3c0.3,0.7,0.6,1.4,1,2.1h1.4v2L223.3,105.8z M212.7,103.8h1.8c-0.4-0.7-0.7-1.4-1-2.1L212.7,103.8z M273,103.5
			h1.9l-0.8-2.2C273.8,102,273.4,102.7,273,103.5z M266.4,98.8v2.7h1.9v-2.7l-1.6-0.7C266.5,98.3,266.4,98.5,266.4,98.8L266.4,98.8z
			 M251.9,98.8v2.7h1.9V99l-1.2-1.2c-0.2,0.1-0.4,0.2-0.5,0.3C251.9,98.3,251.9,98.5,251.9,98.8L251.9,98.8z M194.6,98.8v2.7h1.9
			v-2.7c0-0.2-0.1-0.5-0.3-0.7c-0.4-0.3-1.1-0.3-1.4,0.2C194.7,98.4,194.6,98.5,194.6,98.8L194.6,98.8z M213.9,100.9
			c0,0,0.1,0.1,0.1,0.1l25-10.4c-0.2-0.5-0.3-1-0.3-1.6h-27.2l1,2.6h1.6v4.1h-1.8C212.6,97.6,213.2,99.2,213.9,100.9L213.9,100.9z
			 M261.1,97.9v2.7h1.9v-2.7c0-0.2-0.1-0.5-0.3-0.7c-0.4-0.3-0.9-0.3-1.3,0C261.2,97.4,261.1,97.6,261.1,97.9L261.1,97.9z
			 M257.3,97.9v2.7h1.9v-2.7c0-0.2-0.1-0.5-0.3-0.7c-0.2-0.2-0.4-0.3-0.7-0.3c-0.2,0-0.5,0.1-0.7,0.3
			C257.4,97.4,257.3,97.6,257.3,97.9L257.3,97.9z M189.3,97.9v2.7h1.9v-2.7c0-0.2-0.1-0.5-0.3-0.7c-0.2-0.2-0.4-0.3-0.7-0.3
			c-0.2,0-0.5,0.1-0.7,0.3C189.4,97.4,189.3,97.6,189.3,97.9L189.3,97.9z M185.6,97.9v2.7h1.9v-2.7c0-0.5-0.5-0.9-1-0.9
			c-0.2,0-0.4,0.1-0.6,0.3C185.7,97.4,185.6,97.6,185.6,97.9L185.6,97.9z M273.6,100.5c0.6-1.5,1.1-3.1,1.5-4.6h-1.8v-4.2h1.7l1-2.6
			H264l2.3,4.6l1-1.6l2.4,4v2.8L273.6,100.5z M180.6,96.3V99h1.9v-2.7c-0.1-0.5-0.5-0.9-1-0.8C181,95.5,180.6,95.8,180.6,96.3
			L180.6,96.3z M253.8,98.5c0-0.1-0.1-0.3-0.2-0.4c-0.1-0.1-0.2-0.2-0.4-0.2L253.8,98.5z M268.2,98.3c-0.2-0.4-0.7-0.6-1.1-0.4
			L268.2,98.3z M247.3,92.2l3.5,3.4l1.8-3l-4.3-1.7C248,91.3,247.7,91.8,247.3,92.2z M253.9,93.9l0.3-0.7l-0.9-0.4L253.9,93.9z
			 M254.4,92.9l1.9-3.8h-7.7c0,0.5-0.1,1-0.3,1.5l4.4,1.7l0.1-0.2l0.2,0.3L254.4,92.9z M211.5,90.5c0,0.4,0,0.8,0.1,1.2h0.4
			l-0.6-1.5C211.5,90.3,211.5,90.4,211.5,90.5z M210.7,89.9l-0.6,1.8h0.8C210.8,91.1,210.7,90.5,210.7,89.9z M276.5,91.7h0.8
			l-0.7-1.8C276.6,90.5,276.5,91.1,276.5,91.7L276.5,91.7z M275.3,91.7h0.4c0-0.3,0-0.7,0.1-1c0-0.1,0-0.3,0-0.4L275.3,91.7z
			 M18,90.7v-1.5h-0.9v0.5h0.6v0.9L18,90.7z M275.9,88.7c0-1.9-0.2-3.8-0.6-5.6h-4.7V79h1.7l0.8-2.1L260.6,82l3.3,6.7L275.9,88.7z
			 M248.3,87.1c0.2,0.5,0.3,1,0.3,1.6h7.8l3.1-6.2L248.3,87.1z M211.4,88.7h27.3c0-0.5,0.1-1,0.3-1.5l-25-9.8l0.8,2.2h1.6v4.1h-4.6
			C211.6,85.4,211.5,87.1,211.4,88.7L211.4,88.7z M77.9,88.4h1.2v-3h-1.3L77.9,88.4z M75.7,88.4H77v-3h-1.3L75.7,88.4z M73.5,88.4
			h1.2v-3h-1.3L73.5,88.4z M71.3,88.4h1.2v-3h-1.3L71.3,88.4z M69.1,88.4h1.2v-3h-1.3L69.1,88.4z M67,88.4h1.2v-3h-1.3L67,88.4z
			 M64.8,88.4h1.2v-3h-1.3L64.8,88.4z M62.7,88.4h1.2v-3h-1.3L62.7,88.4z M60.4,88.4h1.2v-3h-1.3L60.4,88.4z M58.3,88.4h1.2v-3h-1.3
			L58.3,88.4z M56.1,88.4h1.2v-3H56L56.1,88.4z M53.9,88.4h1.2v-3h-1.3L53.9,88.4z M47.2,88.4h1.2v-3h-1.3L47.2,88.4z M45,88.4h1.2
			v-3H45L45,88.4z M42.8,88.4H44v-3h-1.3L42.8,88.4z M40.6,88.4h1.2v-3h-1.3L40.6,88.4z M38.4,88.4h1.2v-3h-1.3L38.4,88.4z
			 M36.2,88.4h1.2v-3h-1.3L36.2,88.4z M29.9,87.2L29.9,87.2v-4H20v3.3c1.1-0.2,2.3-0.4,3.4-0.4h0.5C25.9,86.1,28,86.5,29.9,87.2z
			 M213.8,77l25.3,9.9c0.2-0.5,0.5-0.9,0.9-1.3l-16.4-16v3.8h-6.1v-2.9C216.1,72.5,214.8,74.7,213.8,77z M247.3,85.6
			c0.3,0.4,0.6,0.8,0.9,1.2l11.7-4.9l0.4-0.7l0.2,0.5l12.8-5.3c-0.9-2.1-2.1-4.1-3.5-5.9v2.9h-6.1v-3.8L247.3,85.6z M245.7,84.5
			c0.5,0.2,1,0.5,1.4,0.9l19.3-18.8c-2.8-2.8-6.2-5-9.8-6.5l0.7,2h1.6v4.1h-5.6L245.7,84.5z M221,66.5l19.3,18.8
			c0.4-0.3,0.8-0.6,1.3-0.8l-7.9-18.1h-5.8v-4.1h1.7l0.7-1.9C226.8,61.8,223.7,63.9,221,66.5z M52.7,84.7h27.5v-1H52.7V84.7z
			 M231.4,59.8l0.9,2.4h1.6v3.8l8,18.2c0.5-0.2,1.1-0.3,1.6-0.3V64.1h-2.8V60h1.7l0.9-2.5C239.2,57.5,235.2,58.3,231.4,59.8z
			 M243.8,84c0.5,0,1,0.1,1.5,0.3l7.5-18.2l0,0V62h1.7l0.9-2.4c-3.6-1.4-7.4-2.1-11.2-2.2l1,2.5h1.6v4.1h-2.9L243.8,84z M47.1,84
			h1.2v-3H47L47.1,84z M44.9,84h1.2v-3h-1.3L44.9,84z M42.7,84h1.2v-3h-1.3L42.7,84z M40.6,84h1.2v-3h-1.3L40.6,84z M38.3,84h1.2v-3
			h-1.3L38.3,84z M36.2,84h1.2v-3h-1.3L36.2,84z M35.4,80.2h13.8v-1H35.4L35.4,80.2z M213.6,77.5c-0.3,0.7-0.5,1.4-0.8,2h1.6
			L213.6,77.5L213.6,77.5z M272.7,79h1.5c-0.3-0.8-0.5-1.5-0.8-2.1L272.7,79z M267.6,67.9l0.5,1.4h0.7
			C268.4,68.8,268.1,68.4,267.6,67.9L267.6,67.9z M265.7,69.3h2l-0.8-2.1l-0.2-0.2l-0.1-0.2L265.7,69.3z M264,69.3h1.3l0.8-2
			L264,69.3z M221.2,67.3l0.8,2h1.3L221.2,67.3z M220.5,67.1l-0.1,0.1l-0.8,2.1h2l-0.9-2.4L220.5,67.1L220.5,67.1z M218.5,69.3h0.7
			l0.5-1.4C219.4,68.4,218.9,68.8,218.5,69.3L218.5,69.3z M230.8,60.1L230.8,60.1l-0.9,2.1h1.9L230.8,60.1L230.8,60.1z M254.9,62
			h1.9l-0.8-2.2h-0.1h-0.1L254.9,62z M243.8,60h0.9l-0.9-2.4V60z M242.8,60h0.7v-2L242.8,60z M149.3,108.6h-3v-4.3h3V108.6z
			 M145.9,108.6h-3v-4.3h3V108.6z M138.9,108.6h-3v-4.3h3V108.6z M135.5,108.6h-3v-4.3h3V108.6z M132,108.6h-3v-4.3h3V108.6z
			 M152.8,103.8h-3v-4.3h3V103.8L152.8,103.8z M149.3,103.8h-3v-4.3h3V103.8L149.3,103.8z M145.9,103.8h-3v-4.3h3V103.8L145.9,103.8
			z M138.9,103.8h-3v-4.3h3V103.8L138.9,103.8z M135.5,103.8h-3v-4.3h3V103.8L135.5,103.8z M132,103.8h-3v-4.3h3V103.8L132,103.8z
			 M128.6,103.8h-3v-4.3h3V103.8L128.6,103.8z M125.1,103.8h-3v-4.3h3V103.8L125.1,103.8z M121.6,103.8h-3v-4.3h3V103.8L121.6,103.8
			z M118.2,103.8h-3v-4.3h3V103.8L118.2,103.8z M111.3,103.8h-3v-4.3h3V103.8L111.3,103.8z M107.8,103.8h-3v-4.3h3V103.8
			L107.8,103.8z M104.3,103.8h-3v-4.3h3V103.8L104.3,103.8z M100.9,103.8h-3v-4.3h3V103.8L100.9,103.8z M152.8,98.9h-3v-4.3h3V98.9
			L152.8,98.9z M149.3,98.9h-3v-4.3h3V98.9L149.3,98.9z M145.9,98.9h-3v-4.3h3V98.9L145.9,98.9z M138.9,98.9h-3v-4.3h3V98.9
			L138.9,98.9z M135.5,98.9h-3v-4.3h3V98.9L135.5,98.9z M132,98.9h-3v-4.3h3V98.9L132,98.9z M128.6,98.9h-3v-4.3h3V98.9L128.6,98.9z
			 M125.1,98.9h-3v-4.3h3V98.9L125.1,98.9z M121.6,98.9h-3v-4.3h3V98.9L121.6,98.9z M118.2,98.9h-3v-4.3h3V98.9L118.2,98.9z
			 M111.3,98.9h-3v-4.3h3V98.9L111.3,98.9z M107.8,98.9h-3v-4.3h3V98.9L107.8,98.9z M104.3,98.9h-3v-4.3h3V98.9L104.3,98.9z
			 M80.1,98.9h-3v-4.3h3V98.9L80.1,98.9z M76.6,98.9h-3v-4.3h3V98.9L76.6,98.9z M100.9,98.9h-3v-4.3h3V98.9L100.9,98.9z M93.9,98.9
			H91v-4.3h3L93.9,98.9L93.9,98.9z M90.5,98.9h-3v-4.3h3V98.9L90.5,98.9z M87,98.9h-3v-4.3h3V98.9L87,98.9z M83.6,98.9h-3v-4.3h3
			V98.9L83.6,98.9z M152.8,94h-3v-4.3h3V94z M149.3,94h-3v-4.3h3V94z M145.9,94h-3v-4.3h3V94z M139,94h-3v-4.3h3V94z M135.5,94h-3
			v-4.3h3V94z M132,94h-3v-4.3h3V94z M128.5,94h-3v-4.3h3V94z M125.1,94h-3v-4.3h3V94z M121.6,94h-3v-4.3h3V94z M118.1,94h-3v-4.3h3
			V94z M111.2,94h-3v-4.3h3V94z M107.8,94h-3v-4.3h3V94z M104.3,94h-3v-2.5c0.8,0.2,1.7,0.4,2.5,0.7h0.5L104.3,94L104.3,94z
			 M100.8,94h-3v-2.9l0,0c1,0,2,0.1,2.9,0.3L100.8,94L100.8,94z M97.4,94h-3v-2.5c1-0.2,2-0.3,3-0.4V94z M94,94h-3v-2.7
			c0.8,0.1,1.5,0.3,2.2,0.5l0.4-0.1l0.3-0.1L94,94L94,94z M90.5,94h-3v-2.8h0.2l0.6-0.1h0.4c0.6,0,1.1,0,1.7,0.1L90.5,94L90.5,94z
			 M87,94h-3v-2.3c1-0.2,2-0.4,3-0.5V94z M83.5,94h-3v-1.8h1.7c0.5-0.1,0.9-0.2,1.2-0.3L83.5,94L83.5,94z M80.1,94h-3v-4.3h3V94z
			 M76.6,94h-3v-4.3h3V94z M69.7,94h-3v-4.3h3V94z M66.3,94h-3v-4.3h3V94z M62.8,94h-3v-4.3h3V94z M59.3,94h-3v-4.3h3V94z M55.9,94
			h-3v-4.3h3V94z M52.4,94h-3v-4.3h3V94z M49,94h-3v-4.3h3V94z M45.5,94h-3v-4.3h3V94z M115,89.2h-10.4v-5.4h-0.1v-3.6H132v-1h-27.4
			v-1h2c3.8-0.8,7.7-1.3,11.6-1.4h0.8c3.8,0.1,7.6,0.5,11.3,1.4h1.8v2.1l0,0v7h0.5c2.5-0.5,5.1-0.8,7.6-0.9h1.1
			c2.8,0.1,5.7,0.4,8.4,1h3.2v1l0,0v1h-38V89.2z M130,88.4h1.2v-3H130V88.4z M127.9,88.4h1.2v-3h-1.3L127.9,88.4z M125.6,88.4h1.2
			v-3h-1.2L125.6,88.4z M123.5,88.4h1.2v-3h-1.2L123.5,88.4z M121.2,88.4h1.2v-3h-1.3L121.2,88.4z M119.1,88.4h1.2v-3h-1.2V88.4z
			 M116.7,88.4h1.2v-3h-1.3L116.7,88.4z M114.5,88.4h1.2v-3h-1.2V88.4z M112.3,88.4h1.2v-3h-1.2V88.4z M110.1,88.4h1.2v-3h-1.2V88.4
			z M107.9,88.4h1.2v-3h-1.2V88.4z M105.7,88.4h1.3v-3h-1.3L105.7,88.4z M129.9,84h1.2v-3h-1.2V84z M127.8,84h1.2v-3h-1.2L127.8,84z
			 M125.5,84h1.2v-3h-1.2V84z M123.4,84h1.2v-3h-1.2V84z M121.2,84h1.2v-3h-1.2V84z M119,84h1.2l-0.1-3H119V84z M116.6,84h1.2v-3
			h-1.2V84z M114.4,84h1.2v-3h-1.2L114.4,84z M112.2,84h1.2v-3h-1.2L112.2,84z M110,84h1.2v-3H110L110,84z M107.8,84h1.2v-3h-1.2
			L107.8,84z M105.6,84h1.2v-3h-1.2V84z"/>
	</g>
</g>
</svg>
