<svg width="71" height="51" viewBox="0 0 71 51" fill="none" xmlns="http://www.w3.org/2000/svg">
<path d="M8.73096 9.12991C8.73096 9.12991 17.06 7.30591 21.711 10.8129C26.362 14.3199 29.351 17.2499 30.931 21.8649C32.431 26.2309 30.26 30.6009 25.201 30.8909L12.901 31.5909C9.94896 31.7639 8.01596 29.3859 9.53096 23.0919C10.958 17.1619 8.73096 9.12991 8.73096 9.12991Z" fill="#564632"/>
<path d="M10.4128 8.98719C9.64039 8.10625 8.82262 7.26611 7.96284 6.47019C6.77984 5.40519 5.86984 4.15019 5.58484 4.96919C5.29984 5.78819 6.68484 6.39019 5.79184 7.38419C4.89884 8.37819 4.47184 7.68419 4.26184 8.37219C4.05184 9.06019 4.35484 8.82619 3.93884 9.57219C3.52284 10.3182 8.27384 10.6682 9.05884 10.7052C9.84384 10.7422 9.78184 10.1302 9.85884 9.88519C9.93584 9.64019 10.3968 9.43919 10.4168 8.98519" fill="#564632"/>
<path d="M45.5401 8.60378C45.5401 8.60378 47.2211 5.82079 45.0491 5.01179C44.8156 4.96784 44.5748 4.98206 44.348 5.0532C44.1212 5.12434 43.9154 5.25021 43.7488 5.41969C43.5822 5.58918 43.4599 5.79707 43.3926 6.02503C43.3253 6.25299 43.3152 6.49399 43.3631 6.72679C43.3631 6.72679 42.9041 5.86978 42.5571 6.54078C42.5426 7.0617 42.6892 7.57441 42.9771 8.00879L43.1891 8.56378C43.1891 8.56378 45.2051 8.65378 45.5401 8.60778" fill="#7B7B7A"/>
<path d="M45.2792 10.494C45.2132 9.91001 42.4342 8.99501 42.2262 9.70001C41.9032 10.8 41.8792 15.731 41.5522 18.816C41.4462 19.823 43.5322 19.108 44.2522 19.15C44.2724 19.1525 44.2929 19.1505 44.3122 19.144C45.0052 18.886 45.6122 13.491 45.2792 10.498" fill="#E30613"/>
<path d="M45.8892 11.683C46.2803 10.8593 46.3889 9.92967 46.1982 9.03802C45.8062 8.09902 42.5222 7.67802 42.1382 8.35502C41.7542 9.03202 41.5042 11.283 41.8612 11.431C43.0833 11.8566 44.3862 11.9985 45.6712 11.846C45.7615 11.8205 45.8391 11.7624 45.8892 11.683Z" fill="#DADADB"/>
<path d="M45.4132 39.2568L43.2132 39.8638L39.7642 27.3638L41.9642 26.7568L45.4132 39.2568Z" fill="#E30613"/>
<path d="M42.4198 40.0842C42.3473 39.8345 42.325 39.5729 42.3544 39.3146C42.3837 39.0563 42.4641 38.8063 42.5909 38.5793C42.7176 38.3523 42.8882 38.1527 43.0927 37.9921C43.2972 37.8316 43.5316 37.7133 43.7822 37.6441C44.0329 37.5749 44.2948 37.5561 44.5527 37.589C44.8106 37.6218 45.0594 37.7055 45.2847 37.8353C45.51 37.9651 45.7073 38.1384 45.8651 38.3451C46.0229 38.5517 46.138 38.7877 46.2038 39.0392L42.4198 40.0842Z" fill="#7B7B7A"/>
<path d="M45.5978 39.2058L43.0258 39.9168L41.9258 35.9268L44.4968 35.2168L45.5978 39.2058Z" fill="#7B7B7A"/>
<path d="M41.1368 40.437L38.9368 41.043L35.4878 28.544L37.6878 27.937L41.1368 40.437Z" fill="#AA050E"/>
<path d="M38.1449 41.263C38.0065 40.7611 38.0731 40.2247 38.3301 39.7719C38.5871 39.3191 39.0135 38.987 39.5154 38.8485C40.0173 38.7101 40.5537 38.7767 41.0065 39.0337C41.4593 39.2907 41.7915 39.7171 41.9299 40.219L38.1449 41.263Z" fill="#5C5C5C"/>
<path d="M41.3229 40.386L38.7509 41.097L37.6509 37.107L40.2219 36.397L41.3229 40.386Z" fill="#5C5C5C"/>
<path d="M35.0952 14.355L39.8732 31.671C39.8464 31.6815 39.819 31.6905 39.7912 31.698C33.5582 33.498 30.3912 31.266 30.3912 31.266C30.3387 30.9861 30.2638 30.7109 30.1672 30.443L30.1592 30.436C29.8307 29.6534 29.6048 28.8316 29.4872 27.991L29.4982 27.997L29.4872 27.988C28.6402 21.216 29.9902 15.763 35.0952 14.355Z" fill="#AA050E"/>
<path d="M38.9808 28.4382L39.6568 30.8912C39.6297 30.9017 39.602 30.9107 39.5738 30.9182C33.5328 32.6612 30.3568 30.5732 30.1658 30.4432L30.1578 30.4362C29.8289 29.6538 29.603 28.8319 29.4858 27.9912C29.4891 27.992 29.4926 27.992 29.4958 27.9912C32.4645 29.3003 35.8122 29.4663 38.8958 28.4572C38.9247 28.4534 38.9531 28.447 38.9808 28.4382Z" fill="#1A1A18"/>
<path d="M47.5799 25.6349C47.6327 25.9157 47.7096 26.1913 47.8099 26.4589C47.8099 26.4589 46.7509 29.6589 39.8849 31.6679L35.1069 14.3519C40.2069 12.9519 44.1579 16.9409 46.9069 23.1789C46.9069 23.1789 46.8949 23.2119 46.8699 23.2729C46.8859 23.2529 46.8949 23.2329 46.9079 23.2139C47.2699 23.9738 47.4982 24.7904 47.5829 25.6279C47.5838 25.6301 47.5838 25.6326 47.5829 25.6349" fill="#E30613"/>
<path d="M47.5812 25.6279C47.582 25.6301 47.582 25.6326 47.5812 25.6349C47.5222 25.7999 46.3512 28.9349 39.6702 30.8839L38.9932 28.4349C44.1222 26.9299 46.2352 24.3059 46.8682 23.2729C46.8842 23.2529 46.8932 23.2319 46.9062 23.2139C47.2682 23.9738 47.4966 24.7904 47.5812 25.6279Z" fill="#1A1A18"/>
<path d="M41.222 9.84899C42.087 12.982 39.785 16.349 36.078 17.375C36.032 17.388 35.984 17.401 35.939 17.411C32.28 18.355 28.658 16.646 27.804 13.551C26.95 10.456 29.183 7.12899 32.808 6.06599C32.852 6.05099 32.9 6.03699 32.947 6.02899C36.653 5.00199 40.357 6.71499 41.222 9.84899Z" fill="#E9D8BB"/>
<path d="M32.808 6.06592L35.938 17.4109C32.279 18.3549 28.657 16.6459 27.803 13.5509C26.949 10.4559 29.183 7.13192 32.803 6.06592" fill="#DDC295"/>
<path d="M31.1592 13.2518C31.1262 13.2578 31.0932 13.2658 31.0612 13.2738C30.7843 13.3507 30.5477 13.5314 30.4007 13.7783C30.2537 14.0252 30.2076 14.3193 30.2721 14.5994C30.3365 14.8794 30.5065 15.1238 30.7466 15.2817C30.9868 15.4396 31.2785 15.4987 31.5612 15.4468C31.5939 15.4408 31.6272 15.4338 31.6612 15.4258C31.9427 15.3528 32.1846 15.1728 32.3354 14.9242C32.4862 14.6755 32.534 14.3778 32.4686 14.0944C32.4031 13.811 32.2297 13.5644 31.9851 13.407C31.7405 13.2496 31.4442 13.1939 31.1592 13.2518Z" fill="#A57168"/>
<path d="M38.1089 11.3338C38.0759 11.3398 38.0429 11.3478 38.0109 11.3558C37.734 11.4327 37.4974 11.6134 37.3504 11.8603C37.2034 12.1073 37.1573 12.4014 37.2218 12.6814C37.2862 12.9615 37.4562 13.2059 37.6963 13.3637C37.9365 13.5216 38.2282 13.5807 38.5109 13.5288C38.5446 13.5236 38.578 13.5166 38.6109 13.5078C38.8924 13.4349 39.1343 13.2549 39.2851 13.0062C39.4359 12.7575 39.4837 12.4598 39.4183 12.1764C39.3528 11.8931 39.1794 11.6464 38.9348 11.4891C38.6902 11.3317 38.3939 11.276 38.1089 11.3338Z" fill="#DC968A"/>
<path d="M30.7422 10.184C30.8172 10.116 30.8892 10.026 30.8312 9.96004C30.7562 9.87404 30.5702 9.95204 30.4772 10.027C30.3894 10.0952 30.3284 10.1923 30.3052 10.301C30.2982 10.351 30.2942 10.47 30.4052 10.442C30.5221 10.3955 30.6253 10.3201 30.7052 10.223L30.7422 10.184Z" fill="#C5C5C6"/>
<path d="M36.6111 8.56793C36.5111 8.54493 36.4031 8.50493 36.4191 8.41893C36.4391 8.30493 36.6381 8.27593 36.7561 8.29493C36.8666 8.30868 36.9689 8.36069 37.0451 8.44193C37.0781 8.48093 37.1451 8.58093 37.0341 8.61293C36.9096 8.63262 36.7821 8.62129 36.6631 8.57993L36.6111 8.56793Z" fill="#C5C5C6"/>
<path d="M37.4521 9.70488V9.69788V9.68488C37.4341 9.64688 37.3701 9.62188 37.2601 9.60988C37.0776 9.59723 36.8943 9.59991 36.7121 9.61788H36.6671C36.4845 9.62867 36.3031 9.65544 36.1251 9.69788C36.0181 9.73388 35.9611 9.76888 35.9521 9.80888V9.82888L35.9601 9.92888V9.93788V9.94788C35.9741 9.98788 36.0381 10.0139 36.1521 10.0259C36.3337 10.0389 36.516 10.0362 36.6971 10.0179H36.7411C36.9246 10.0052 37.1067 9.97642 37.2851 9.93188C37.3941 9.90088 37.4521 9.86588 37.4521 9.82488V9.81788V9.80788V9.70588V9.70488Z" fill="#1A1A18"/>
<path d="M32.9729 13.946C32.8737 13.7106 32.8304 13.4555 32.8466 13.2006C32.8627 12.9457 32.9377 12.6981 33.0657 12.4771C33.1937 12.2561 33.3713 12.0679 33.5844 11.9271C33.7975 11.7864 34.0404 11.697 34.2939 11.666L34.4069 11.634C34.6409 11.5302 34.8957 11.482 35.1515 11.4933C35.4072 11.5046 35.6569 11.575 35.8808 11.6991C36.1047 11.8231 36.2969 11.9974 36.4421 12.2082C36.5873 12.419 36.6817 12.6606 36.7179 12.914L36.7419 13.002C36.8411 13.238 36.8841 13.4939 36.8676 13.7494C36.8511 14.0049 36.7755 14.2531 36.6467 14.4744C36.518 14.6957 36.3396 14.8841 36.1257 15.0248C35.9118 15.1654 35.6681 15.2545 35.4139 15.285L35.3019 15.316C35.0683 15.4185 34.8142 15.4656 34.5595 15.4535C34.3047 15.4414 34.0562 15.3705 33.8334 15.2464C33.6106 15.1222 33.4196 14.9481 33.2753 14.7378C33.1311 14.5274 33.0375 14.2865 33.0019 14.034L32.9729 13.946Z" fill="#F3A5A6"/>
<path d="M32.043 10.8752V10.8692L32.032 10.8582C32.005 10.8292 31.939 10.8292 31.832 10.8582C31.6593 10.917 31.492 10.9906 31.332 11.0782L31.29 11.1012C31.1255 11.1815 30.9683 11.2759 30.82 11.3832C30.733 11.4522 30.694 11.5072 30.701 11.5472V11.5592L30.709 11.5652L30.755 11.6562L30.758 11.6652L30.765 11.6712C30.791 11.7018 30.8577 11.7018 30.965 11.6712C31.1378 11.6126 31.3051 11.539 31.465 11.4512L31.505 11.4312C31.6711 11.3507 31.8297 11.2557 31.979 11.1472C32.067 11.0772 32.1077 11.0222 32.101 10.9822V10.9732V10.9662L32.043 10.8752Z" fill="#1A1A18"/>
<path d="M38.8699 31.3349C38.7486 31.3351 38.6306 31.2956 38.5338 31.2225C38.437 31.1494 38.3668 31.0466 38.3339 30.9299L37.8049 29.0099C37.767 28.8675 37.787 28.7158 37.8607 28.5882C37.9344 28.4606 38.0556 28.3673 38.1979 28.3289L39.5979 27.9429C39.6474 27.929 39.6985 27.922 39.7499 27.9219C39.8703 27.9217 39.9875 27.9607 40.084 28.0328C40.1804 28.1049 40.2509 28.2063 40.2849 28.3219L40.8129 30.2419C40.8321 30.3116 40.8373 30.3844 40.8282 30.4562C40.8191 30.5279 40.7959 30.5972 40.7599 30.6599C40.7234 30.724 40.6746 30.7803 40.6162 30.8254C40.5579 30.8706 40.4911 30.9037 40.4199 30.9229L39.0199 31.3099C38.9712 31.3249 38.9208 31.3333 38.8699 31.3349ZM39.7479 28.3219C39.7333 28.3219 39.7189 28.324 39.7049 28.3279L38.3049 28.7169C38.2658 28.7272 38.2322 28.7525 38.2115 28.7873C38.1908 28.822 38.1844 28.8635 38.1939 28.9029L38.7229 30.8219C38.7322 30.8532 38.7516 30.8806 38.7779 30.8999C38.8043 30.9192 38.8362 30.9294 38.8689 30.9289C38.8841 30.9286 38.8993 30.9263 38.9139 30.9219L40.3139 30.5369C40.3529 30.5267 40.3864 30.5017 40.4072 30.4671C40.4279 30.4325 40.4343 30.3911 40.4249 30.3519L39.8949 28.4329C39.8861 28.4007 39.8669 28.3724 39.8403 28.3524C39.8137 28.3323 39.7812 28.3216 39.7479 28.3219Z" fill="#FFED00"/>
<path d="M18.022 2.08399C21.153 4.32899 19.463 6.49699 20.96 8.02199C22.095 9.17999 23.96 8.62199 24.673 9.32199C25.309 9.94399 25.073 12.56 27.199 12.431C26.978 12.046 28.322 8.40199 28.805 8.07699C29.5634 7.30802 30.4691 6.6999 31.468 6.28899C31.468 6.28899 32.099 6.02799 32.74 5.83599C32.801 5.81599 32.862 5.79999 32.923 5.78199C34.0686 5.42731 35.274 5.30782 36.467 5.43069C37.6599 5.55356 38.8157 5.91625 39.865 6.49699C39.5146 5.38546 38.9417 4.3569 38.181 3.47399C37.3 2.56281 36.1925 1.90254 34.972 1.56099C33.8488 1.38048 32.7012 1.41987 31.593 1.67699C31.293 1.73499 30.985 1.80599 30.679 1.88999L30.64 1.89999C29.4697 2.13094 28.3701 2.6338 27.43 3.36799C25.997 5.04599 26.003 2.55599 24.26 4.70499C22.65 6.68899 22.4 2.22299 18.022 2.08399Z" fill="#AA050E"/>
<path d="M31.5928 1.67699L32.7398 5.83599C32.8008 5.81699 32.8618 5.79999 32.9238 5.78199C34.0692 5.42745 35.2745 5.30803 36.4673 5.4309C37.66 5.55377 38.8156 5.91638 39.8648 6.49699C39.5144 5.38546 38.9415 4.3569 38.1808 3.47399C37.2993 2.56354 36.1919 1.90339 34.9718 1.56099C33.8486 1.38048 32.701 1.41987 31.5928 1.67699" fill="#E30613"/>
<path d="M18.6009 4.27214C18.1863 4.38652 17.7471 4.37538 17.3389 4.24011C16.9306 4.10485 16.5717 3.85155 16.3074 3.51225C16.0432 3.17295 15.8855 2.76289 15.8543 2.33396C15.8232 1.90503 15.9199 1.47649 16.1324 1.10256C16.3448 0.728633 16.6634 0.42611 17.0478 0.233265C17.4322 0.0404196 17.8651 -0.034083 18.2919 0.019182C18.7186 0.0724469 19.12 0.251086 19.4452 0.532501C19.7704 0.813916 20.0049 1.18546 20.1189 1.60014C20.2716 2.15576 20.1975 2.7493 19.9129 3.25032C19.6282 3.75135 19.1563 4.11887 18.6009 4.27214Z" fill="#F3F3F3"/>
<path d="M32.6692 5.56299L33.4362 8.34299C28.0012 9.99599 28.0782 13.084 28.0782 13.084C27.7969 12.9736 27.5421 12.8053 27.33 12.5901C27.1179 12.3749 26.9534 12.1176 26.8471 11.8348C26.7407 11.552 26.695 11.2501 26.7127 10.9485C26.7305 10.6469 26.8114 10.3523 26.9502 10.084C28.1847 7.8809 30.2406 6.25564 32.6692 5.56299" fill="#E6E6E6"/>
<path d="M40.9459 10.227C38.3269 7.18799 33.5859 8.29899 33.5859 8.29899C33.5359 8.31299 33.4859 8.32999 33.4359 8.34299L32.6689 5.56299C34.4045 5.098 36.2314 5.09421 37.9689 5.55199C42.7849 7.58599 40.9469 10.227 40.9469 10.227" fill="#F3F3F3"/>
<path d="M35.06 14.2241L37.994 24.8571C37.8159 24.8329 37.6451 24.7707 37.4931 24.6748C37.3411 24.5789 37.2115 24.4515 37.113 24.3011C35.619 26.0751 32.868 24.6731 32.242 22.6411C32.272 22.6981 30.242 22.5091 29.701 21.8161C27.914 19.5591 29.008 19.4121 28.508 18.0251C28.315 17.4891 25.883 14.9191 28.18 13.7021C28.206 13.7541 28.236 13.7971 28.263 13.8491C28.373 13.7621 28.536 14.3611 28.805 14.6331C28.805 14.6671 28.805 14.6991 28.805 14.7331C29.1319 15.2122 29.5116 15.653 29.937 16.0471C30.469 16.0981 31.037 16.0121 31.292 16.2841C31.417 16.4231 32.11 16.1331 32.282 16.1611C32.454 16.1891 32.777 15.8951 32.957 15.8421C33.423 15.6991 33.257 15.0711 33.676 14.8481C34.304 14.5201 33.992 14.8991 34.282 14.7351C34.572 14.5711 34.792 14.3611 35.06 14.2241Z" fill="#E6E6E6"/>
<path d="M42.2322 14.0921C43.2542 15.0731 43.9982 16.4361 43.3322 17.6241C43.1942 17.8751 42.6402 18.3511 42.5252 18.7031C42.4461 19.3107 42.4371 19.9254 42.4982 20.5351C42.3872 22.8141 41.0342 22.0951 40.4642 23.0991C40.2712 23.4401 39.0642 25.0111 37.9562 24.8531L35.0322 14.2401C35.1907 14.151 35.3662 14.0964 35.5472 14.0801C35.9202 14.0431 36.8722 15.1751 37.2182 15.2921C37.4412 15.0571 37.4552 14.7721 37.6312 14.5201C37.9312 14.0901 38.3032 14.1491 38.7532 14.0781C39.1422 14.0131 39.1272 14.0021 39.2922 13.6011C39.4222 13.2891 40.0652 13.3331 40.3832 13.1531C40.5432 13.0611 40.7582 12.9951 40.9362 12.8781C41.2239 11.8733 41.2569 10.8128 41.0322 9.79209L41.1652 9.39209C42.6752 10.3421 44.1482 12.9251 42.2322 14.0921Z" fill="#F3F3F3"/>
<path d="M28.047 11.1948C28.3019 11.9967 28.4205 12.8357 28.398 13.6768C28.398 13.6768 28.758 15.2948 29.978 15.5558C29.978 15.5558 30.778 15.8048 30.184 15.9688C29.23 16.2328 27.324 17.3098 27.43 12.3628L28.047 11.1948Z" fill="#E6E6E6"/>
<path d="M40.4101 9.38512L40.2251 9.34912C40.187 9.95242 40.3525 10.551 40.6951 11.0491C40.928 11.7419 40.9188 12.4932 40.6691 13.1801L41.9801 12.5491C41.8339 11.346 41.2798 10.2293 40.4101 9.38512Z" fill="#F3F3F3"/>
<path d="M32.1748 15.5621C32.2852 15.9571 32.4726 16.3264 32.7262 16.6487C32.9798 16.971 33.2947 17.24 33.6527 17.4401C34.0107 17.6403 34.4047 17.7677 34.8121 17.815C35.2195 17.8624 35.6322 17.8287 36.0265 17.7159C36.4209 17.6031 36.789 17.4134 37.1098 17.1578C37.4305 16.9022 37.6976 16.5858 37.8955 16.2266C38.0935 15.8674 38.2185 15.4726 38.2634 15.0649C38.3082 14.6572 38.272 14.2447 38.1568 13.8511L32.1748 15.5621Z" fill="#E30613"/>
<path d="M34.8962 13.6318L35.1912 14.6988C35.0063 15.621 34.4972 16.4465 33.7561 17.0258C32.4021 18.0418 30.8131 17.6698 29.3911 18.2528C29.3801 15.8388 31.8551 13.1818 34.4261 13.6318C34.5815 13.6027 34.7408 13.6027 34.8962 13.6318Z" fill="#E6E6E6"/>
<path d="M41.422 14.0219C40.05 14.9589 39.008 16.2919 37.168 16.2489C36.7226 16.2079 36.2989 16.0379 35.9486 15.7597C35.5984 15.4816 35.3368 15.1074 35.196 14.6829C35.196 14.6899 35.196 14.6929 35.196 14.6999L34.896 13.6319C34.909 13.6319 34.922 13.6389 34.935 13.6419C36.857 11.9419 39.462 12.7419 41.422 14.0219Z" fill="#F3F3F3"/>
<path d="M34.9899 14.2559C34.9899 14.2559 35.8949 15.9319 33.2619 17.3989C33.2619 17.3989 31.4299 18.2769 30.1619 17.4409L29.5469 17.0919C29.5469 17.0919 32.8469 18.8479 34.9899 14.2559Z" fill="#CCCCCC"/>
<path d="M34.9902 14.2559C34.9902 14.2559 35.9902 17.7249 40.1222 15.1359C41.1652 14.4819 41.1142 13.8999 41.1142 13.8999C41.1142 13.8999 37.5202 16.4449 34.9902 14.2559Z" fill="#E8E8E8"/>
<path d="M23.1462 14.6C23.1462 14.6 20.3362 12.956 21.8572 11.207C22.0413 11.0569 22.2596 10.9544 22.4926 10.9086C22.7257 10.8627 22.9665 10.8749 23.1938 10.9441C23.421 11.0132 23.6278 11.1373 23.7958 11.3052C23.9638 11.4731 24.0879 11.6798 24.1572 11.907C24.1572 11.907 24.1512 10.934 24.7762 11.358C25.0386 11.8084 25.1556 12.3287 25.1112 12.848L25.1902 13.437C25.1902 13.437 23.4622 14.48 23.1462 14.6Z" fill="#5C5C5C"/>
<path d="M24.2771 16.1321C24.0601 15.5871 26.0601 13.4541 26.5781 13.9741C27.3881 14.7851 31.1781 21.7151 32.9401 24.2741C33.5151 25.1061 30.4051 25.8651 30.3841 25.8671C29.6521 25.9671 25.4151 18.9241 24.2771 16.1361" fill="#AA050E"/>
<path d="M24.3098 17.4681C23.5719 16.9326 23.031 16.1689 22.7708 15.2951C22.6708 14.2811 25.3498 12.3401 26.0118 12.7511C26.6738 13.1621 27.9708 15.0191 27.7258 15.3201C26.8568 16.2786 25.781 17.0265 24.5798 17.5071C24.4881 17.5284 24.3917 17.5144 24.3098 17.4681Z" fill="#B3B3B3"/>
<path d="M22.3069 20.1399L29.6259 30.8549C29.8857 31.2119 30.2271 31.5015 30.6216 31.6997C31.0162 31.8978 31.4524 31.9987 31.8939 31.9939L42.6419 32.0819C43.3031 32.128 43.9558 31.9112 44.458 31.4786C44.9603 31.046 45.2714 30.4327 45.3239 29.7719V29.2249C45.376 28.5643 45.687 27.951 46.1891 27.5186C46.6912 27.0862 47.3438 26.8696 48.0049 26.9159L55.3209 26.9719C55.983 26.936 56.6325 27.163 57.1282 27.6034C57.6238 28.0439 57.9256 28.6622 57.9679 29.3239L57.9419 32.1959L57.9019 37.4019L57.8829 40.2819C57.8307 40.9427 57.5196 41.5561 57.0172 41.9886C56.5149 42.4211 55.8621 42.6375 55.2009 42.5909L37.5419 42.4519L17.4089 42.2949H17.3959C16.9543 42.2999 16.518 42.1992 16.1233 42.0012C15.7286 41.8033 15.3869 41.5138 15.1269 41.1569L2.32386 22.4049C1.25686 20.8439 2.54986 18.8679 4.62686 18.8819L20.0419 19.0019C20.4835 18.9966 20.9199 19.0972 21.3147 19.2951C21.7094 19.4931 22.051 19.7828 22.3109 20.1399" fill="#E6252E"/>
<path d="M59.727 27.821C59.3875 26.9423 58.782 26.1915 57.9952 25.6736C57.2083 25.1556 56.2793 24.8964 55.338 24.932L47.464 24.872C46.169 24.8634 44.9236 25.3688 44.0007 26.2773C43.0778 27.1857 42.5529 28.4231 42.541 29.718C42.5461 29.8553 42.5235 29.9923 42.4747 30.1208C42.4259 30.2493 42.3518 30.3667 42.2567 30.466C42.1617 30.5653 42.0477 30.6445 41.9215 30.699C41.7953 30.7534 41.6594 30.782 41.522 30.783L31.235 30.717C31.0608 30.7163 30.8898 30.6705 30.7386 30.5841C30.5873 30.4977 30.4611 30.3736 30.372 30.224L23.217 18.239C22.785 17.5204 22.1765 16.9241 21.4493 16.5067C20.7221 16.0893 19.9004 15.8646 19.062 15.854L5.38499 15.754C4.66826 15.7193 3.95233 15.8371 3.28451 16.0997C2.6167 16.3622 2.01221 16.7635 1.51099 17.277C0.466483 18.4977 -0.0703439 20.0724 0.0109869 21.677C0.0424151 22.1895 0.276158 22.6686 0.660795 23.0088C0.851248 23.1772 1.07301 23.3065 1.31343 23.3892C1.55385 23.472 1.80821 23.5065 2.06199 23.491C2.31577 23.4754 2.564 23.41 2.7925 23.2985C3.02101 23.187 3.22532 23.0316 3.39376 22.8412C3.56221 22.6507 3.69149 22.4289 3.77423 22.1885C3.85697 21.9481 3.89155 21.6938 3.87599 21.44C3.8547 20.9019 4.01302 20.3721 4.32599 19.934C4.40199 19.856 4.63199 19.619 5.35499 19.625L19.031 19.73C19.2051 19.7317 19.3758 19.7779 19.5269 19.8644C19.678 19.9509 19.8044 20.0747 19.894 20.224L27.046 32.209C27.6269 33.1745 28.5218 33.9113 29.581 34.296C30.1034 34.4868 30.6548 34.5862 31.211 34.59L41.5 34.654C42.7939 34.6601 44.0376 34.1535 44.9589 33.2449C45.8802 32.3364 46.4041 31.0999 46.416 29.806C46.4112 29.6686 46.434 29.5316 46.483 29.4031C46.5321 29.2747 46.6064 29.1574 46.7016 29.0582C46.7968 28.959 46.9109 28.8799 47.0373 28.8256C47.1636 28.7713 47.2995 28.7428 47.437 28.742L55.311 28.803C55.764 28.803 56.022 28.929 56.106 29.18H56.115C56.1916 29.4334 56.3195 29.6685 56.4907 29.8705C56.6618 30.0726 56.8726 30.2374 57.11 30.3547C57.3474 30.472 57.6064 30.5393 57.8709 30.5525C58.1354 30.5656 58.3997 30.5244 58.6476 30.4313C58.8955 30.3381 59.1216 30.1951 59.312 30.0111C59.5024 29.827 59.653 29.6059 59.7545 29.3613C59.8559 29.1167 59.9061 28.8539 59.9019 28.5891C59.8977 28.3243 59.8392 28.0632 59.73 27.822" fill="#E3D4BC"/>
<path d="M9.97509 49.94C11.6789 50.4809 13.4611 50.7337 15.2481 50.688C18.0911 50.711 56.4821 50.698 58.1151 50.697C65.8381 50.756 70.3021 47.657 70.3451 42.191C70.3761 37.993 67.2581 35.146 64.3311 35.125C63.1355 35.0787 61.9603 35.4445 61.0022 36.1612C60.0441 36.8779 59.3613 37.902 59.0681 39.062C58.8409 40.1615 59.0089 41.3058 59.5425 42.2936C60.0761 43.2814 60.941 44.0493 61.9851 44.462C62.4492 44.682 62.9817 44.7086 63.4655 44.536C63.9492 44.3634 64.3446 44.0056 64.5646 43.5415C64.7846 43.0774 64.8112 42.5449 64.6386 42.0611C64.4659 41.5774 64.1082 41.182 63.6441 40.962C63.2171 40.762 62.7291 40.414 62.8441 39.927C62.9477 39.6307 63.1479 39.3779 63.4125 39.209C63.6771 39.0402 63.9907 38.9652 64.3031 38.996C65.2031 39.001 66.4911 40.24 66.4761 42.161C66.4501 45.297 63.6431 46.867 58.1311 46.825C57.7151 46.825 18.1061 46.837 15.2811 46.815C13.8248 46.8955 12.3674 46.6781 10.9981 46.176C10.3901 45.892 10.3921 45.688 10.3981 45.508C10.3688 45.1408 10.478 44.7759 10.7041 44.485C11.0965 44.2503 11.5641 44.1755 12.0101 44.276C12.5198 44.3363 13.0327 44.1917 13.4358 43.8739C13.8389 43.5562 14.0993 43.0913 14.1596 42.5815C14.2199 42.0718 14.0753 41.5589 13.7575 41.1558C13.4397 40.7527 12.9748 40.4923 12.4651 40.432C11.7045 40.2979 10.9239 40.3313 10.1776 40.5299C9.43132 40.7285 8.73734 41.0876 8.14409 41.582C7.60624 42.0746 7.18229 42.6785 6.90181 43.3517C6.62133 44.025 6.49106 44.7513 6.52009 45.48C6.51437 46.3837 6.78155 47.2681 7.28665 48.0174C7.79176 48.7668 8.51128 49.3463 9.35109 49.68C9.55109 49.772 9.75909 49.8577 9.97509 49.937" fill="#876C59"/>
<path d="M20.5919 50.5811C20.8834 50.6866 21.1958 50.7207 21.5032 50.6806C21.8105 50.6404 22.1037 50.5273 22.3583 50.3505C22.6129 50.1738 22.8215 49.9386 22.9665 49.6647C23.1116 49.3907 23.1888 49.0861 23.1919 48.7761L23.2389 42.4391C23.2464 42.1815 23.2024 41.925 23.1095 41.6846C23.0165 41.4443 22.8765 41.2248 22.6977 41.0393C22.5188 40.8537 22.3048 40.7057 22.068 40.604C21.8312 40.5023 21.5765 40.4488 21.3187 40.4468C21.061 40.4448 20.8055 40.4943 20.5672 40.5924C20.3288 40.6904 20.1125 40.8351 19.9308 41.0178C19.7491 41.2006 19.6057 41.4178 19.509 41.6567C19.4124 41.8956 19.3644 42.1514 19.3679 42.4091L19.3189 48.7461C19.3156 49.146 19.4362 49.5371 19.6641 49.8657C19.8921 50.1943 20.2162 50.4442 20.5919 50.5811Z" fill="#876C59"/>
<path d="M49.3551 50.5811C49.6465 50.6866 49.959 50.7207 50.2664 50.6806C50.5737 50.6404 50.8669 50.5273 51.1215 50.3505C51.3761 50.1738 51.5847 49.9386 51.7297 49.6647C51.8747 49.3907 51.952 49.0861 51.9551 48.7761L52.0021 42.4391C52.0096 42.1815 51.9656 41.925 51.8727 41.6846C51.7797 41.4443 51.6397 41.2248 51.4609 41.0393C51.282 40.8537 51.0679 40.7057 50.8311 40.604C50.5944 40.5023 50.3396 40.4488 50.0819 40.4468C49.8242 40.4448 49.5687 40.4943 49.3304 40.5924C49.092 40.6904 48.8757 40.8351 48.694 41.0178C48.5122 41.2006 48.3689 41.4178 48.2722 41.6567C48.1756 41.8956 48.1276 42.1514 48.1311 42.4091L48.0821 48.7461C48.0788 49.146 48.1994 49.5371 48.4273 49.8657C48.6553 50.1943 48.9794 50.4442 49.3551 50.5811Z" fill="#876C59"/>
</svg>
