<svg width="71" height="50" viewBox="0 0 71 50" fill="none" xmlns="http://www.w3.org/2000/svg">
<path d="M8.73096 7.88724C8.73096 7.88724 17.06 6.06324 21.711 9.57024C26.362 13.0772 29.351 16.0072 30.931 20.6232C32.431 24.9892 30.26 29.3582 25.201 29.6482L12.901 30.3482C9.94296 30.5172 8.00996 28.1402 9.52496 21.8482C10.958 15.9192 8.73096 7.88724 8.73096 7.88724Z" fill="#564632"/>
<path d="M10.413 7.74452C9.64051 6.86358 8.82273 6.02344 7.96295 5.22752C6.77995 4.16252 5.86995 2.90752 5.58495 3.72652C5.29995 4.54552 6.68495 5.14752 5.79195 6.14152C4.89895 7.13552 4.47195 6.44152 4.26195 7.12952C4.05195 7.81752 4.35595 7.58352 3.93895 8.32952C3.52195 9.07552 8.27395 9.42552 9.05895 9.46252C9.84395 9.49952 9.78195 8.88752 9.85895 8.64252C9.93595 8.39752 10.397 8.19652 10.417 7.74252" fill="#564632"/>
<path d="M53.4549 20.7544C53.4549 20.7544 56.7059 20.8964 56.1789 23.1544C56.0865 23.3734 55.9416 23.5663 55.7569 23.716C55.5722 23.8656 55.3535 23.9675 55.1201 24.0126C54.8867 24.0577 54.6458 24.0446 54.4187 23.9744C54.1916 23.9043 53.9852 23.7792 53.8179 23.6104C53.8179 23.6104 54.2779 24.4674 53.5279 24.3844C53.0855 24.108 52.7391 23.7019 52.5359 23.2214L52.1909 22.7374C52.1909 22.7374 53.2309 21.0084 53.4549 20.7544Z" fill="#7B7B7A"/>
<path d="M51.74 19.9282C52.191 20.3072 51.415 23.1282 50.714 22.9112C49.618 22.5722 45.495 19.8652 42.748 18.4272C41.85 17.9592 43.595 16.6152 43.961 15.9952C43.9719 15.9782 43.9858 15.9633 44.002 15.9512C44.602 15.5182 49.431 17.9942 51.74 19.9282Z" fill="#E30613"/>
<path d="M51.0868 18.7613C51.9889 18.8917 52.8228 19.3155 53.4598 19.9673C54.0268 20.8133 52.5598 23.7823 51.7848 23.7283C51.0098 23.6743 48.9948 22.6373 49.0668 22.2613C49.3878 21.0061 49.9908 19.8406 50.8298 18.8533C50.9011 18.7918 50.9927 18.759 51.0868 18.7613Z" fill="#DADADB"/>
<path d="M38.9819 39.9426H41.2639V26.9746H38.9819V39.9426Z" fill="#E30613"/>
<path d="M38.1602 39.9425C38.1602 39.4219 38.367 38.9226 38.7351 38.5544C39.1032 38.1863 39.6025 37.9795 40.1232 37.9795C40.6438 37.9795 41.1431 38.1863 41.5112 38.5544C41.8793 38.9226 42.0862 39.4219 42.0862 39.9425H38.1602Z" fill="#7B7B7A"/>
<path d="M38.7891 39.9422H41.4571V35.8032H38.7891V39.9422Z" fill="#7B7B7A"/>
<path d="M34.5469 39.9426H36.8289V26.9746H34.5469V39.9426Z" fill="#AA050E"/>
<path d="M33.7251 39.9425C33.7251 39.4219 33.9319 38.9226 34.3 38.5544C34.6682 38.1863 35.1675 37.9795 35.6881 37.9795C36.2087 37.9795 36.708 38.1863 37.0761 38.5544C37.4443 38.9226 37.6511 39.4219 37.6511 39.9425H33.7251Z" fill="#5C5C5C"/>
<path d="M34.355 39.9422H37.022V35.8032H34.355V39.9422Z" fill="#5C5C5C"/>
<path d="M37.9429 13.1914V31.1564C37.9139 31.1579 37.8849 31.1579 37.8559 31.1564C31.3689 31.2364 28.9089 28.2434 28.9089 28.2434C28.9319 27.9589 28.9319 27.6729 28.9089 27.3884C28.9074 27.3851 28.9053 27.3821 28.9029 27.3794C28.7934 26.538 28.7934 25.6859 28.9029 24.8444L28.9119 24.8534C28.9084 24.8499 28.9053 24.8458 28.9029 24.8414C29.8959 18.0914 32.6469 13.1914 37.9429 13.1914Z" fill="#AA050E"/>
<path d="M37.9428 27.8012V30.3442C37.9138 30.3457 37.8848 30.3457 37.8558 30.3442C31.5678 30.4222 29.0618 27.5642 28.9118 27.3882C28.9103 27.385 28.9083 27.3819 28.9058 27.3792C28.7973 26.5377 28.7983 25.6856 28.9088 24.8442C28.9088 24.8442 28.9148 24.8502 28.9178 24.8502C31.431 26.9033 34.6142 27.9554 37.8558 27.8042C37.8848 27.8057 37.9138 27.8057 37.9428 27.8042" fill="#1A1A18"/>
<path d="M46.9771 27.3854C46.9525 27.6705 46.9525 27.9573 46.9771 28.2424C46.9771 28.2424 45.1081 31.0454 37.9551 31.1564V13.1914C43.2451 13.1974 45.9911 18.0914 46.9801 24.8384C46.9801 24.8384 46.9601 24.8674 46.9191 24.9194C46.9391 24.9054 46.9541 24.8874 46.9711 24.8734C47.1185 25.702 47.1216 26.5498 46.9801 27.3794C46.9808 27.3813 46.9808 27.3835 46.9801 27.3854" fill="#E30613"/>
<path d="M46.9791 27.3795C46.9798 27.3815 46.9798 27.3836 46.9791 27.3855C46.8751 27.5295 44.9141 30.2355 37.9541 30.3425V27.8015C43.2981 27.7145 46.0331 25.7475 46.9181 24.9195C46.9381 24.9045 46.9541 24.8875 46.9701 24.8735C47.1175 25.7021 47.1206 26.5499 46.9791 27.3795Z" fill="#1A1A18"/>
<path d="M45.047 10.4773C45.047 13.7283 41.932 16.3643 38.087 16.3643C38.038 16.3643 37.987 16.3643 37.943 16.3643C34.164 16.2983 31.127 13.6903 31.127 10.4773C31.127 7.26433 34.164 4.65733 37.943 4.59033C37.989 4.59033 38.038 4.59033 38.087 4.59033C41.932 4.59033 45.047 7.22633 45.047 10.4773Z" fill="#E9D8BB"/>
<path d="M37.943 4.59326V16.3623C34.164 16.2933 31.127 13.6873 31.127 10.4773C31.127 7.26726 34.164 4.65626 37.943 4.59326Z" fill="#DDC295"/>
<path d="M34.4409 11.0767C34.4069 11.0767 34.3739 11.0767 34.3409 11.0767C34.0547 11.0795 33.7805 11.192 33.5749 11.3911C33.3693 11.5902 33.2479 11.8606 33.2359 12.1465C33.2238 12.4325 33.322 12.7121 33.5101 12.9278C33.6982 13.1435 33.9619 13.2788 34.2469 13.3057C34.2799 13.3057 34.3129 13.3057 34.3469 13.3057C34.633 13.3028 34.9072 13.1903 35.1128 12.9912C35.3185 12.7921 35.4398 12.5217 35.4519 12.2358C35.4639 11.9498 35.3658 11.6702 35.1777 11.4545C34.9895 11.2388 34.7258 11.1036 34.4409 11.0767" fill="#A57168"/>
<path d="M41.6509 11.0767C41.6169 11.0767 41.5839 11.0767 41.5509 11.0767C41.2648 11.0797 40.9908 11.1924 40.7853 11.3916C40.5799 11.5908 40.4587 11.8612 40.4468 12.147C40.4348 12.4329 40.5331 12.7125 40.7212 12.928C40.9093 13.1436 41.173 13.2788 41.4579 13.3057C41.4909 13.3057 41.5239 13.3057 41.5579 13.3057C41.844 13.3026 42.118 13.1899 42.3235 12.9907C42.5289 12.7916 42.6501 12.5212 42.662 12.2353C42.674 11.9494 42.5757 11.6699 42.3876 11.4543C42.1995 11.2387 41.9358 11.1035 41.6509 11.0767" fill="#DC968A"/>
<path d="M34.8541 8.01652C34.9451 7.96752 35.0391 7.89952 35.0001 7.82152C34.9501 7.71752 34.7501 7.74352 34.6461 7.79152C34.5411 7.83287 34.4545 7.9106 34.4021 8.01052C34.3821 8.06052 34.3471 8.17052 34.4601 8.17152C34.5853 8.15767 34.7049 8.11263 34.8081 8.04052L34.8541 8.01652Z" fill="#C5C5C6"/>
<path d="M40.9427 8.01653C40.8527 7.96653 40.7587 7.90053 40.7967 7.82153C40.8467 7.71653 41.0467 7.74353 41.1517 7.79053C41.256 7.83315 41.342 7.91101 41.3947 8.01053C41.4157 8.06053 41.4507 8.16953 41.3387 8.17253C41.2133 8.15797 41.0934 8.11263 40.9897 8.04053L40.9427 8.01653Z" fill="#C5C5C6"/>
<path d="M35.6599 9.08135V9.06035V9.01835C35.6605 8.91031 35.6209 8.80589 35.5489 8.72535C35.5035 8.68427 35.4502 8.65288 35.3922 8.6331C35.3343 8.61333 35.2729 8.60559 35.2119 8.61035H35.1839C35.1231 8.60541 35.0619 8.61298 35.0041 8.63259C34.9463 8.65219 34.8931 8.68342 34.8479 8.72435C34.7758 8.80479 34.7365 8.90935 34.7379 9.01735V9.05835V9.46635C34.7358 9.57659 34.775 9.68362 34.8479 9.76635C34.8933 9.80673 34.9463 9.83755 35.0039 9.85697C35.0614 9.87638 35.1223 9.88399 35.1829 9.87935H35.2099C35.2707 9.88452 35.332 9.87726 35.3899 9.858C35.4478 9.83875 35.5012 9.80791 35.5469 9.76735C35.6203 9.68528 35.66 9.57846 35.6579 9.46835V9.43535V9.41035V9.08235" fill="#1A1A18"/>
<path d="M41.1628 9.08136V9.06036V9.01836C41.1634 8.91032 41.1238 8.8059 41.0518 8.72536C41.0065 8.68413 40.9532 8.65264 40.8952 8.63286C40.8372 8.61308 40.7758 8.60542 40.7148 8.61036H40.6878C40.6268 8.60541 40.5655 8.61296 40.5075 8.63256C40.4495 8.65217 40.3962 8.68341 40.3508 8.72436C40.2787 8.8048 40.2394 8.90936 40.2408 9.01736V9.46636C40.2391 9.57652 40.2783 9.68338 40.3508 9.76636C40.3963 9.80682 40.4495 9.83768 40.5073 9.8571C40.565 9.87651 40.626 9.88409 40.6868 9.87936H40.7138C40.7745 9.88449 40.8357 9.8773 40.8936 9.85823C40.9515 9.83916 41.005 9.80859 41.0508 9.76836C41.1237 9.68563 41.1629 9.5786 41.1608 9.46836V9.43536V9.41036V9.08236L41.1628 9.08136Z" fill="#1A1A18"/>
<path d="M36.009 12.2335C35.976 11.9806 36.0021 11.7234 36.0852 11.4822C36.1683 11.2411 36.3061 11.0224 36.4878 10.8434C36.6695 10.6644 36.8902 10.5299 37.1326 10.4505C37.375 10.371 37.6325 10.3488 37.885 10.3855H38.002C38.2551 10.3475 38.5136 10.3688 38.7571 10.4476C39.0007 10.5264 39.2226 10.6607 39.4055 10.8398C39.5884 11.0189 39.7272 11.238 39.8111 11.4798C39.895 11.7216 39.9216 11.9796 39.889 12.2335V12.3255C39.9217 12.5793 39.8951 12.8373 39.8112 13.0791C39.7273 13.3209 39.5884 13.54 39.4055 13.719C39.2226 13.898 39.0006 14.0322 38.7571 14.1109C38.5135 14.1896 38.255 14.2107 38.002 14.1725H37.885C37.6326 14.2094 37.3751 14.1873 37.1327 14.108C36.8903 14.0287 36.6696 13.8943 36.4878 13.7154C36.3061 13.5364 36.1682 13.3178 36.0852 13.0767C36.0021 12.8355 35.976 12.5784 36.009 12.3255V12.2335Z" fill="#F3A5A6"/>
<path d="M38.6698 30.5883H37.2168C37.1433 30.5887 37.0705 30.5746 37.0025 30.5468C36.9346 30.519 36.8727 30.478 36.8206 30.4263C36.7685 30.3745 36.7271 30.313 36.6988 30.2452C36.6705 30.1774 36.6559 30.1047 36.6558 30.0313V28.0403C36.6571 27.8927 36.7169 27.7517 36.8221 27.6483C36.9273 27.5448 37.0692 27.4872 37.2168 27.4883H38.6698C38.7428 27.4878 38.8152 27.5016 38.8828 27.5291C38.9505 27.5565 39.0121 27.5971 39.0641 27.6483C39.1161 27.6996 39.1575 27.7606 39.1859 27.8278C39.2143 27.8951 39.2292 27.9673 39.2298 28.0403V30.0313C39.2298 30.1047 39.2153 30.1774 39.1871 30.2451C39.1589 30.3129 39.1176 30.3745 39.0656 30.4262C39.0135 30.478 38.9518 30.5189 38.8838 30.5468C38.8159 30.5746 38.7432 30.5887 38.6698 30.5883ZM37.2168 27.8883C37.1961 27.8872 37.1754 27.8903 37.156 27.8975C37.1366 27.9046 37.1188 27.9156 37.1037 27.9298C37.0887 27.944 37.0767 27.9612 37.0684 27.9801C37.0602 27.9991 37.0559 28.0196 37.0558 28.0403V30.0313C37.0563 30.0513 37.0608 30.0711 37.0689 30.0894C37.0771 30.1077 37.0889 30.1242 37.1034 30.138C37.118 30.1517 37.1352 30.1625 37.154 30.1696C37.1727 30.1767 37.1927 30.18 37.2128 30.1793H38.6698C38.6897 30.1798 38.7096 30.1764 38.7282 30.1693C38.7469 30.1621 38.7639 30.1514 38.7784 30.1376C38.7929 30.1239 38.8046 30.1074 38.8127 30.0892C38.8208 30.0709 38.8252 30.0513 38.8258 30.0313V28.0403C38.8256 28.02 38.8215 28 38.8135 27.9814C38.8056 27.9627 38.7941 27.9458 38.7795 27.9317C38.765 27.9175 38.7478 27.9064 38.729 27.899C38.7102 27.8915 38.69 27.8879 38.6698 27.8883H37.2168Z" fill="#FFED00"/>
<path d="M24.5259 10.4117C24.7909 10.9227 25.5439 11.0777 26.3549 11.0777C27.0899 11.0632 27.8215 10.9727 28.5379 10.8077C29.2992 10.6409 29.9922 10.2477 30.5259 9.67967C30.4159 9.24667 32.9979 5.65267 33.5509 5.46867C34.4865 4.92877 35.5215 4.58321 36.5939 4.45267C36.5939 4.45267 37.2719 4.36867 37.9419 4.35267C38.0049 4.35267 38.0689 4.35267 38.1319 4.35267C39.3303 4.31576 40.5238 4.52137 41.6408 4.95716C42.7577 5.39295 43.7751 6.04993 44.6319 6.88867C44.59 5.72338 44.3113 4.57881 43.8129 3.52467C43.2047 2.41209 42.312 1.48101 41.2259 0.826673C40.1914 0.354416 39.0751 0.0871537 37.9389 0.039673C37.6329 0.015673 37.3179 0.00167297 37.0009 0.00167297H36.9609C35.6047 -0.023372 34.258 0.233023 33.0059 0.754673C31.1799 1.98667 30.4259 3.28767 29.3599 5.56867C28.2809 7.88567 27.0409 10.0017 24.5259 10.4117Z" fill="#AA050E"/>
<path d="M37.938 0.0395508V4.35355C38.001 4.35355 38.065 4.35355 38.128 4.35355C39.3264 4.31664 40.5199 4.52225 41.6369 4.95804C42.7538 5.39383 43.7712 6.05081 44.628 6.88955C44.5861 5.72426 44.3074 4.57969 43.809 3.52555C43.2018 2.4133 42.3105 1.48198 41.226 0.826551C40.1912 0.354168 39.0746 0.0869032 37.938 0.0395508" fill="#E30613"/>
<path d="M24.8791 12.6522C24.449 12.6522 24.0285 12.5247 23.6708 12.2858C23.3132 12.0468 23.0344 11.7072 22.8698 11.3098C22.7051 10.9124 22.662 10.4752 22.7458 10.0533C22.8297 9.63141 23.0367 9.24386 23.3408 8.93964C23.6449 8.63542 24.0323 8.4282 24.4542 8.34416C24.876 8.26013 25.3133 8.30305 25.7107 8.46752C26.1082 8.63199 26.448 8.91061 26.6871 9.26815C26.9262 9.6257 27.0539 10.0461 27.0541 10.4762C27.0542 10.762 26.9981 11.0449 26.8888 11.3089C26.7796 11.5729 26.6194 11.8128 26.4174 12.0149C26.2154 12.2169 25.9756 12.3772 25.7117 12.4866C25.4477 12.596 25.1648 12.6522 24.8791 12.6522Z" fill="#F3F3F3"/>
<path d="M37.9429 4.07129V6.95629C32.2629 7.10229 31.5159 10.0993 31.5159 10.0993C31.2741 9.91793 31.0731 9.6878 30.926 9.42381C30.7788 9.15983 30.6887 8.86787 30.6616 8.56686C30.6344 8.26584 30.6708 7.96248 30.7683 7.67642C30.8659 7.39036 31.0225 7.12799 31.2279 6.90629C33.0041 5.11168 35.418 4.09254 37.9429 4.07129" fill="#E6E6E6"/>
<path d="M44.6809 10.7713C42.9649 7.14329 38.0989 6.95329 38.0989 6.95329L37.9429 6.95529V4.07129C39.7394 4.0849 41.5012 4.56749 43.0539 5.47129C47.1539 8.71229 44.6809 10.7713 44.6809 10.7713Z" fill="#F3F3F3"/>
<path d="M37.9428 13.0567V24.0857C37.7776 24.0155 37.6295 23.9105 37.5087 23.7777C37.3879 23.645 37.2972 23.4877 37.2428 23.3167C35.3308 24.6287 33.0518 22.5457 32.9878 20.4167C33.0028 20.4807 31.0988 19.7597 30.7588 18.9467C29.6358 16.2987 30.7288 16.4487 30.6158 14.9777C30.5728 14.4097 28.9118 11.2857 31.4498 10.7227C31.4618 10.7807 31.4788 10.8287 31.4898 10.8877C31.6198 10.8317 31.6168 11.4527 31.8048 11.7877C31.7928 11.8207 31.7878 11.8517 31.7788 11.8807C31.9664 12.4307 32.2149 12.9579 32.5198 13.4527C33.0198 13.6427 33.5928 13.7117 33.7628 14.0407C33.8468 14.2077 34.5908 14.1137 34.7498 14.1847C34.9088 14.2557 35.2978 14.0617 35.4848 14.0587C35.9728 14.0437 35.9848 13.3947 36.4428 13.2907C37.1348 13.1407 36.7348 13.4237 37.0568 13.3427C37.3948 13.2587 37.6488 13.1187 37.9428 13.0577" fill="#E6E6E6"/>
<path d="M44.8941 14.8385C45.6181 16.0555 45.9731 17.5675 45.0151 18.5385C44.8151 18.7385 44.1561 19.0545 43.9511 19.3625C43.7144 19.928 43.5419 20.5184 43.4371 21.1225C42.7251 23.2885 41.6121 22.2365 40.7951 23.0525C40.5191 23.3275 38.9381 24.5215 37.9111 24.0745V13.0655C38.0874 13.0208 38.2713 13.0146 38.4501 13.0475C38.8201 13.1105 39.4371 14.4545 39.7401 14.6565C40.0171 14.4895 40.1061 14.2185 40.3401 14.0225C40.7401 13.6875 41.0881 13.8435 41.5401 13.8955C41.9331 13.9365 41.9211 13.9215 42.1861 13.5775C42.3941 13.3125 43.0031 13.5265 43.3581 13.4375C43.5371 13.3905 43.7581 13.3845 43.9631 13.3175C44.5069 12.4272 44.82 11.4153 44.8741 10.3735L45.1111 10.0215C46.3111 11.3395 47.0471 14.2215 44.8921 14.8385" fill="#F3F3F3"/>
<path d="M37.9432 12.4416V13.5496C37.5204 14.389 36.8108 15.0492 35.9432 15.4106C34.3682 16.0306 32.9352 15.2486 31.4092 15.4326C32.0392 13.1026 35.1302 11.2016 37.4902 12.3176C37.6476 12.3303 37.8012 12.3723 37.9432 12.4416Z" fill="#E6E6E6"/>
<path d="M44.1299 14.5536C42.5579 15.0926 41.1989 16.0996 39.4369 15.5656C39.0186 15.4081 38.6554 15.1321 38.3915 14.7714C38.1276 14.4107 37.9745 13.9809 37.9509 13.5346C37.9486 13.5398 37.9459 13.5448 37.9429 13.5496V12.4416L37.9779 12.4656C40.2779 11.3376 42.5779 12.8006 44.1299 14.5576" fill="#F3F3F3"/>
<path d="M37.8672 13.0693C37.8672 13.0693 38.2942 14.9243 35.3672 15.6383C35.3672 15.6383 33.3672 15.9973 32.3672 14.8543L31.8672 14.3543C31.8672 14.3543 34.5822 16.9243 37.8672 13.0693Z" fill="#CCCCCC"/>
<path d="M37.8682 13.0693C37.8682 13.0693 37.9132 16.6793 42.5812 15.2823C43.7612 14.9283 43.8682 14.3543 43.8682 14.3543C43.8682 14.3543 39.7242 15.8523 37.8682 13.0693Z" fill="#E8E8E8"/>
<path d="M31.9881 8.27051C32.0206 9.11136 31.9118 9.95171 31.6661 10.7565C31.6661 10.7565 31.5831 12.4125 32.6891 12.9885C32.6891 12.9885 33.3891 13.4415 32.7781 13.4415C31.7861 13.4415 29.6651 13.9705 31.0871 9.23451L31.9881 8.27051Z" fill="#E6E6E6"/>
<path d="M44.3879 9.81545L44.2199 9.73145C44.0234 10.3016 44.0234 10.9212 44.2199 11.4914C44.2605 12.2224 44.0518 12.9455 43.6279 13.5424L45.0589 13.2844C45.2382 12.0854 45.0014 10.8611 44.3879 9.81545Z" fill="#F3F3F3"/>
<path d="M40.9229 25.1986C40.9229 25.1986 43.4229 27.2776 44.5509 25.2516C44.6296 25.0274 44.6518 24.7872 44.6157 24.5524C44.5795 24.3175 44.486 24.0952 44.3434 23.905C44.2008 23.7149 44.0136 23.5629 43.7983 23.4623C43.5829 23.3618 43.3462 23.3159 43.1089 23.3286C43.1089 23.3286 44.0229 23.0026 43.4139 22.5596C42.9009 22.4666 42.3718 22.5344 41.8989 22.7536L41.3229 22.8806C41.3229 22.8806 40.9229 24.8596 40.9229 25.1986Z" fill="#5C5C5C"/>
<path d="M39.0978 24.6584C39.6858 24.6804 41.0068 22.0704 40.3418 21.7584C39.3018 21.2744 34.4298 20.5084 31.4288 19.7294C30.4488 19.4734 30.8428 21.6434 30.6908 22.3454C30.6864 22.3661 30.6864 22.3876 30.6908 22.4084C30.8438 23.1324 36.0858 24.5434 39.0908 24.6614" fill="#AA050E"/>
<path d="M37.8311 25.0834C38.5871 25.5924 39.4895 25.8383 40.3991 25.7834C41.3871 25.5374 42.2991 22.3534 41.6841 21.8724C41.0691 21.3914 38.8841 20.8064 38.6841 21.1374C38.08 22.2819 37.7441 23.5489 37.7021 24.8424C37.7143 24.9355 37.7602 25.0209 37.8311 25.0824" fill="#B3B3B3"/>
<path d="M22.3078 18.8982L29.6268 29.6122C29.8865 29.9693 30.2279 30.259 30.6224 30.4572C31.017 30.6554 31.4533 30.7562 31.8948 30.7512L42.6388 30.8342C43.2999 30.8803 43.9525 30.6635 44.4546 30.2309C44.9567 29.7983 45.2676 29.1849 45.3198 28.5242L45.3248 27.9772C45.3767 27.3166 45.6876 26.7033 46.1898 26.2709C46.692 25.8386 47.3448 25.6223 48.0058 25.6692L55.3218 25.7252C55.9838 25.6888 56.6333 25.9155 57.1289 26.3558C57.6245 26.7962 57.926 27.4146 57.9678 28.0762L57.9418 30.9532L57.9018 36.1592L57.8838 39.0402C57.8316 39.701 57.5205 40.3144 57.0182 40.7469C56.5158 41.1794 55.863 41.3959 55.2018 41.3492L37.5418 41.2102L17.4088 41.0532H17.3948C16.9534 41.0582 16.5172 40.9575 16.1226 40.7595C15.7281 40.5616 15.3866 40.2721 15.1268 39.9152L2.32378 21.1632C1.25778 19.6012 2.55078 17.6252 4.62778 17.6402L20.0418 17.7602C20.4834 17.7549 20.9198 17.8555 21.3146 18.0535C21.7093 18.2514 22.0509 18.5411 22.3108 18.8982" fill="#E6252E"/>
<path d="M59.727 26.5796C59.3876 25.7008 58.7822 24.95 57.9953 24.432C57.2084 23.9141 56.2794 23.6549 55.338 23.6906L47.464 23.6296C46.1689 23.6208 44.9233 24.1261 44.0004 25.0346C43.0775 25.9431 42.5526 27.1806 42.541 28.4756C42.5461 28.613 42.5235 28.75 42.4747 28.8785C42.4259 29.007 42.3518 29.1243 42.2567 29.2237C42.1617 29.323 42.0477 29.4022 41.9215 29.4566C41.7953 29.5111 41.6594 29.5397 41.522 29.5406L31.235 29.4756C31.0608 29.4744 30.8898 29.4284 30.7385 29.3421C30.5872 29.2558 30.4606 29.132 30.371 28.9826L23.217 16.9966C22.7849 16.278 22.1765 15.6818 21.4493 15.2644C20.7221 14.847 19.9004 14.6223 19.062 14.6116L5.38497 14.5116C4.66815 14.4774 3.95221 14.5955 3.28431 14.858C2.61641 15.1205 2.01169 15.5215 1.50997 16.0346C0.465649 17.2555 -0.0711527 18.8301 0.0099726 20.4346C0.0511301 20.9396 0.288599 21.4083 0.671417 21.7402C1.05424 22.0721 1.5519 22.2406 2.0576 22.2098C2.5633 22.1789 3.03675 21.951 3.37633 21.575C3.71591 21.199 3.89458 20.7049 3.87397 20.1986C3.85329 19.6602 4.01192 19.1302 4.32497 18.6916C4.40097 18.6136 4.63097 18.3766 5.35497 18.3826L19.031 18.4876C19.2051 18.4893 19.3758 18.5356 19.5269 18.6221C19.678 18.7086 19.8044 18.8324 19.894 18.9816L27.046 30.9676C27.6267 31.9328 28.5212 32.6692 29.58 33.0536C30.1028 33.2443 30.6545 33.3438 31.211 33.3476L41.5 33.4116C42.7941 33.4183 44.0382 32.9119 44.9598 32.0032C45.8814 31.0946 46.4053 29.8578 46.417 28.5636C46.4122 28.4263 46.4349 28.2894 46.4839 28.161C46.5329 28.0326 46.6072 27.9154 46.7023 27.8162C46.7973 27.717 46.9114 27.6379 47.0376 27.5835C47.1637 27.5291 47.2996 27.5006 47.437 27.4996L55.312 27.5616C55.765 27.5616 56.023 27.6866 56.107 27.9376H56.116C56.1923 28.1914 56.3199 28.4269 56.491 28.6293C56.662 28.8318 56.8728 28.9969 57.1103 29.1145C57.3478 29.2321 57.6069 29.2997 57.8716 29.313C58.1363 29.3264 58.4009 29.2852 58.6491 29.1921C58.8972 29.0989 59.1235 28.9558 59.3141 28.7716C59.5046 28.5874 59.6552 28.366 59.7567 28.1211C59.8581 27.8763 59.9082 27.6132 59.9038 27.3482C59.8993 27.0832 59.8405 26.822 59.731 26.5806" fill="#E3D4BC"/>
<path d="M9.97507 48.6974C11.6791 49.2374 13.4611 49.4898 15.2481 49.4444C18.0911 49.4674 56.4821 49.4544 58.1151 49.4534C65.8381 49.5134 70.3021 46.4134 70.3451 40.9474C70.3761 36.7494 67.2581 33.9024 64.3311 33.8824C63.1356 33.8358 61.9603 34.2014 61.0022 34.9179C60.0441 35.6345 59.3613 36.6584 59.0681 37.8184C58.8409 38.9178 59.0089 40.0622 59.5425 41.05C60.0761 42.0378 60.941 42.8056 61.9851 43.2184C62.4492 43.4384 62.9817 43.465 63.4655 43.2924C63.705 43.2069 63.9253 43.0751 64.1139 42.9044C64.3025 42.7338 64.4556 42.5277 64.5646 42.2979C64.6735 42.0681 64.7361 41.819 64.7488 41.565C64.7615 41.311 64.724 41.057 64.6385 40.8175C64.5531 40.578 64.4213 40.3576 64.2506 40.169C64.08 39.9804 63.8739 39.8273 63.6441 39.7184C63.2171 39.5184 62.7291 39.1714 62.8441 38.6834C62.9477 38.3869 63.1481 38.1339 63.4129 37.9651C63.6777 37.7962 63.9916 37.7213 64.3041 37.7524C65.1981 37.7524 66.4911 38.9964 66.4761 40.9184C66.4511 44.0534 63.6441 45.6244 58.1311 45.5814C57.7151 45.5814 18.1061 45.5934 15.2821 45.5724C13.8254 45.6523 12.3678 45.4345 10.9981 44.9324C10.3911 44.6484 10.3921 44.4444 10.3981 44.2654C10.3702 43.8967 10.4815 43.531 10.7101 43.2404C11.101 43.0076 11.5661 42.9332 12.0101 43.0324C12.5198 43.0927 13.0327 42.9481 13.4358 42.6303C13.8389 42.3125 14.0992 41.8476 14.1596 41.3379C14.2199 40.8281 14.0753 40.3153 13.7575 39.9122C13.4397 39.5091 12.9748 39.2487 12.4651 39.1884C11.7045 39.0545 10.9239 39.088 10.1777 39.2866C9.43141 39.4852 8.73743 39.8441 8.14407 40.3384C7.60627 40.831 7.18237 41.4349 6.90189 42.1082C6.62141 42.7814 6.49111 43.5076 6.52007 44.2364C6.51436 45.1401 6.78153 46.0244 7.28663 46.7738C7.79174 47.5232 8.51126 48.1026 9.35107 48.4364C9.55107 48.5284 9.75907 48.6144 9.97507 48.6944" fill="#876C59"/>
<path d="M20.5919 49.3385C20.8833 49.4444 21.196 49.4789 21.5035 49.4389C21.811 49.399 22.1044 49.2859 22.3592 49.109C22.6139 48.9322 22.8225 48.6968 22.9674 48.4226C23.1123 48.1485 23.1893 47.8435 23.1919 47.5335L23.2389 41.1965C23.2464 40.9389 23.2024 40.6823 23.1095 40.442C23.0165 40.2016 22.8765 39.9822 22.6977 39.7966C22.5188 39.611 22.3047 39.4631 22.0679 39.3613C21.8312 39.2596 21.5764 39.2062 21.3187 39.2042C21.061 39.2022 20.8055 39.2516 20.5672 39.3497C20.3288 39.4477 20.1125 39.5924 19.9308 39.7752C19.7491 39.9579 19.6057 40.1751 19.509 40.4141C19.4124 40.653 19.3644 40.9088 19.3679 41.1665L19.3189 47.5045C19.3159 47.9041 19.4367 48.295 19.6646 48.6233C19.8925 48.9517 20.2164 49.2015 20.5919 49.3385Z" fill="#876C59"/>
<path d="M49.3541 49.3385C49.6456 49.4444 49.9582 49.4789 50.2657 49.4389C50.5732 49.399 50.8666 49.2859 51.1214 49.109C51.3761 48.9322 51.5847 48.6968 51.7296 48.4226C51.8745 48.1485 51.9515 47.8435 51.9541 47.5335L52.0011 41.1965C52.0086 40.9389 51.9646 40.6823 51.8717 40.442C51.7787 40.2016 51.6387 39.9822 51.4599 39.7966C51.281 39.611 51.067 39.4631 50.8302 39.3613C50.5934 39.2596 50.3386 39.2062 50.0809 39.2042C49.8232 39.2022 49.5677 39.2516 49.3294 39.3497C49.091 39.4477 48.8747 39.5924 48.693 39.7752C48.5113 39.9579 48.3679 40.1751 48.2712 40.4141C48.1746 40.653 48.1266 40.9088 48.1301 41.1665L48.0811 47.5045C48.078 47.9042 48.1987 48.2951 48.4266 48.6234C48.6546 48.9518 48.9786 49.2016 49.3541 49.3385Z" fill="#876C59"/>
</svg>
