<svg width="71" height="46" viewBox="0 0 71 46" fill="none" xmlns="http://www.w3.org/2000/svg">
<path d="M8.73096 4.42483C8.73096 4.42483 17.06 2.60083 21.711 6.10783C26.362 9.61483 29.351 12.5448 30.931 17.1608C32.431 21.5258 30.26 25.8958 25.201 26.1858L12.901 26.8858C9.94896 27.0588 8.01596 24.6808 9.53096 18.3868C10.957 12.4568 8.73096 4.42483 8.73096 4.42483Z" fill="#564632"/>
<path d="M10.4133 4.28211C9.64088 3.40117 8.82311 2.56104 7.96332 1.76511C6.78032 0.700113 5.87032 -0.554887 5.58532 0.264113C5.30032 1.08311 6.68532 1.68511 5.79232 2.67911C4.89932 3.67311 4.47232 2.97911 4.26232 3.66711C4.05232 4.35511 4.35532 4.12111 3.93932 4.86711C3.52332 5.61311 8.27432 5.96311 9.05932 6.00011C9.84432 6.03711 9.78232 5.42511 9.85932 5.18011C9.93632 4.93511 10.3973 4.73411 10.4173 4.28011" fill="#564632"/>
<path d="M56.1248 18.1708C56.1248 18.1708 59.1728 17.0268 59.5698 19.3108C59.5703 19.5484 59.5124 19.7825 59.401 19.9924C59.2896 20.2023 59.1282 20.3816 58.9311 20.5143C58.734 20.6471 58.5073 20.7292 58.2709 20.7536C58.0345 20.7779 57.7958 20.7436 57.5758 20.6538C57.5758 20.6538 58.3358 21.2628 57.6118 21.4808C57.0969 21.3999 56.6195 21.1621 56.2448 20.7998L55.7378 20.4898C55.7378 20.4898 56.0188 18.4918 56.1248 18.1708Z" fill="#7B7B7A"/>
<path d="M54.2241 18.082C54.7871 18.254 55.1781 21.153 54.4481 21.228C53.3071 21.345 48.4531 20.468 45.3631 20.221C44.3531 20.139 45.4351 18.222 45.5271 17.51C45.5295 17.4895 45.5359 17.4698 45.5461 17.452C45.9281 16.819 51.3461 17.206 54.2241 18.082Z" fill="#E30613"/>
<path d="M53.1672 17.2639C54.0479 17.0304 54.981 17.0936 55.8222 17.4439C56.6752 17.9999 56.4882 21.3059 55.7532 21.5599C55.0182 21.8139 52.7582 21.6489 52.6782 21.2699C52.4829 19.9909 52.5814 18.6842 52.9662 17.4489C53.0075 17.3645 53.0788 17.2985 53.1662 17.2639" fill="#DADADB"/>
<path d="M41.8818 14.2881V32.2531C41.8528 32.2531 41.8238 32.2531 41.7948 32.2531C35.3078 32.3331 32.8478 29.3391 32.8478 29.3391C32.8703 29.0549 32.8703 28.7693 32.8478 28.4851C32.8462 28.4818 32.8442 28.4788 32.8418 28.4761C32.7318 27.6347 32.7318 26.7825 32.8418 25.9411L32.8508 25.9501C32.8472 25.9465 32.8442 25.9425 32.8418 25.9381C33.8338 19.1881 36.5858 14.2881 41.8818 14.2881Z" fill="#AA050E"/>
<path d="M41.8822 28.8979V31.4419C41.8532 31.4434 41.8241 31.4434 41.7952 31.4419C35.5072 31.5199 33.0002 28.6619 32.8512 28.4859C32.8496 28.4826 32.8476 28.4796 32.8452 28.4769C32.7362 27.6353 32.7372 26.7832 32.8482 25.9419C32.8482 25.9419 32.8542 25.9479 32.8572 25.9479C35.3708 27.9996 38.554 29.0502 41.7952 28.8979C41.8241 28.8994 41.8532 28.8994 41.8822 28.8979Z" fill="#1A1A18"/>
<path d="M50.915 28.4831C50.8909 28.7679 50.8909 29.0542 50.915 29.3391C50.915 29.3391 49.046 32.1431 41.894 32.2541V14.2891C47.183 14.2951 49.929 19.1891 50.918 25.9361C50.918 25.9361 50.898 25.9651 50.857 26.0171C50.8758 26.0027 50.8935 25.987 50.91 25.9701C51.0567 26.7991 51.0594 27.6471 50.918 28.4771C50.9187 28.479 50.9187 28.4811 50.918 28.4831" fill="#E30613"/>
<path d="M50.918 28.4772C50.9187 28.4792 50.9187 28.4813 50.918 28.4832C50.814 28.6272 48.854 31.3322 41.894 31.4402V28.8982C47.238 28.8122 49.973 26.8442 50.857 26.0172C50.8756 26.0026 50.8933 25.9869 50.91 25.9702C51.0567 26.7992 51.0594 27.6473 50.918 28.4772Z" fill="#1A1A18"/>
<path d="M42.6092 31.684H41.1562C41.0828 31.6845 41.01 31.6705 40.9421 31.6428C40.8741 31.6152 40.8123 31.5743 40.7601 31.5226C40.708 31.471 40.6666 31.4095 40.6383 31.3418C40.61 31.274 40.5953 31.2014 40.5952 31.128V29.137C40.5957 29.0639 40.6107 28.9915 40.6391 28.9241C40.6676 28.8568 40.7091 28.7957 40.7612 28.7443C40.8133 28.693 40.875 28.6524 40.9428 28.6249C41.0105 28.5974 41.0831 28.5835 41.1562 28.584H42.6092C42.6824 28.5835 42.7549 28.5974 42.8227 28.6249C42.8905 28.6524 42.9522 28.693 43.0042 28.7443C43.0563 28.7957 43.0978 28.8568 43.1263 28.9241C43.1548 28.9915 43.1697 29.0639 43.1702 29.137V31.128C43.1701 31.2014 43.1554 31.274 43.1271 31.3418C43.0988 31.4095 43.0574 31.471 43.0053 31.5226C42.9532 31.5743 42.8913 31.6152 42.8234 31.6428C42.7554 31.6705 42.6826 31.6845 42.6092 31.684ZM41.1562 28.984C41.1359 28.9836 41.1157 28.9873 41.0967 28.9948C41.0778 29.0023 41.0606 29.0135 41.0461 29.0277C41.0316 29.042 41.02 29.059 41.0121 29.0777C41.0043 29.0965 41.0002 29.1167 41.0002 29.137V31.128C41.0007 31.148 41.0052 31.1676 41.0133 31.1859C41.0214 31.2041 41.0331 31.2206 41.0475 31.2343C41.062 31.2481 41.0791 31.2588 41.0977 31.266C41.1164 31.2731 41.1363 31.2765 41.1562 31.276H42.6092C42.6292 31.2765 42.649 31.2731 42.6677 31.266C42.6863 31.2588 42.7034 31.2481 42.7179 31.2343C42.7324 31.2206 42.744 31.2041 42.7521 31.1859C42.7602 31.1676 42.7647 31.148 42.7652 31.128V29.137C42.7652 29.1167 42.7612 29.0965 42.7533 29.0777C42.7454 29.059 42.7339 29.042 42.7193 29.0277C42.7048 29.0135 42.6876 29.0023 42.6687 28.9948C42.6498 28.9873 42.6296 28.9836 42.6092 28.984H41.1562Z" fill="#FFED00"/>
<path d="M49.9849 16.575C49.9849 19.826 46.8709 22.462 43.0249 22.462C42.9759 22.462 42.9249 22.462 42.8809 22.462C39.1019 22.395 36.0649 19.788 36.0649 16.575C36.0649 13.362 39.1019 10.754 42.8809 10.688C42.9269 10.688 42.9759 10.688 43.0249 10.688C46.8709 10.688 49.9849 13.324 49.9849 16.575Z" fill="#E9D8BB"/>
<path d="M42.8819 10.6899V22.4589C39.1029 22.3899 36.0659 19.7899 36.0659 16.5749C36.0659 13.3599 39.1029 10.7529 42.8819 10.6899Z" fill="#DDC295"/>
<path d="M39.3799 17.1729C39.3459 17.1729 39.3129 17.1729 39.2799 17.1729C38.9938 17.1759 38.7198 17.2886 38.5143 17.4878C38.3089 17.6869 38.1877 17.9573 38.1758 18.2432C38.1638 18.5291 38.2621 18.8087 38.4502 19.0242C38.6384 19.2398 38.902 19.375 39.1869 19.4019C39.2199 19.4019 39.2529 19.4019 39.2869 19.4019C39.573 19.3988 39.847 19.2861 40.0525 19.0869C40.2579 18.8878 40.3791 18.6174 40.391 18.3315C40.403 18.0456 40.3047 17.766 40.1166 17.5505C39.9285 17.3349 39.6648 17.1997 39.3799 17.1729" fill="#A57168"/>
<path d="M46.5898 17.1729C46.5568 17.1729 46.5228 17.1729 46.4898 17.1729C46.2036 17.1757 45.9294 17.2882 45.7238 17.4873C45.5182 17.6864 45.3968 17.9568 45.3848 18.2427C45.3727 18.5287 45.4709 18.8083 45.659 19.024C45.8471 19.2397 46.1109 19.3749 46.3958 19.4019C46.4288 19.4019 46.4618 19.4019 46.4958 19.4019C46.782 19.399 47.0562 19.2865 47.2618 19.0874C47.4674 18.8883 47.5887 18.6179 47.6008 18.332C47.6129 18.046 47.5147 17.7664 47.3266 17.5507C47.1385 17.335 46.8747 17.1998 46.5898 17.1729" fill="#DC968A"/>
<path d="M39.7939 14.1142C39.8859 14.0642 39.9799 13.9972 39.9409 13.9192C39.8909 13.8152 39.6899 13.8412 39.5859 13.8892C39.4815 13.9305 39.3953 14.0078 39.3429 14.1072C39.3219 14.1582 39.2869 14.2672 39.3999 14.2692C39.5251 14.2555 39.6448 14.2104 39.7479 14.1382L39.7939 14.1142Z" fill="#C5C5C6"/>
<path d="M45.8822 14.1129C45.7922 14.0629 45.6982 13.9969 45.7362 13.9179C45.7862 13.8129 45.9862 13.8399 46.0922 13.8859C46.1961 13.9292 46.2816 14.0073 46.3342 14.1069C46.3562 14.1569 46.3912 14.2659 46.2782 14.2679C46.153 14.2543 46.0333 14.2092 45.9302 14.1369L45.8822 14.1129Z" fill="#C5C5C6"/>
<path d="M46.421 15.6018V15.5938V15.5808C46.395 15.5408 46.324 15.5278 46.205 15.5278C46.0074 15.5382 45.8112 15.567 45.619 15.6138L45.571 15.6278C45.3773 15.6637 45.1872 15.7169 45.003 15.7868C44.893 15.8338 44.834 15.8798 44.834 15.9278V15.9458L44.859 16.0548V16.0618V16.0728C44.883 16.1138 44.953 16.1328 45.075 16.1278C45.2718 16.1174 45.4673 16.089 45.659 16.0428L45.707 16.0328C45.9014 15.9952 46.0921 15.9407 46.277 15.8698C46.39 15.8208 46.445 15.7698 46.445 15.7298V15.7098L46.421 15.6018Z" fill="#1A1A18"/>
<path d="M39.356 15.6018V15.5938V15.5808C39.382 15.5408 39.453 15.5278 39.572 15.5278C39.7696 15.5382 39.9658 15.567 40.158 15.6138L40.206 15.6278C40.3999 15.6653 40.59 15.7202 40.774 15.7918C40.884 15.8388 40.941 15.8848 40.944 15.9288V15.9388V15.9458L40.918 16.0548V16.0618V16.0728C40.894 16.1138 40.824 16.1328 40.702 16.1278C40.5052 16.1174 40.3097 16.089 40.118 16.0428L40.07 16.0328C39.8756 15.9952 39.6849 15.9407 39.5 15.8698C39.387 15.8208 39.332 15.7748 39.332 15.7278V15.7098L39.356 15.6018Z" fill="#1A1A18"/>
<path d="M40.9481 18.3298C40.915 18.0769 40.9409 17.8196 41.0239 17.5784C41.1069 17.3371 41.2447 17.1183 41.4265 16.9393C41.6083 16.7602 41.8291 16.6257 42.0715 16.5464C42.314 16.467 42.5716 16.4449 42.8241 16.4818H42.9401C43.1933 16.4437 43.4519 16.4648 43.6956 16.5436C43.9393 16.6223 44.1613 16.7565 44.3443 16.9357C44.5273 17.1148 44.6663 17.3339 44.7502 17.5758C44.8341 17.8178 44.8608 18.0759 44.8281 18.3298V18.4218C44.8609 18.6758 44.8342 18.9339 44.7503 19.1758C44.6663 19.4177 44.5274 19.6368 44.3443 19.8158C44.1613 19.9949 43.9392 20.129 43.6955 20.2076C43.4519 20.2862 43.1933 20.3072 42.9401 20.2688H42.8241C42.5717 20.306 42.3141 20.284 42.0716 20.2048C41.8291 20.1256 41.6083 19.9912 41.4265 19.8122C41.2447 19.6332 41.1069 19.4145 41.0239 19.1732C40.9409 18.932 40.9149 18.6748 40.9481 18.4218V18.3298Z" fill="#F3A5A6"/>
<path d="M42.8822 19.1528V30.1828C42.717 30.1127 42.5689 30.0076 42.4481 29.8749C42.3272 29.7422 42.2365 29.5849 42.1822 29.4138C40.2692 30.7198 37.9892 28.6428 37.9262 26.5198C37.9412 26.5838 36.0372 25.8628 35.6962 25.0498C34.5742 22.3948 35.6682 22.5458 35.5562 21.0748C35.5122 20.5068 33.8512 17.3818 36.3892 16.8198C36.4012 16.8778 36.4182 16.9258 36.4292 16.9838C36.5592 16.9288 36.5562 17.5488 36.7432 17.8838C36.7332 17.9158 36.7272 17.9478 36.7182 17.9758C36.9056 18.5262 37.1541 19.0539 37.4592 19.5488C37.9592 19.7388 38.5322 19.8078 38.7022 20.1368C38.7852 20.3038 39.5302 20.2088 39.6892 20.2808C39.8482 20.3528 40.2362 20.1568 40.4242 20.1538C40.9112 20.1398 40.9242 19.4908 41.3822 19.3868C42.0742 19.2368 41.6732 19.5198 41.9962 19.4388C42.3192 19.3578 42.5872 19.2138 42.8822 19.1528Z" fill="#E6E6E6"/>
<path d="M49.8331 20.9361C50.5571 22.1531 50.9121 23.6651 49.9541 24.6361C49.7541 24.8361 49.0951 25.1531 48.8901 25.4611C48.6527 26.0265 48.4803 26.6169 48.3761 27.2211C47.6641 29.3871 46.5511 28.3351 45.7341 29.1511C45.4571 29.4241 43.8771 30.6191 42.8501 30.1711V19.1621C43.0269 19.1183 43.2109 19.1125 43.3901 19.1451C43.7591 19.2081 44.3761 20.5521 44.6791 20.7541C44.9551 20.5861 45.0451 20.3161 45.2791 20.1201C45.6791 19.7851 46.0261 19.9411 46.4791 19.9931C46.8711 20.0331 46.8601 20.0191 47.1251 19.6751C47.3331 19.4101 47.9411 19.6241 48.2971 19.5341C48.4761 19.4881 48.6971 19.4821 48.9021 19.4151C49.4456 18.5248 49.7583 17.5129 49.8121 16.4711L50.0501 16.1191C51.2501 17.4371 51.9851 20.3191 49.8311 20.9361" fill="#F3F3F3"/>
<path d="M42.8821 18.5378V19.6458C42.4593 20.4852 41.7498 21.1454 40.8821 21.5068C39.3071 22.1268 37.8731 21.3448 36.3481 21.5288C36.9781 19.1988 40.0691 17.2978 42.4291 18.4138C42.5865 18.4266 42.7402 18.4687 42.8821 18.5378Z" fill="#E6E6E6"/>
<path d="M49.0688 20.6488C47.4978 21.1888 46.1378 22.1958 44.3818 21.6618C43.9627 21.5051 43.5983 21.2294 43.3335 20.8687C43.0687 20.5079 42.9148 20.0777 42.8908 19.6308C42.8908 19.6368 42.8848 19.6398 42.8818 19.6458V18.5378L42.9168 18.5618C45.2168 17.4338 47.5168 18.8968 49.0688 20.6528" fill="#F3F3F3"/>
<path d="M42.8052 19.165C42.8052 19.165 43.2322 21.021 40.3052 21.735C40.3052 21.735 38.3052 22.094 37.3052 20.95L36.8052 20.45C36.8052 20.45 39.5212 23.021 42.8052 19.165Z" fill="#CCCCCC"/>
<path d="M42.8071 19.165C42.8071 19.165 42.8521 22.776 47.5201 21.379C48.7001 21.025 48.8071 20.451 48.8071 20.451C48.8071 20.451 44.6621 21.949 42.8071 19.165Z" fill="#E8E8E8"/>
<path d="M36.9269 14.3682C36.9595 15.2089 36.851 16.0492 36.6059 16.8542C36.6059 16.8542 36.5229 18.5102 37.6279 19.0862C37.6279 19.0862 38.3279 19.5392 37.7169 19.5392C36.7259 19.5392 34.6039 20.0682 36.0269 15.3322L36.9269 14.3682Z" fill="#E6E6E6"/>
<path d="M49.3259 15.9121L49.1579 15.8291C48.9607 16.3992 48.9607 17.019 49.1579 17.5891C49.1988 18.3201 48.9901 19.0433 48.5659 19.6401L49.9969 19.3821C50.1769 18.1827 49.94 16.9579 49.3259 15.9121Z" fill="#F3F3F3"/>
<path d="M29.6992 2.90479C32.1192 5.90479 29.9112 7.54179 30.9462 9.41079C31.7322 10.8288 33.6752 10.7868 34.1782 11.6548C34.6262 12.4238 33.7022 14.8818 35.7842 15.3238C35.6752 14.8908 37.9392 11.7398 38.4932 11.5558C39.4295 11.017 40.4648 10.6725 41.5372 10.5428C41.5372 10.5428 42.2152 10.4598 42.8842 10.4428C42.9472 10.4428 43.0112 10.4428 43.0742 10.4428C44.273 10.4065 45.4667 10.6129 46.5837 11.0496C47.7007 11.4862 48.7179 12.1441 49.5742 12.9838C49.5324 11.8187 49.2545 10.6742 48.7572 9.61979C48.1509 8.50695 47.2599 7.57517 46.1752 6.91979C45.1406 6.44649 44.024 6.17821 42.8872 6.12979C42.5812 6.10679 42.2672 6.09179 41.9502 6.09179H41.9092C40.7198 6.00087 39.5258 6.19205 38.4242 6.64979C36.5992 7.88078 37.2652 5.48679 35.0122 7.09279C32.9312 8.57679 33.8822 4.20479 29.6992 2.90479Z" fill="#AA050E"/>
<path d="M42.8838 6.12988V10.4449C42.9478 10.4449 43.0108 10.4449 43.0748 10.4449C44.2736 10.4088 45.4674 10.6153 46.5844 11.0521C47.7014 11.489 48.7185 12.1471 49.5748 12.9869C49.5331 11.8214 49.2548 10.6765 48.7568 9.62188C48.1505 8.50852 47.2595 7.57608 46.1748 6.91988C45.139 6.44667 44.0215 6.1784 42.8838 6.12988" fill="#E30613"/>
<path d="M29.674 5.16592C29.2438 5.16552 28.8234 5.03757 28.4659 4.79825C28.1085 4.55893 27.83 4.21899 27.6658 3.82141C27.5015 3.42383 27.4588 2.98647 27.5432 2.56464C27.6275 2.1428 27.835 1.75545 28.1394 1.45155C28.4439 1.14765 28.8316 0.940857 29.2536 0.857322C29.6756 0.773787 30.1129 0.817261 30.5102 0.982247C30.9074 1.14723 31.2469 1.42632 31.4855 1.78422C31.7242 2.14211 31.8514 2.56274 31.851 2.99292C31.8507 3.27854 31.7942 3.56132 31.6846 3.8251C31.5751 4.08889 31.4147 4.32851 31.2125 4.53029C31.0104 4.73207 30.7704 4.89206 30.5065 5.00112C30.2425 5.11018 29.9596 5.16618 29.674 5.16592Z" fill="#F3F3F3"/>
<path d="M42.8881 10.1631V13.0471C37.2061 13.1891 36.4561 16.1861 36.4561 16.1861C36.2146 16.0045 36.0139 15.7742 35.867 15.5101C35.7201 15.2461 35.6303 14.9541 35.6033 14.6532C35.5764 14.3522 35.6129 14.0489 35.7105 13.763C35.8082 13.477 35.9647 13.2147 36.1701 12.9931C37.9477 11.1994 40.3629 10.182 42.8881 10.1631" fill="#E6E6E6"/>
<path d="M49.6212 16.8641C47.9082 13.2391 43.0422 13.0451 43.0422 13.0451C42.9902 13.0451 42.9422 13.0451 42.8872 13.0451V10.1641C44.6833 10.1782 46.4447 10.6607 47.9972 11.5641C52.0972 14.8091 49.6192 16.8641 49.6192 16.8641" fill="#F3F3F3"/>
<path d="M22.3069 15.4348L29.6259 26.1498C29.8855 26.5069 30.2269 26.7967 30.6215 26.9948C31.0161 27.193 31.4524 27.2938 31.8939 27.2888L42.6419 27.3768C43.303 27.4229 43.9556 27.2061 44.4577 26.7735C44.9597 26.3409 45.2707 25.7275 45.3229 25.0668V24.5198C45.375 23.859 45.6861 23.2456 46.1885 22.8132C46.6908 22.3807 47.3437 22.1642 48.0049 22.2108L55.3199 22.2668C55.982 22.231 56.6315 22.4579 57.1272 22.8984C57.6228 23.3388 57.9246 23.9571 57.9669 24.6188L57.9419 27.4908L57.9019 32.6968L57.8829 35.5768C57.8307 36.2376 57.5196 36.851 57.0172 37.2835C56.5149 37.716 55.8621 37.9325 55.2009 37.8858L37.5419 37.7468L17.4089 37.5898H17.3959C16.9543 37.5948 16.518 37.4941 16.1233 37.2961C15.7286 37.0982 15.3869 36.8087 15.1269 36.4518L2.32386 17.6998C1.25686 16.1388 2.54986 14.1628 4.62686 14.1768L20.0419 14.2968C20.4835 14.2915 20.9199 14.3921 21.3147 14.5901C21.7094 14.7881 22.051 15.0777 22.3109 15.4348" fill="#E6252E"/>
<path d="M59.727 23.1163C59.3875 22.2376 58.782 21.4868 57.9952 20.9689C57.2083 20.451 56.2793 20.1917 55.338 20.2273L47.464 20.1673C46.169 20.1588 44.9236 20.6641 44.0007 21.5726C43.0778 22.481 42.5529 23.7184 42.541 25.0133C42.5462 25.1507 42.5238 25.2877 42.475 25.4163C42.4262 25.5448 42.3521 25.6623 42.2571 25.7616C42.162 25.861 42.048 25.9402 41.9217 25.9946C41.7954 26.049 41.6595 26.0775 41.522 26.0783L31.235 26.0123C31.0608 26.0116 30.8898 25.9658 30.7386 25.8794C30.5873 25.793 30.4611 25.669 30.372 25.5193L23.217 13.5343C22.785 12.8157 22.1765 12.2194 21.4493 11.802C20.7221 11.3846 19.9004 11.1599 19.062 11.1493L5.38499 11.0493C4.66829 11.0149 3.95243 11.1328 3.28465 11.3953C2.61688 11.6579 2.01236 12.059 1.51099 12.5723C0.466483 13.7931 -0.0703439 15.3677 0.0109869 16.9723C0.0424151 17.4848 0.276158 17.9639 0.660795 18.3041C0.851248 18.4725 1.07301 18.6018 1.31343 18.6845C1.55385 18.7673 1.80821 18.8019 2.06199 18.7863C2.31577 18.7707 2.564 18.7053 2.7925 18.5939C3.02101 18.4824 3.22532 18.3269 3.39376 18.1365C3.56221 17.946 3.69149 17.7243 3.77423 17.4839C3.85697 17.2434 3.89155 16.9891 3.87599 16.7353C3.8547 16.1973 4.01302 15.6675 4.32599 15.2293C4.40199 15.1513 4.63199 14.9143 5.35499 14.9203L19.031 15.0253C19.2051 15.027 19.3758 15.0733 19.5269 15.1598C19.678 15.2462 19.8044 15.37 19.894 15.5193L27.046 27.5043C27.6269 28.4698 28.5218 29.2066 29.581 29.5913C30.1035 29.782 30.6548 29.8815 31.211 29.8853L41.5 29.9493C42.7941 29.956 44.0381 29.4495 44.9595 28.5408C45.8809 27.6322 46.4046 26.3954 46.416 25.1013C46.4112 24.964 46.4339 24.8271 46.4829 24.6987C46.5319 24.5703 46.6062 24.4531 46.7013 24.3539C46.7964 24.2547 46.9104 24.1756 47.0366 24.1212C47.1628 24.0668 47.2986 24.0383 47.436 24.0373L55.311 24.0993C55.764 24.0993 56.022 24.2243 56.106 24.4753H56.116C56.1919 24.7296 56.3194 24.9656 56.4904 25.1685C56.6614 25.3715 56.8723 25.5371 57.11 25.655C57.3478 25.773 57.6072 25.8408 57.8723 25.8542C58.1373 25.8676 58.4023 25.8264 58.6507 25.733C58.8992 25.6397 59.1257 25.4962 59.3164 25.3116C59.507 25.1269 59.6576 24.905 59.7588 24.6597C59.86 24.4144 59.9097 24.1509 59.9048 23.8855C59.8998 23.6202 59.8403 23.3587 59.73 23.1173" fill="#E3D4BC"/>
<path d="M9.97507 45.2349C11.6789 45.7758 13.461 46.0286 15.2481 45.9829C18.0911 46.0059 56.4811 45.9929 58.1141 45.9919C65.8381 46.0509 70.3021 42.9519 70.3461 37.4859C70.3761 33.2859 67.2581 30.4409 64.3311 30.4199C63.1355 30.3736 61.9602 30.7394 61.0021 31.4561C60.044 32.1728 59.3613 33.1969 59.0681 34.3569C58.8407 35.4564 59.0086 36.6008 59.5422 37.5887C60.0758 38.5765 60.9409 39.3443 61.9851 39.7569C62.4492 39.9769 62.9817 40.0035 63.4655 39.8309C63.9492 39.6583 64.3446 39.3006 64.5646 38.8364C64.7846 38.3723 64.8112 37.8398 64.6385 37.356C64.4659 36.8723 64.1082 36.4769 63.6441 36.2569C63.2171 36.0569 62.7291 35.7089 62.8441 35.2219C62.9477 34.9255 63.1481 34.6725 63.4129 34.5036C63.6777 34.3348 63.9916 34.2599 64.3041 34.2909C65.1971 34.2959 66.4911 35.5349 66.4761 37.4559C66.4501 40.5919 63.6441 42.1619 58.1321 42.1199C57.7161 42.1199 18.1061 42.1319 15.2811 42.1099C13.8248 42.1905 12.3674 41.973 10.9981 41.4709C10.3901 41.1869 10.3921 40.9829 10.3981 40.8029C10.3688 40.4357 10.478 40.0708 10.7041 39.7799C11.0964 39.5452 11.564 39.4704 12.0101 39.5709C12.5198 39.6313 13.0327 39.4866 13.4358 39.1689C13.8389 38.8511 14.0992 38.3862 14.1596 37.8764C14.2199 37.3667 14.0753 36.8538 13.7575 36.4507C13.4397 36.0476 12.9748 35.7873 12.4651 35.7269C11.7045 35.5928 10.9239 35.6262 10.1776 35.8248C9.4313 36.0235 8.73732 36.3825 8.14407 36.8769C7.60627 37.3695 7.18237 37.9735 6.90189 38.6467C6.62141 39.3199 6.49111 40.0462 6.52007 40.7749C6.51436 41.6786 6.78153 42.563 7.28663 43.3123C7.79174 44.0617 8.51126 44.6412 9.35107 44.9749C9.55107 45.0669 9.75907 45.1526 9.97507 45.2319" fill="#876C59"/>
<path d="M20.5919 45.8761C20.8834 45.9815 21.1958 46.0156 21.5032 45.9755C21.8105 45.9354 22.1037 45.8222 22.3583 45.6454C22.6129 45.4687 22.8215 45.2335 22.9665 44.9596C23.1116 44.6857 23.1888 44.381 23.1919 44.0711L23.2389 37.7341C23.2464 37.4764 23.2024 37.2199 23.1095 36.9796C23.0165 36.7392 22.8765 36.5198 22.6977 36.3342C22.5188 36.1486 22.3048 36.0007 22.068 35.8989C21.8312 35.7972 21.5765 35.7438 21.3187 35.7418C21.061 35.7398 20.8055 35.7892 20.5672 35.8873C20.3288 35.9853 20.1125 36.13 19.9308 36.3128C19.7491 36.4955 19.6057 36.7127 19.509 36.9516C19.4124 37.1906 19.3644 37.4464 19.3679 37.7041L19.3189 44.0411C19.3156 44.4409 19.4362 44.832 19.6641 45.1606C19.8921 45.4892 20.2162 45.7391 20.5919 45.8761Z" fill="#876C59"/>
<path d="M49.3551 45.8758C49.6465 45.9812 49.959 46.0153 50.2664 45.9752C50.5737 45.9351 50.8669 45.8219 51.1215 45.6451C51.3761 45.4684 51.5847 45.2332 51.7297 44.9593C51.8747 44.6854 51.952 44.3807 51.9551 44.0708L52.0021 37.7338C52.0041 37.4795 51.9559 37.2274 51.8605 36.9918C51.765 36.7561 51.624 36.5416 51.4457 36.3604C51.2673 36.1793 51.055 36.035 50.8208 35.9359C50.5867 35.8368 50.3353 35.7847 50.0811 35.7828C49.8269 35.7808 49.5747 35.8289 49.3391 35.9244C49.1034 36.0199 48.8889 36.1608 48.7077 36.3392C48.5266 36.5176 48.3823 36.7299 48.2832 36.964C48.1841 37.1982 48.1321 37.4495 48.1301 37.7038L48.0821 44.0408C48.0788 44.4407 48.1994 44.8318 48.4273 45.1603C48.6553 45.4889 48.9794 45.7388 49.3551 45.8758Z" fill="#876C59"/>
<path d="M44.9682 23.5418C44.9682 23.5418 48.0292 24.6508 48.4012 22.3638C48.3991 22.1262 48.3386 21.8926 48.2249 21.6839C48.1112 21.4752 47.9478 21.2977 47.7492 21.1672C47.5506 21.0366 47.3229 20.9569 47.0862 20.9352C46.8495 20.9136 46.6112 20.9505 46.3922 21.0428C46.3922 21.0428 47.1452 20.4258 46.4192 20.2158C45.9039 20.3011 45.4278 20.5439 45.0562 20.9108L44.5562 21.2268C44.5562 21.2268 44.8562 23.2268 44.9682 23.5418Z" fill="#5C5C5C"/>
<path d="M43.0688 23.6508C43.6298 23.4728 43.9888 20.5698 43.2568 20.5028C42.1158 20.3948 37.2718 21.3288 34.1838 21.6088C33.1748 21.6998 34.2838 23.6088 34.3778 24.3188C34.3807 24.3389 34.3875 24.3583 34.3978 24.3758C34.7868 25.0048 40.1978 24.5578 43.0688 23.6508Z" fill="#AA050E"/>
<path d="M42.0201 24.4808C42.9037 24.7046 43.8364 24.6311 44.6741 24.2718C45.5211 23.7068 45.2981 20.4028 44.5591 20.1568C43.8201 19.9108 41.5641 20.1008 41.4881 20.4808C41.3064 21.7617 41.4193 23.0671 41.8181 24.2978C41.8595 24.3817 41.9309 24.447 42.0181 24.4808" fill="#B3B3B3"/>
</svg>
